<?xml version="1.0" standalone="no"?>
<!DOCTYPE svg PUBLIC "-//W3C//DTD SVG 1.1//EN" "http://www.w3.org/Graphics/SVG/1.1/DTD/svg11.dtd" >
<svg>
<metadata>
Created by FontForge 20090914 at Wed Oct 14 14:00:42 2020
 By www-data
Copyright 1990-1998 Bitstream Inc.  All rights reserved.
</metadata>
<defs>
<font id="ZurichBT-ItalicCondensed" horiz-adv-x="981" >
  <font-face 
    font-family="Zurich Cn BT"
    font-weight="400"
    font-style="italic"
    font-stretch="condensed"
    units-per-em="2048"
    panose-1="2 11 5 6 2 2 2 11 2 4"
    ascent="1556"
    descent="-492"
    x-height="1028"
    cap-height="1475"
    bbox="-342 -483 2003 1972"
    underline-thickness="119"
    underline-position="-136"
    slope="-12"
    unicode-range="U+0020-U+F002"
  />
<missing-glyph horiz-adv-x="1229" 
d="M102 -362v1806h1024v-1806h-1024zM217 -248h795v1577h-795v-1577z" />
    <glyph glyph-name=".notdef" horiz-adv-x="1229" 
d="M102 -362v1806h1024v-1806h-1024zM217 -248h795v1577h-795v-1577z" />
    <glyph glyph-name="space" unicode=" " horiz-adv-x="492" 
 />
    <glyph glyph-name="exclam" unicode="!" horiz-adv-x="616" 
d="M152 356l204 1119h211l-276 -1119h-139zM45 0l43 195h193l-41 -195h-195z" />
    <glyph glyph-name="quotedbl" unicode="&#x22;" horiz-adv-x="590" 
d="M496 1434v-553h-119v553h119zM211 1434v-553h-117v553h117z" />
    <glyph glyph-name="numbersign" unicode="#" horiz-adv-x="1575" 
d="M973 862h-264l-95 -272h263zM922 1456l-166 -471h260l168 471h143l-164 -471h307l-43 -123h-311l-94 -272h330l-43 -123h-332l-166 -469h-145l168 469h-265l-168 -469h-143l166 469h-320l43 123h320l96 272h-342l43 123h344l168 471h146z" />
    <glyph glyph-name="dollar" unicode="$" 
d="M508 668l-104 -491.999c76 2 137.167 28.5 183.5 79.5s69.5 117.5 69.5 199.5c0 51.333 -12 94.166 -36 128.499s-61.667 62.5 -113 84.5zM471 887.001l88.001 415.999h-6c-60.667 0 -111.334 -22.333 -152.001 -67s-61 -99.667 -61 -165
c0 -41.333 10.333 -76.666 31 -105.999s54 -55.333 100 -78zM23.001 467h143c-2.66699 -20 -4.66699 -39 -6 -57s-2 -33 -2 -45c0 -54.667 12.833 -96.5 38.5 -125.5s66.5 -48.833 122.5 -59.5l115 531c-87.333 48.667 -150.833 99.667 -190.5 153s-59.5 114.333 -59.5 183
c0 117.333 36.333 213.166 109 287.499s166.667 111.5 282 111.5h17l29 151h84l-33 -157c81.333 -9.33301 144 -37.333 188 -84s66 -108.334 66 -185.001c0 -13.333 -1.16699 -30.166 -3.5 -50.499s-5.5 -43.5 -9.5 -69.5h-151c0.666992 12 2 28.333 4 49
c2.66699 31.333 4 51.666 4 60.999c0 42 -10 73.833 -30 95.5s-52.333 35.5 -97 41.5l-98 -454c98.667 -53.333 170 -109.166 214 -167.499s66 -126.166 66 -203.499c0 -132.667 -39.5 -239.167 -118.5 -319.5s-184.167 -120.5 -315.5 -120.5h-18l-37 -172h-84l39 180
c-90 12 -159.333 45.167 -208 99.5s-73 125.5 -73 213.5c0 18 1.16699 36.5 3.5 55.5s5.5 38.167 9.5 57.5z" />
    <glyph glyph-name="percent" unicode="%" horiz-adv-x="1432" 
d="M1077 604c-23.333 0 -43.1689 -4.33301 -59.502 -13s-31.166 -22.667 -44.499 -42c-5.33301 -7.33301 -10.666 -17.833 -15.999 -31.5s-13 -38.167 -23 -73.5c-13.333 -50.667 -23.5 -98 -30.5 -142s-10.5 -83.333 -10.5 -118c0 -31.333 8 -56.166 24 -74.499
s38 -27.5 66 -27.5c24 0 44.167 3.83301 60.5 11.5s30.166 19.5 41.499 35.5c8.66699 11.333 16.334 25.666 23.001 42.999s14 42 22 74c14 53.333 24.333 101.833 31 145.5s10 80.5 10 110.5s-8.66699 54.5 -26 73.5s-40 28.5 -68 28.5zM751.997 199
c0 164.667 28.166 291.834 84.499 381.501s136.5 134.5 240.5 134.5c77.333 0 136.333 -19.833 177 -59.5s61 -97.167 61 -172.5c0 -74.667 -10.5 -150.834 -31.5 -228.501s-45.5 -135.834 -73.5 -174.501c-25.333 -35.333 -57.166 -61.666 -95.499 -78.999
s-83.5 -26 -135.5 -26c-70 0 -125.333 20.167 -166 60.5s-61 94.833 -61 163.5zM149.996 -25l978 1475h138l-979 -1475h-137zM421.996 1341c-21.333 0 -39.332 -4.33105 -53.999 -12.998s-28.667 -23.334 -42 -44.001c-19.333 -30.667 -37.5 -81.667 -54.5 -153
s-25.5 -141 -25.5 -209c0 -32 8 -57.167 24 -75.5s38 -27.5 66 -27.5c24 0 44.167 3.83301 60.5 11.5s30.166 19.5 41.499 35.5c8 11.333 15.5 25.666 22.5 42.999s14.5 42 22.5 74c13.333 53.333 23.5 101.833 30.5 145.5s10.5 80.5 10.5 110.5c0 32 -9 57 -27 75
s-43 27 -75 27zM103.997 936.002c0 164.667 28.332 291.83 84.999 381.497s137 134.5 241 134.5c77.333 0 136.333 -19.667 177 -59s61 -96.666 61 -171.999s-10.5 -151.666 -31.5 -228.999s-45.5 -135.666 -73.5 -174.999c-25.333 -34.667 -57.166 -60.667 -95.499 -78
s-83.5 -26 -135.5 -26c-70 0 -125.5 20 -166.5 60s-61.5 94.333 -61.5 163z" />
    <glyph glyph-name="ampersand" unicode="&#x26;" horiz-adv-x="1114" 
d="M596 178l115.002 527h-226c-44.667 0 -81.334 -6.5 -110.001 -19.5s-51.334 -33.167 -68.001 -60.5c-23.333 -40 -42.833 -89.5 -58.5 -148.5s-23.5 -114.833 -23.5 -167.5c0 -45.333 10.5 -78.5 31.5 -99.5s54.167 -31.5 99.5 -31.5h240zM1055 705l-155.996 0.00292969
l-149 -705h-191c-20.667 0 -49.334 -0.333008 -86.001 -1s-63.334 -1 -80.001 -1c-62 0 -112 4.16699 -150 12.5s-72 21.833 -102 40.5c-34.667 21.333 -60.334 52.166 -77.001 92.499s-25 91.5 -25 153.5c0 148 25.167 265.667 75.5 353s122.166 137.666 215.499 150.999
c-40.667 14 -71 39.667 -91 77s-30 86 -30 146c0 51.333 7.5 104.5 22.5 159.5s34.833 102.167 59.5 141.5c34 55.333 74.333 94.166 121 116.499s117 33.5 211 33.5h249l-38 -179h-244c-66 0 -115 -25 -147 -75s-48 -126.667 -48 -230c0 -44 12.5 -77.167 37.5 -99.5
s62.5 -33.5 112.5 -33.5h196l62 287h190l-59 -287h158z" />
    <glyph glyph-name="quotesingle" unicode="'" horiz-adv-x="305" 
d="M211 1434v-553h-117v553h117z" />
    <glyph glyph-name="parenleft" unicode="(" horiz-adv-x="592" 
d="M123 -307c-11.333 80.667 -19.667 161.999 -25 243.999s-8 165 -8 249c0 222 33.667 437.333 101 646s175 430.334 323 665.001h133c-138 -258 -240.333 -513.667 -307 -767s-100 -513 -100 -779c0 -38.667 0.666992 -79.667 2 -123s3.33301 -88.333 6 -135h-125z" />
    <glyph glyph-name="parenright" unicode=")" horiz-adv-x="592" 
d="M418 1497c10.667 -80.667 18.834 -162 24.501 -244s8.5 -165 8.5 -249c0 -223.333 -33.5 -439.333 -100.5 -648s-174.167 -429.667 -321.5 -663h-133c137.333 256 239.166 510.667 305.499 764s99.5 514 99.5 782c0 60 -0.5 109 -1.5 147s-2.5 75 -4.5 111h123z" />
    <glyph glyph-name="asterisk" unicode="*" 
d="M573 1069l-131 -281l-110 64l176 254l-307 -25v127l307 -26l-176 252l110 63l131 -278l132 278l110 -63l-176 -252l307 24v-127l-307 27l176 -254l-110 -64z" />
    <glyph glyph-name="plus" unicode="+" horiz-adv-x="1706" 
d="M913 1221v-551h539v-117h-539v-553h-118v553h-541v117h541v551h118z" />
    <glyph glyph-name="comma" unicode="," horiz-adv-x="492" 
d="M-154 -254l199 457h213l-274 -457h-138z" />
    <glyph glyph-name="hyphen" unicode="-" horiz-adv-x="569" 
d="M4 434l33 160h432l-33 -160h-432z" />
    <glyph glyph-name="period" unicode="." horiz-adv-x="492" 
d="M-6 0l43 205h194l-43 -205h-194z" />
    <glyph glyph-name="slash" unicode="/" horiz-adv-x="569" 
d="M33 -190h-123l610 1687h123z" />
    <glyph glyph-name="zero" unicode="0" 
d="M588 1309c-48 0 -89.001 -14.168 -123.001 -42.501s-61.333 -70.833 -82 -127.5c-18 -49.333 -34.667 -102.333 -50 -159s-32.666 -132 -51.999 -226c-28.667 -135.333 -47.5 -233.333 -56.5 -294s-13.5 -111 -13.5 -151c0 -61.333 14.667 -108 44 -140s72 -48 128 -48
c48 0 89.5 14.833 124.5 44.5s63.167 74.167 84.5 133.5c15.333 44.667 32.333 102.5 51 173.5s37 149.167 55 234.5c22 99.333 37.833 180.333 47.5 243s14.5 113.334 14.5 152.001c0 70 -14.167 122 -42.5 156s-71.5 51 -129.5 51zM30.999 308.999
c0 29.333 2.33105 64.167 6.99805 104.5s12.334 91.5 23.001 153.5c32.667 173.333 60 304 82 392s46 165 72 231c34.667 88 84 153.667 148 197s143 65 237 65c110.667 0 195 -29 253 -87s87 -142.333 87 -253c0 -48.667 -5.16699 -108.167 -15.5 -178.5
s-26.166 -154.833 -47.499 -253.5c-20 -90.667 -40 -172.5 -60 -245.5s-40.333 -136.5 -61 -190.5c-36 -92 -85 -159.5 -147 -202.5s-141.333 -64.5 -238 -64.5c-108.667 0 -192.5 29 -251.5 87s-88.5 139.667 -88.5 245z" />
    <glyph glyph-name="one" unicode="1" 
d="M293 0l256 1204c-30.667 -26 -69 -50.5 -115 -73.5s-102 -46.167 -168 -69.5l37 172c74.667 31.333 137.5 63.333 188.5 96s89.833 65.334 116.5 98.001h170l-303 -1427h-182z" />
    <glyph glyph-name="two" unicode="2" 
d="M-76 0l28.999 135l254 252c232 230.667 380.5 392.834 445.5 486.501s97.5 177.167 97.5 250.5c0 56.667 -15.667 100.167 -47 130.5s-76 45.5 -134 45.5c-60 0 -107.5 -18.5 -142.5 -55.5s-59.167 -94.833 -72.5 -173.5h-184c22.667 125.333 68 219.833 136 283.5
s157.667 95.5 269 95.5c114.667 0 202.834 -27.167 264.501 -81.5s92.5 -131.5 92.5 -231.5c0 -102.667 -36.833 -209.834 -110.5 -321.501s-230.167 -281.167 -469.5 -508.5l-166 -155h559l-32 -152h-789z" />
    <glyph glyph-name="three" unicode="3" 
d="M11 391l176.998 -0.00195312c-2 -25.333 -3.5 -46.666 -4.5 -63.999s-1.5 -30 -1.5 -38c0 -53.333 15 -94 45 -122s73 -42 129 -42c72 0 130 34.833 174 104.5s66 161.834 66 276.501c0 62 -16 105.833 -48 131.5s-87.667 38.5 -167 38.5h-33l38 153
c6 -0.666992 12.833 -1.16699 20.5 -1.5s18.834 -0.5 33.501 -0.5c100 0 173.5 25.667 220.5 77s70.5 131 70.5 239c0 53.333 -13.333 94.333 -40 123s-65.334 43 -116.001 43c-60 0 -107.5 -18.833 -142.5 -56.5s-59.833 -96.834 -74.5 -177.501h-186
c26.667 131.333 73 226.666 139 285.999s159 89 279 89c102.667 0 181.834 -25 237.501 -75s83.5 -121.333 83.5 -214c0 -123.333 -25.167 -220.166 -75.5 -290.499s-125.5 -113.5 -225.5 -129.5c58.667 -22 101.334 -54.833 128.001 -98.5s40 -102.167 40 -175.5
c0 -66 -10.167 -131.167 -30.5 -195.5s-47.5 -117.166 -81.5 -158.499c-39.333 -48 -84.5 -83 -135.5 -105s-113.167 -33 -186.5 -33c-114 0 -199.167 27 -255.5 81s-84.5 135.667 -84.5 245c0 13.333 0.5 27.5 1.5 42.5s2.83301 30.833 5.5 47.5z" />
    <glyph glyph-name="four" unicode="4" 
d="M719 1329l-76 -124c-22 -35.333 -41 -64.333 -57 -87l-422 -612h350l143 598c6.66699 29.333 15 62.333 25 99s22.333 78.667 37 126zM408 0l77 365h-491l41 196l618 866h236l-195 -921h180l-30 -141h-180l-78 -365h-178z" />
    <glyph glyph-name="five" unicode="5" 
d="M39 323h174c-2 -15.333 -3.16699 -26.5 -3.5 -33.5s-0.5 -13.5 -0.5 -19.5c0 -50 12.333 -87.333 37 -112s62 -37 112 -37c51.333 0 94.166 10.333 128.499 31s59.833 51.334 76.5 92.001c23.333 57.333 42.166 119.833 56.499 187.5s21.5 127.167 21.5 178.5
c0 57.333 -12.667 101 -38 131s-61.666 45 -108.999 45c-50 0 -94 -15 -132 -45s-62.333 -69.333 -73 -118h-183l199 804h656l-33 -149h-488l-112 -451c33.333 33.333 69.333 58.166 108 74.499s81 24.5 127 24.5c84 0 148.333 -25.5 193 -76.5s67 -123.833 67 -218.5
c0 -110 -14.167 -214.5 -42.5 -313.5s-64.5 -173.5 -108.5 -223.5c-35.333 -39.333 -79.666 -69 -132.999 -89s-115 -30 -185 -30c-106 0 -186.667 23 -242 69s-83 112.667 -83 200c0 10 0.833008 21.333 2.5 34s4.16699 27.667 7.5 45z" />
    <glyph glyph-name="six" unicode="6" 
d="M305 797c37.333 41.333 77.168 71.002 119.501 89.002s92.5 27 150.5 27c86.667 0 152.834 -26 198.501 -78s68.5 -127.667 68.5 -227c0 -102 -14 -200.167 -42 -294.5s-64 -166.833 -108 -217.5c-34.667 -40.667 -76.834 -70.667 -126.501 -90s-110.5 -29 -182.5 -29
c-115.333 0 -200.5 26.167 -255.5 78.5s-82.5 132.833 -82.5 241.5c0 36.667 3.33301 80.334 10 131.001s17 110 31 178c22 114 44 216.167 66 306.5s40.333 156.166 55 197.499c46 130 99.5 219.5 160.5 268.5s146.833 73.5 257.5 73.5
c103.333 0 181.666 -22.5 234.999 -67.5s80 -111.167 80 -198.5c0 -18.667 -0.333008 -32.834 -1 -42.501s-1.66699 -18.834 -3 -27.501l-168 1c0.666992 5.33301 1.16699 11.333 1.5 18s0.5 16 0.5 28c0 54 -12.833 93.833 -38.5 119.5s-65.5 38.5 -119.5 38.5
c-74.667 0 -133 -32.667 -175 -98s-86 -207.333 -132 -426zM506.002 778.002c-92 0 -163.165 -42.833 -213.498 -128.5s-75.5 -206.5 -75.5 -362.5c0 -56.667 13.167 -98.834 39.5 -126.501s66.5 -41.5 120.5 -41.5c89.333 0 158.666 42.333 207.999 127
s74 203.334 74 356.001c0 58.667 -12.833 102.667 -38.5 132s-63.834 44 -114.501 44z" />
    <glyph glyph-name="seven" unicode="7" 
d="M72 0l673 1268h-565l35 159h748l-35 -172l-637 -1255h-219z" />
    <glyph glyph-name="eight" unicode="8" 
d="M578 1311c-68 0 -119.832 -25.668 -155.499 -77.001s-53.5 -125.333 -53.5 -222c0 -63.333 13.667 -110 41 -140s69.666 -45 126.999 -45c70 0 123.667 27.167 161 81.5s56 132.5 56 234.5c0 54.667 -15.167 96.334 -45.5 125.001s-73.833 43 -130.5 43zM446.001 673.999
c-76 0 -135.166 -30.665 -177.499 -91.998s-63.5 -147.333 -63.5 -258c0 -64.667 15.667 -114.334 47 -149.001s75.666 -52 132.999 -52c74 0 132.5 32.167 175.5 96.5s64.5 152.166 64.5 263.499c0 61.333 -15.5 108.5 -46.5 141.5s-75.167 49.5 -132.5 49.5z
M336.002 774.001c-47.333 20 -83.501 47.9971 -108.501 83.9971s-37.5 79 -37.5 129c0 154 33.833 270 101.5 348s168.5 117 302.5 117c110.667 0 194.667 -25.5 252 -76.5s86 -125.833 86 -224.5c0 -124.667 -23.833 -221 -71.5 -289s-118.167 -106 -211.5 -114
c54 -23.333 93.833 -56.666 119.5 -99.999s38.5 -99 38.5 -167c0 -158 -37.5 -281.833 -112.5 -371.5s-178.833 -134.5 -311.5 -134.5c-114 0 -201.833 31 -263.5 93s-92.5 150 -92.5 264c0 128.667 26.833 231.334 80.5 308.001s129.834 121.334 228.501 134.001z" />
    <glyph glyph-name="nine" unicode="9" 
d="M588 1311c-36.667 0 -70.5 -6.83105 -101.5 -20.498s-55.833 -32.834 -74.5 -57.501c-30 -39.333 -55.333 -96.833 -76 -172.5s-31 -152.834 -31 -231.501c0 -59.333 12.5 -103.833 37.5 -133.5s63.167 -44.5 114.5 -44.5c92 0 163.5 43.167 214.5 129.5
s76.5 207.833 76.5 364.5c0 55.333 -13.333 96.833 -40 124.5s-66.667 41.5 -120 41.5zM194 313.002c-0.666992 -6 -0.999023 -12.165 -0.999023 -18.498v-28.5c0 -52.667 13.167 -92 39.5 -118s66.166 -39 119.499 -39c74.667 0 133 32.5 175 97.5s86 207.167 132 426.5
c-37.333 -41.333 -77.333 -71.5 -120 -90.5s-92.667 -28.5 -150 -28.5c-86 0 -151.833 26.333 -197.5 79s-68.5 128.667 -68.5 228c0 102 13.667 199.667 41 293s62.666 165.666 105.999 216.999c36 42 78.667 72.667 128 92s110 29 182 29c115.333 0 200.5 -26 255.5 -78
s82.5 -132.333 82.5 -241c0 -38.667 -3.33301 -84.167 -10 -136.5s-16.334 -110.166 -29.001 -173.499c-22 -110 -44 -210.167 -66 -300.5s-41 -158.166 -57 -203.499c-45.333 -128.667 -98.666 -217.834 -159.999 -267.501s-147.333 -74.5 -258 -74.5
c-103.333 0 -181.666 22.667 -234.999 68s-80 111.666 -80 198.999c0 11.333 0.5 22.666 1.5 33.999s2.5 23 4.5 35h165z" />
    <glyph glyph-name="colon" unicode=":" horiz-adv-x="518" 
d="M8 0l43 205h195l-43 -205h-195zM184 823l45 205h193l-43 -205h-195z" />
    <glyph glyph-name="semicolon" unicode=";" horiz-adv-x="518" 
d="M184 823l45 205h193l-43 -205h-195zM-139 -254l198 457h213l-274 -457h-137z" />
    <glyph glyph-name="less" unicode="&#x3c;" horiz-adv-x="1706" 
d="M1442 1018l-1000 -408l1000 -405v-129l-1178 483v103l1178 483v-127z" />
    <glyph glyph-name="equal" unicode="=" horiz-adv-x="1706" 
d="M1452 477v-117h-1198v117h1198zM1452 860v-117h-1198v117h1198z" />
    <glyph glyph-name="greater" unicode="&#x3e;" horiz-adv-x="1706" 
d="M1442 662v-103l-1178 -483v129l1000 405l-1000 408v127z" />
    <glyph glyph-name="question" unicode="?" horiz-adv-x="807" 
d="M221 373l46.999 225c8.66699 39.333 17.5 69.5 26.5 90.5s20.167 39.833 33.5 56.5c9.33301 12.667 33.666 35.334 72.999 68.001s71 60.667 95 84c46.667 46 81.5 96.833 104.5 152.5s34.5 118.167 34.5 187.5c0 42 -10.5 73.667 -31.5 95s-52.167 32 -93.5 32
c-52 0 -93.167 -18.333 -123.5 -55s-56.166 -101 -77.499 -193h-182c26.667 135.333 71.834 233.333 135.501 294s152.167 91 265.5 91c99.333 0 173.666 -22.667 222.999 -68s74 -113.333 74 -204c0 -75.333 -12.167 -147.5 -36.5 -216.5s-57.166 -124.5 -98.499 -166.5
c-33.333 -34 -78 -73 -134 -117l-39 -32l-14 -11c-42 -32.667 -68.333 -74.334 -79 -125.001l-39 -188h-164zM132.999 0l41 195h184l-41 -195h-184z" />
    <glyph glyph-name="at" unicode="@" horiz-adv-x="2048" 
d="M1292 844l57.998 121h110l-141 -568c-4 -16 -7 -30.667 -9 -44s-3 -25.333 -3 -36c0 -29.333 9.16699 -51.666 27.5 -66.999s45.833 -23 82.5 -23c30 0 63.333 8 100 24s71 37.333 103 64c59.333 50.667 105.833 116.167 139.5 196.5s50.5 165.166 50.5 254.499
c0 177.333 -65.167 320 -195.5 428s-303.166 162 -518.499 162c-112 0 -216.167 -17.333 -312.5 -52s-182.833 -85.667 -259.5 -153c-93.333 -81.333 -163.666 -175.5 -210.999 -282.5s-71 -225.167 -71 -354.5c0 -115.333 20.167 -216.666 60.5 -303.999
s102.5 -164 186.5 -230c67.333 -54 147.333 -95.5 240 -124.5s191 -43.5 295 -43.5c114.667 0 226.167 16.167 334.5 48.5s207.166 78.833 296.499 139.5l45 -66c-98 -72.667 -202.333 -127.667 -313 -165s-226.334 -56 -347.001 -56c-127.333 0 -243.333 15.5 -348 46.5
s-196.667 77.167 -276 138.5c-102 78 -178 168.667 -228 272s-75 220.666 -75 351.999c0 108.667 16.833 211.667 50.5 309s83.5 187 149.5 269c97.333 117.333 213.833 206.333 349.5 267s286.834 91 453.501 91c110 0 213.667 -14.5 311 -43.5s180 -70.5 248 -124.5
c86 -66 151.167 -142.667 195.5 -230s66.5 -181.333 66.5 -282c0 -112.667 -20.833 -215.5 -62.5 -308.5s-102.5 -171.833 -182.5 -236.5c-46 -36.667 -95.5 -64.5 -148.5 -83.5s-107.5 -28.5 -163.5 -28.5c-66 0 -115.5 13 -148.5 39s-49.5 64.667 -49.5 116
c0 2 0.333008 5.66699 1 11s1 9.33301 1 12c-34 -58 -76.333 -102.167 -127 -132.5s-107.334 -45.5 -170.001 -45.5c-102 0 -179.833 28.333 -233.5 85s-80.5 139 -80.5 247c0 153.333 45.667 283 137 389s202 159 332 159c60.667 0 111.834 -13.167 153.501 -39.5
s73.834 -65.5 96.501 -117.5zM1202 473l59.999 242.001c-11.333 60 -35.333 106.667 -72 140s-81.667 50 -135 50c-97.333 0 -178.666 -43.833 -243.999 -131.5s-98 -196.834 -98 -327.501c0 -73.333 17 -129.833 51 -169.5s82.333 -59.5 145 -59.5
c68 0 129.167 23.5 183.5 70.5s90.833 108.833 109.5 185.5z" />
    <glyph glyph-name="A" unicode="A" horiz-adv-x="1141" 
d="M299 510h463l-39 590c0 2.66699 -0.333008 7 -1 13c-6 74.667 -9 138 -9 190v30zM-156 0l762 1475h264l119 -1475h-194l-23 348h-555l-174 -348h-199z" />
    <glyph glyph-name="B" unicode="B" horiz-adv-x="1085" 
d="M350 842h142c130 0 222.5 23.167 277.5 69.5s82.5 123.5 82.5 231.5c0 64 -16.333 108.667 -49 134s-92 38 -178 38h-174zM207 164h166c137.333 0 234.5 24.5 291.5 73.5s85.5 131.5 85.5 247.5c0 75.333 -20 128 -60 158s-113 45 -219 45h-154zM-20 0l313 1475h369
c127.333 0 222.166 -26.167 284.499 -78.5s93.5 -131.5 93.5 -237.5c0 -114.667 -26.5 -206.334 -79.5 -275.001s-128.167 -108.667 -225.5 -120c68 -13.333 119.5 -43.333 154.5 -90s52.5 -109 52.5 -187c0 -76.667 -11.667 -146.667 -35 -210
s-57.333 -116.666 -102 -159.999c-43.333 -42 -97.666 -72 -162.999 -90s-159.333 -27 -282 -27h-380z" />
    <glyph glyph-name="C" unicode="C" horiz-adv-x="1096" 
d="M942 442c-27.333 -155.333 -81.667 -272.002 -163 -350.002s-189.333 -117 -324 -117c-127.333 0 -224.5 33.833 -291.5 101.5s-100.5 165.834 -100.5 294.501c0 47.333 5.66699 109.5 17 186.5s27.666 164.833 48.999 263.5c24 111.333 46.333 202 67 272
s41.334 123.333 62.001 160c44.667 83.333 102.334 145.166 173.001 185.499s157 60.5 259 60.5c117.333 0 208.833 -30.5 274.5 -91.5s98.5 -145.833 98.5 -254.5c0 -17.333 -0.666992 -33.666 -2 -48.999s-3.33301 -31 -6 -47h-195c2.66699 14 4.66699 27.833 6 41.5
s2 27.834 2 42.501c0 62 -16.5 109.5 -49.5 142.5s-80.5 49.5 -142.5 49.5c-64 0 -116.167 -14 -156.5 -42s-74.833 -74.667 -103.5 -140c-13.333 -28 -27 -67 -41 -117s-27.667 -108.667 -41 -176c-28.667 -140 -48.834 -247 -60.501 -321s-17.5 -128 -17.5 -162
c0 -76 18.167 -134.333 54.5 -175s88.5 -61 156.5 -61c74 0 134.333 25.5 181 76.5s79 126.5 97 226.5h197z" />
    <glyph glyph-name="D" unicode="D" horiz-adv-x="1171" 
d="M209 162l162 0.00292969c121.333 0 205.333 12.667 252 38s87.334 73.333 122.001 144c17.333 35.333 34.666 83.333 51.999 144s34.333 133 51 217c16 83.333 28.167 158.166 36.5 224.499s12.5 121.166 12.5 164.499c0 83.333 -17.167 140.666 -51.5 171.999
s-98.5 47 -192.5 47h-200zM-20 0.00292969l312.999 1475h373c153.333 0 264.333 -29.5 333 -88.5s103 -153.833 103 -284.5c0 -42.667 -3.83301 -94.167 -11.5 -154.5s-18.834 -129.833 -33.501 -208.5c-19.333 -104 -40.666 -196.333 -63.999 -277
s-47.666 -146 -72.999 -196c-52.667 -100 -116.5 -169.333 -191.5 -208s-191.5 -58 -349.5 -58h-399z" />
    <glyph glyph-name="E" unicode="E" horiz-adv-x="967" 
d="M-20 0l313 1475h731l-35 -162h-536l-99 -465h510l-35 -162h-510l-110 -522h551l-35 -164h-745z" />
    <glyph glyph-name="F" unicode="F" horiz-adv-x="905" 
d="M-18 0l313 1475h690l-37 -166h-493l-101 -465h469l-35 -166h-469l-143 -678h-194z" />
    <glyph glyph-name="G" unicode="G" horiz-adv-x="1159" 
d="M895 33c-70 -19.333 -139.167 -33.835 -207.5 -43.502s-135.166 -14.5 -200.499 -14.5c-142.667 0 -249 33.167 -319 99.5s-105 167.166 -105 302.499c0 47.333 5.33301 106.5 16 177.5s26.667 153.167 48 246.5c26 117.333 49.5 211 70.5 281s40.5 121.667 58.5 155
c48 88 110.167 153.667 186.5 197s167.833 65 274.5 65c126 0 224.333 -33 295 -99s106 -158 106 -276c0 -13.333 -0.5 -27.166 -1.5 -41.499s-2.5 -28.166 -4.5 -41.499l-196 -1c2 14 3.5 27.5 4.5 40.5s1.5 25.5 1.5 37.5c0 70.667 -18.167 124.167 -54.5 160.5
s-89.833 54.5 -160.5 54.5c-65.333 0 -120.166 -12.667 -164.499 -38s-81.833 -65.666 -112.5 -120.999c-14 -27.333 -28.833 -67.833 -44.5 -121.5s-34.834 -132.167 -57.501 -235.5c-28 -129.333 -47 -224.833 -57 -286.5s-15 -110.167 -15 -145.5
c0 -88.667 19.667 -151.5 59 -188.5s107 -55.5 203 -55.5c29.333 0 60.666 3 93.999 9s70.333 15.333 111 28l88 410h-266l35 168h460l-118 -568c-7.33301 -32.667 -13 -61 -17 -85s-7.33301 -47.333 -10 -70z" />
    <glyph glyph-name="H" unicode="H" horiz-adv-x="1180" 
d="M-20 0l313 1475h196l-129 -613h508l129 613h203l-313 -1475h-203l147 696h-507l-148 -696h-196z" />
    <glyph glyph-name="I" unicode="I" horiz-adv-x="496" 
d="M-6 0l313 1475h195l-314 -1475h-194z" />
    <glyph glyph-name="J" unicode="J" horiz-adv-x="963" 
d="M163 459c-4 -28 -7.16602 -53.832 -9.49902 -77.499s-3.5 -44.5 -3.5 -62.5c0 -53.333 15 -94.5 45 -123.5s73 -43.5 129 -43.5c63.333 0 112 20.5 146 61.5s64.333 124.167 91 249.5l213 1012h195l-213 -1006c-40.667 -192 -92.834 -320.833 -156.501 -386.5
s-158.5 -98.5 -284.5 -98.5c-115.333 0 -204.5 28 -267.5 84s-94.5 135 -94.5 237c0 22 1.5 45.667 4.5 71s7.5 52.666 13.5 81.999z" />
    <glyph glyph-name="K" unicode="K" horiz-adv-x="1053" 
d="M-6 0l313 1475h193l-138 -650l578 650h260l-645 -674l371 -801h-217l-351 807l-172 -807h-192z" />
    <glyph glyph-name="L" unicode="L" horiz-adv-x="834" 
d="M-6 0l313 1475h193l-277 -1309h502l-35 -166h-696z" />
    <glyph glyph-name="M" unicode="M" horiz-adv-x="1683" 
d="M-12 0l313 1475h324l82 -877c4.66699 -49.333 8.16699 -99 10.5 -149s3.5 -100.667 3.5 -152c0 -20.667 -0.333008 -43.334 -1 -68.001s-1.66699 -58.667 -3 -102h12c14.667 59.333 30.5 113.5 47.5 162.5s34.5 91.833 52.5 128.5l535 1057h330l-314 -1475h-182l227 1063
l35.5 149l42.5 168h-16l-690 -1380h-205l-100 1085c-4 36 -9.33301 131.333 -16 286l-1 15h-10l-295 -1386h-182z" />
    <glyph glyph-name="N" unicode="N" horiz-adv-x="1298" 
d="M-12 0l312.999 1475h311l195 -1106c1.33301 -8 4.83301 -42.333 10.5 -103s10.167 -111 13.5 -151h13c12.667 72 30.334 159 53.001 261l2 11l229 1088h183l-314 -1475h-307l-196 1105c-6.66699 34.667 -12 73.667 -16 117s-7 91.333 -9 144h-14
c-16 -84.667 -44.667 -226.667 -86 -426l-4 -22l-195 -918h-182z" />
    <glyph glyph-name="O" unicode="O" horiz-adv-x="1180" 
d="M55 369c0 46.667 6.66699 110.666 20 191.999s32.666 177.666 57.999 288.999c22 94.667 44.333 176.834 67 246.501s42.667 119.167 60 148.5c50 87.333 112.167 151.5 186.5 192.5s165.166 61.5 272.499 61.5c132 0 232.5 -33.167 301.5 -99.5
s103.5 -163.5 103.5 -291.5c0 -46 -6.33301 -109 -19 -189s-33 -182.333 -61 -307c-19.333 -88 -39.666 -164.167 -60.999 -228.5s-42.333 -115.166 -63 -152.499c-50 -86.667 -112.667 -151 -188 -193s-165.666 -63 -270.999 -63c-132 0 -232.667 33.667 -302 101
s-104 165 -104 293zM705 1333c-64 0 -117.501 -12.165 -160.501 -36.498s-80.5 -63.833 -112.5 -118.5c-12.667 -23.333 -27.667 -61.833 -45 -115.5s-33.666 -114.167 -48.999 -181.5c-32.667 -144.667 -55.834 -255.834 -69.501 -333.501s-20.5 -133.834 -20.5 -168.501
c0 -78.667 18.833 -138 56.5 -178s93.834 -60 168.501 -60c63.333 0 117 12.667 161 38s82 65.333 114 120c16 29.333 31.667 68.5 47 117.5s31 108.833 47 179.5c36 160.667 60 275 72 343s18 119.667 18 155c0 80.667 -18.667 140.667 -56 180s-94.333 59 -171 59z" />
    <glyph glyph-name="P" unicode="P" horiz-adv-x="1071" 
d="M342 797h174c125.333 0 214 26.333 266 79s78 141 78 265c0 63.333 -17.5 107.833 -52.5 133.5s-98.167 38.5 -189.5 38.5h-167zM-12 0l312.999 1475h303c174.667 0 293.834 -23.167 357.501 -69.5s95.5 -127.833 95.5 -244.5c0 -76 -9.5 -146.167 -28.5 -210.5
s-46.5 -119.833 -82.5 -166.5c-40.667 -52.667 -96.667 -90.334 -168 -113.001s-174.333 -34 -309 -34h-162l-135 -637h-184z" />
    <glyph glyph-name="Q" unicode="Q" horiz-adv-x="1180" 
d="M700 1331c-63.333 0 -115.996 -12.168 -157.996 -36.501s-79.333 -63.833 -112 -118.5c-14.667 -25.333 -30.334 -64 -47.001 -116s-32.334 -111 -47.001 -177c-32.667 -145.333 -55.834 -256.666 -69.501 -333.999s-20.5 -134 -20.5 -170
c0 -79.333 18.667 -138.5 56 -177.5s93.666 -58.5 168.999 -58.5c63.333 0 116.833 12.5 160.5 37.5s80.834 64.5 111.501 118.5c16 28 31.833 66.333 47.5 115s31.5 108.667 47.5 180c36 164 60 279.5 72 346.5s18 118.167 18 153.5c0 80 -18.833 139.5 -56.5 178.5
s-94.834 58.5 -171.501 58.5zM1016 -0.000976562h-185.003c-67.333 0 -144.166 -3.83301 -230.499 -11.5s-139.166 -11.5 -158.499 -11.5c-124 0 -219.833 34.167 -287.5 102.5s-101.5 165.5 -101.5 291.5c0 48 6.16699 109.833 18.5 185.5s31.5 170.167 57.5 283.5
c22 98 43.833 180.667 65.5 248s42.834 119 63.501 155c49.333 86.667 111.333 150.667 186 192s165 62 271 62c132 0 232.5 -33.333 301.5 -100s103.5 -163.667 103.5 -291c0 -27.333 -2.5 -61.833 -7.5 -103.5s-13.5 -96.5 -25.5 -164.5c-14 -80 -28.333 -153 -43 -219
s-27.334 -116.667 -38.001 -152c-28.667 -90 -58.167 -160.333 -88.5 -211s-67.166 -93 -110.499 -127c32 8 60.333 13.833 85 17.5s46.667 5.5 66 5.5h91z" />
    <glyph glyph-name="R" unicode="R" horiz-adv-x="1081" 
d="M-25 0l313.998 1475h342c151.333 0 257.666 -21.333 318.999 -64s92 -114.334 92 -215.001c0 -138 -29 -243.833 -87 -317.5s-145 -114.5 -261 -122.5c70.667 -14.667 122.167 -40.334 154.5 -77.001s48.5 -88.334 48.5 -155.001c0 -17.333 -1 -35.666 -3 -54.999
s-5 -38.333 -9 -57l-47 -246c-3.33301 -12 -5.66602 -26.167 -6.99902 -42.5s-2 -35.5 -2 -57.5c0 -18 0.166992 -31.5 0.5 -40.5s0.833008 -17.5 1.5 -25.5h-210c0.666992 30 2.83398 60.667 6.50098 92s8.83398 63.333 15.501 96l43 199c4 20.667 7 40.834 9 60.501
s3 39.167 3 58.5c0 56.667 -16.667 98.834 -50 126.501s-84 41.5 -152 41.5h-183l-143 -674h-195zM605.998 1313h-157l-103 -488h158c63.333 0 112.5 3.66699 147.5 11s63.5 19.333 85.5 36c33.333 24.667 59.5 63.667 78.5 117s28.5 115 28.5 185
c0 51.333 -16.333 87.333 -49 108s-95.667 31 -189 31z" />
    <glyph glyph-name="S" unicode="S" horiz-adv-x="1071" 
d="M25 430h201.998c-4 -16 -7 -31.833 -9 -47.5s-3 -30.5 -3 -44.5c0 -61.333 18.833 -109.166 56.5 -143.499s89.834 -51.5 156.501 -51.5c76.667 0 138.834 23.5 186.501 70.5s71.5 107.5 71.5 181.5c0 44 -10.5 84.667 -31.5 122s-65.167 87 -132.5 149l-61 54
c-165.333 148 -248 273.333 -248 376c0 122 38.5 219.333 115.5 292s180.5 109 310.5 109c126.667 0 223.834 -28 291.501 -84s101.5 -135.667 101.5 -239c0 -16.667 -0.666992 -32.667 -2 -48s-3.33301 -30.333 -6 -45h-195c2.66699 18 4.83398 35.5 6.50098 52.5
s2.5 32.5 2.5 46.5c0 54 -16.333 95.5 -49 124.5s-79.334 43.5 -140.001 43.5c-71.333 0 -129.333 -20.833 -174 -62.5s-67 -94.834 -67 -159.501c0 -72 64 -163.667 192 -275l26 -23c111.333 -98 182.666 -174 213.999 -228s47 -113.333 47 -178
c0 -134.667 -40.667 -242.5 -122 -323.5s-190.333 -121.5 -327 -121.5c-132.667 0 -237.5 30.333 -314.5 91s-115.5 143 -115.5 247c0 12.667 1.33301 28 4 46s7 41 13 69z" />
    <glyph glyph-name="T" unicode="T" horiz-adv-x="948" 
d="M223 0l277 1305h-361l37 170h905l-37 -170h-352l-276 -1305h-193z" />
    <glyph glyph-name="U" unicode="U" horiz-adv-x="1180" 
d="M283 1475l193.999 0.000976562l-215 -1019c-6 -30 -10.167 -53.667 -12.5 -71s-3.5 -32.333 -3.5 -45c0 -65.333 20.5 -115.833 61.5 -151.5s98.833 -53.5 173.5 -53.5c86.667 0 155.667 26.667 207 80s89 136.666 113 249.999l213 1010h194l-215 -1008
c-38 -177.333 -98.167 -304 -180.5 -380s-200.166 -114 -353.499 -114c-123.333 0 -222.5 31.667 -297.5 95s-112.5 146.333 -112.5 249c0 19.333 1.66699 41.5 5 66.5s8 51.5 14 79.5z" />
    <glyph glyph-name="V" unicode="V" horiz-adv-x="1055" 
d="M221 0l-65 1475h190l35 -1037c1.33301 -39.333 2.33301 -72.666 3 -99.999s1 -54 1 -80c0 -24 -0.166992 -42.5 -0.5 -55.5s-0.833008 -25.167 -1.5 -36.5c10.667 32.667 23.5 67.5 38.5 104.5s33.5 78.5 55.5 124.5l512 1080h201l-711 -1475h-258z" />
    <glyph glyph-name="W" unicode="W" horiz-adv-x="1731" 
d="M213 0l-63.0029 1475h188l27 -970c0.666992 -10 1.16699 -21 1.5 -33s0.5 -30.667 0.5 -56c0 -43.333 -1.16699 -88 -3.5 -134s-5.5 -93 -9.5 -141c20.667 74.667 43.834 149 69.501 223s53.834 147.333 84.501 220l373 891h239l35 -916
c0.666992 -16 1.33398 -37.333 2.00098 -64c1.33301 -53.333 2 -88.666 2 -105.999c0 -35.333 -3 -99 -9 -191l-3 -52c22.667 78.667 47.667 157.334 75 236.001s57 157.334 89 236.001l346 857h201l-627 -1475h-234l-36 1069c0 8.66699 -0.5 21.667 -1.5 39
s-1.5 30.333 -1.5 39c0 26.667 1 55.167 3 85.5s4.66699 62.5 8 96.5c-28.667 -97.333 -58 -188.666 -88 -273.999s-59.333 -162 -88 -230l-363 -825h-217z" />
    <glyph glyph-name="X" unicode="X" horiz-adv-x="1012" 
d="M-176 0l575.001 785.999l-245 689h208l132 -406c5.33301 -18 11.166 -40.167 17.499 -66.5s13.166 -58.833 20.499 -97.5c26.667 50.667 79.667 133 159 247l6 8l223 315h221l-523 -715l265 -760h-207l-123 371c-12.667 38 -24.667 77.833 -36 119.5
s-22.666 86.5 -33.999 134.5c-22 -39.333 -44 -75.666 -66 -108.999s-44.333 -65.333 -67 -96l-307 -420h-219z" />
    <glyph glyph-name="Y" unicode="Y" horiz-adv-x="958" 
d="M219 0l125 584l-233 891h196l170 -676l453 676h213l-604 -889l-125 -586h-195z" />
    <glyph glyph-name="Z" unicode="Z" horiz-adv-x="958" 
d="M-121 0l39 180l879 1127h-609l37 168h836l-35 -162l-891 -1141h664l-37 -172h-883z" />
    <glyph glyph-name="bracketleft" unicode="[" horiz-adv-x="592" 
d="M-39 -328l383 1803h356l-22 -109h-201l-338 -1585h201l-23 -109h-356z" />
    <glyph glyph-name="backslash" unicode="\" horiz-adv-x="569" 
d="M473 -190l-450 1687h122l451 -1687h-123z" />
    <glyph glyph-name="bracketright" unicode="]" horiz-adv-x="592" 
d="M582 1475l-383 -1803h-357l23 109h201l337 1585h-202l24 109h357z" />
    <glyph glyph-name="asciicircum" unicode="^" horiz-adv-x="2048" 
d="M1104 1458l520 -557h-158l-442 438l-442 -438h-160l520 557h162z" />
    <glyph glyph-name="underscore" unicode="_" horiz-adv-x="1024" 
d="M1024 -365v-118h-1024v118h1024z" />
    <glyph glyph-name="grave" unicode="`" horiz-adv-x="1024" 
d="M756 1163h-109l-301 348h199z" />
    <glyph glyph-name="a" unicode="a" horiz-adv-x="944" 
d="M545 160c-39.333 -57.333 -83.168 -99.999 -131.501 -127.999s-102.833 -42 -163.5 -42c-83.333 0 -148.833 24.333 -196.5 73s-71.5 115 -71.5 199c0 136.667 43.833 237 131.5 301s225.167 96 412.5 96c22 0 57 -1 105 -3l6 -1c6 30.667 10.167 56.5 12.5 77.5
s3.5 40.5 3.5 58.5c0 42.667 -14.167 75.167 -42.5 97.5s-70.166 33.5 -125.499 33.5s-98.833 -13.667 -130.5 -41s-51.5 -68.333 -59.5 -123h-189c20.667 101.333 61 175.833 121 223.5s144.667 71.5 254 71.5c118 0 205.5 -21.667 262.5 -65s85.5 -109 85.5 -197
c0 -24 -2 -51.333 -6 -82s-10 -65.667 -18 -105l-84 -395c-8 -35.333 -14.333 -70.333 -19 -105s-8 -69.334 -10 -104.001h-174zM611.998 532.001l-43 -0.000976562c-141.333 0 -245.166 -20.333 -311.499 -61s-99.5 -104 -99.5 -190c0 -46 12.833 -82.167 38.5 -108.5
s61.167 -39.5 106.5 -39.5c81.333 0 148.166 33.833 200.499 101.5s88.5 166.834 108.5 297.501z" />
    <glyph glyph-name="b" unicode="b" horiz-adv-x="967" 
d="M520 915c-40 0 -76.332 -11.501 -108.999 -34.501s-61 -57.167 -85 -102.5c-10.667 -20 -22.5 -51.167 -35.5 -93.5s-25.167 -89.5 -36.5 -141.5c-10 -44 -17.667 -85.167 -23 -123.5s-8 -71.833 -8 -100.5c0 -64.667 14.333 -113.5 43 -146.5s71 -49.5 127 -49.5
c50 0 89.5 11.333 118.5 34s53.167 61 72.5 115c28 79.333 50.333 162.833 67 250.5s25 164.834 25 231.501c0 54.667 -12.833 95.167 -38.5 121.5s-64.834 39.5 -117.501 39.5zM121.001 -0.000976562l-162.001 -0.00292969l313 1475h179l-121 -566
c36 48.667 76.167 84.5 120.5 107.5s95.5 34.5 153.5 34.5c81.333 0 144 -25.833 188 -77.5s66 -124.834 66 -219.501c0 -35.333 -2.66699 -75.666 -8 -120.999s-13.666 -94.666 -24.999 -147.999c-16 -77.333 -33.833 -145.166 -53.5 -203.499
s-39.167 -103.166 -58.5 -134.499c-35.333 -55.333 -76.333 -96 -123 -122s-102 -39 -166 -39s-116.333 13.833 -157 41.5s-75 73.167 -103 136.5z" />
    <glyph glyph-name="c" unicode="c" horiz-adv-x="891" 
d="M739 336c-17.333 -122.667 -59.668 -213.497 -127.001 -272.497s-162 -88.5 -284 -88.5c-96 0 -171.333 28.833 -226 86.5s-82 136.834 -82 237.501c0 30 3.16699 67.5 9.5 112.5s15.5 95.5 27.5 151.5c15.333 69.333 30.5 128.5 45.5 177.5s29.833 86.833 44.5 113.5
c36.667 67.333 83.834 117.333 141.501 150s127.5 49 209.5 49c101.333 0 178.166 -24.667 230.499 -74s78.5 -121 78.5 -215c0 -7.33301 -0.333008 -15.833 -1 -25.5l-3 -41.5l-176 -1v5c2.66699 24 4 41.667 4 53c0 52.667 -12.167 92 -36.5 118s-60.833 39 -109.5 39
c-39.333 0 -73.333 -9.83301 -102 -29.5s-53.334 -50.834 -74.001 -93.501c-11.333 -22.667 -23.166 -54.5 -35.499 -95.5s-24.833 -90.833 -37.5 -149.5c-13.333 -56.667 -23.166 -106.834 -29.499 -150.501s-9.5 -78.834 -9.5 -105.501
c0 -56.667 13.333 -98.834 40 -126.501s67 -41.5 121 -41.5c56.667 0 101.5 17.833 134.5 53.5s55.167 90.167 66.5 163.5h180z" />
    <glyph glyph-name="d" unicode="d" horiz-adv-x="967" 
d="M477 909c-48 0 -86.5 -12.501 -115.5 -37.501s-54.5 -69.167 -76.5 -132.5c-27.333 -79.333 -48.833 -160.833 -64.5 -244.5s-23.5 -155.5 -23.5 -215.5c0 -56.667 12.833 -98.5 38.5 -125.5s65.167 -40.5 118.5 -40.5c39.333 0 75.5 11.667 108.5 35
s61.833 57.333 86.5 102c10 18 20.667 45.833 32 83.5s25.333 91.834 42 162.501c8.66699 39.333 15.167 76.833 19.5 112.5s6.5 69.167 6.5 100.5c0 64 -14.833 113.333 -44.5 148s-72.167 52 -127.5 52zM537 -0.000976562l21.999 136.999
c-39.333 -54.667 -82.333 -94.5 -129 -119.5s-100.667 -37.5 -162 -37.5c-80.667 0 -142.834 25.333 -186.501 76s-65.5 123.334 -65.5 218.001c0 35.333 2.83301 75.666 8.5 120.999s13.834 94.666 24.501 147.999c16.667 80 34.5 148.833 53.5 206.5
s38.167 101.5 57.5 131.5c34.667 55.333 75.667 96 123 122s103.333 39 168 39c62 0 113.167 -13 153.5 -39s73.833 -68 100.5 -126l126 598h179l-281 -1311c-4 -21.333 -8.16699 -45.666 -12.5 -72.999s-8.16602 -57.666 -11.499 -90.999h-168z" />
    <glyph glyph-name="e" unicode="e" horiz-adv-x="952" 
d="M772 330c-25.333 -122 -71.501 -211.664 -138.501 -268.997s-158.833 -86 -275.5 -86c-106.667 0 -190.334 28.5 -251.001 85.5s-91 135.833 -91 236.5c0 31.333 3.16699 69.166 9.5 113.499s15.5 95.166 27.5 152.499c14 64.667 28.833 121.667 44.5 171
s31.5 88.666 47.5 117.999c39.333 70 87.333 121 144 153s127.667 48 213 48c111.333 0 196.166 -28.5 254.499 -85.5s87.5 -139.833 87.5 -248.5c0 -25.333 -2.66699 -57.166 -8 -95.499s-13.666 -85.833 -24.999 -142.5h-594c-7.33301 -35.333 -12.833 -68.5 -16.5 -99.5
s-5.5 -60.5 -5.5 -88.5c0 -58.667 15.833 -102.334 47.5 -131.001s79.834 -43 144.501 -43c50.667 0 92.334 17.167 125.001 51.5s58 87.5 76 159.5h184zM245.999 608.003h409c4 24 6.83301 44.833 8.5 62.5s2.5 33.167 2.5 46.5c0 64.667 -14 113.167 -42 145.5
s-70 48.5 -126 48.5c-68 0 -121 -22.5 -159 -67.5s-69 -123.5 -93 -235.5z" />
    <glyph glyph-name="f" unicode="f" horiz-adv-x="510" 
d="M-16 0l192 909h-164l27 119h162l30 143c27.333 130 63.333 217.167 108 261.5s114.667 66.5 210 66.5c16.667 0 32.5 -1.33301 47.5 -4s30.5 -6.66699 46.5 -12l-27 -133c-12 2 -23.167 3.5 -33.5 4.5s-19.5 1.5 -27.5 1.5c-39.333 0 -69.833 -13 -91.5 -39
s-39.5 -73.667 -53.5 -143l-31 -146h170l-25 -119h-170l-194 -909h-176z" />
    <glyph glyph-name="g" unicode="g" horiz-adv-x="954" 
d="M475 922c-42.667 0 -78 -11.168 -106 -33.501s-52 -58.5 -72 -108.5c-7.33301 -17.333 -16.5 -45.5 -27.5 -84.5s-22.167 -83.833 -33.5 -134.5c-12 -54.667 -21.167 -104.667 -27.5 -150s-9.5 -82.666 -9.5 -111.999c0 -50.667 12 -89 36 -115s59.667 -39 107 -39
c43.333 0 80.666 9.5 111.999 28.5s59 48.5 83 88.5c12.667 20.667 25.667 52.5 39 95.5s28.333 100.167 45 171.5c7.33301 34 12.833 66.333 16.5 97s5.5 59.667 5.5 87c0 68.667 -14.167 120.667 -42.5 156s-70.166 53 -125.499 53zM110 -90.001l-4.00293 -25.999
c-1.33301 -8.66699 -2 -16.334 -2 -23.001c0 -40.667 12.667 -71 38 -91s63.333 -30 114 -30c70.667 0 124.334 17.167 161.001 51.5s64.334 95.5 83.001 183.5l32 156c-36.667 -36 -75.167 -62.333 -115.5 -79s-85.5 -25 -135.5 -25c-82.667 0 -146.334 24.667 -191.001 74
s-67 119.333 -67 210c0 20 1 41.667 3 65s5 48.333 9 75c14 92 30 172.333 48 241s37.333 123.334 58 164.001c33.333 66 74.833 115 124.5 147s108.5 48 176.5 48c64.667 0 116.834 -13.5 156.501 -40.5s70.834 -70.167 93.501 -129.5l37 147h178l-24 -98
c-12 -48 -19 -77 -21 -87l-180 -851c-32.667 -154 -79.167 -258 -139.5 -312s-154.5 -81 -282.5 -81c-108.667 0 -190.5 20.667 -245.5 62s-82.5 103 -82.5 185c0 17.333 0.333008 30.166 1 38.499s2 16.833 4 25.5h173z" />
    <glyph glyph-name="h" unicode="h" horiz-adv-x="950" 
d="M-35 0l314.002 1475h176l-121 -572c36.667 49.333 79.667 86.333 129 111s105.333 37 168 37c68 0 120.833 -20.5 158.5 -61.5s56.5 -99.167 56.5 -174.5c0 -16.667 -1.5 -36.834 -4.5 -60.501s-7.83301 -51.5 -14.5 -83.5l-143 -671h-176l147 688
c4.66699 20.667 8 39.167 10 55.5s3 30.5 3 42.5c0 42.667 -9.83301 74.5 -29.5 95.5s-48.834 31.5 -87.501 31.5c-77.333 0 -139.333 -31.833 -186 -95.5s-86.334 -173.834 -119.001 -330.501l-105 -487h-176z" />
    <glyph glyph-name="i" unicode="i" horiz-adv-x="426" 
d="M-29 0l219 1028h177l-220 -1028h-176zM242 1294l39 181h188l-37 -181h-190z" />
    <glyph glyph-name="j" unicode="j" horiz-adv-x="436" 
d="M250 1294l39 181h188l-37 -181h-190zM-197 -236c4 0 9.33301 -0.333008 16 -1s11.667 -1 15 -1c38.667 0 66.5 8.66699 83.5 26s32.167 57.333 45.5 120l238 1120h176l-244 -1149c-22 -103.333 -52.333 -171.833 -91 -205.5s-101.667 -50.5 -189 -50.5h-82z" />
    <glyph glyph-name="k" unicode="k" horiz-adv-x="856" 
d="M-37 0l313 1475h179l-183 -857l406 410h223l-459 -440l275 -588h-203l-248 590l-125 -590h-178z" />
    <glyph glyph-name="l" unicode="l" horiz-adv-x="426" 
d="M-31 0l314 1475h178l-314 -1475h-178z" />
    <glyph glyph-name="m" unicode="m" horiz-adv-x="1407" 
d="M-39 0l167.999 793.001c6 26.667 12 57 18 91s13.667 82 23 144h166l-29 -151c36.667 56.667 79.167 99.834 127.5 129.501s100.833 44.5 157.5 44.5c60.667 0 108.667 -16.833 144 -50.5s55.666 -81.834 60.999 -144.501c38.667 66 83 115 133 147s107.333 48 172 48
c62 0 111.333 -21.167 148 -63.5s55 -99.833 55 -172.5c0 -16.667 -1.66699 -36.167 -5 -58.5s-8.66602 -50.5 -15.999 -84.5l-141 -672h-178l145 688c4.66699 23.333 8.16699 43.5 10.5 60.5s3.5 29.5 3.5 37.5c0 42.667 -8.66699 74.5 -26 95.5s-43.333 31.5 -78 31.5
c-68 0 -122.333 -30 -163 -90s-78.667 -172 -114 -336l-104 -487h-172l147 688c4.66699 19.333 8 37.166 10 53.499s3 31.166 3 44.499c0 41.333 -9.33301 72.833 -28 94.5s-45.667 32.5 -81 32.5c-67.333 0 -121.166 -29.167 -161.499 -87.5
s-78.5 -171.166 -114.5 -338.499l-105 -487h-176z" />
    <glyph glyph-name="n" unicode="n" horiz-adv-x="946" 
d="M-39 0l167.999 792.999c6 26.667 12 57 18 91s13.667 82 23 144h166l-29 -151c40 58 86.333 101.5 139 130.5s112.334 43.5 179.001 43.5c68.667 0 122 -20.667 160 -62s57 -99.333 57 -174c0 -14.667 -1.5 -32.667 -4.5 -54s-8.5 -51 -16.5 -89l-141 -672h-176l145 688
c6 28.667 10 49.834 12 63.501s3 25.167 3 34.5c0 42 -10.167 73.667 -30.5 95s-49.833 32 -88.5 32c-76.667 0 -138 -31.5 -184 -94.5s-85.667 -173.5 -119 -331.5l-105 -487h-176z" />
    <glyph glyph-name="o" unicode="o" horiz-adv-x="952" 
d="M16 295c0 32.667 3.33301 72.3311 10 118.998s16.334 99 29.001 157c14.667 65.333 29.667 122.333 45 171s30.333 85.334 45 110.001c39.333 68.667 87.5 119.334 144.5 152.001s126.5 49 208.5 49c110 0 195.167 -28.333 255.5 -85s90.5 -136.334 90.5 -239.001
c0 -34 -2.83301 -72.667 -8.5 -116s-13.834 -90.666 -24.501 -141.999c-14 -64 -29.5 -121.833 -46.5 -173.5s-34.167 -93.5 -51.5 -125.5c-38.667 -68 -86.5 -117.833 -143.5 -149.5s-128.167 -47.5 -213.5 -47.5c-104 0 -186.667 29 -248 87s-92 135.667 -92 233z
M494 908.997c-43.333 0 -80.167 -9.50098 -110.5 -28.501s-57.166 -49.833 -80.499 -92.5c-10 -18 -22 -49.833 -36 -95.5s-27.333 -96.834 -40 -153.501c-10.667 -47.333 -18.667 -91.333 -24 -132s-8 -78.667 -8 -114c0 -55.333 14.833 -98.166 44.5 -128.499
s72.167 -45.5 127.5 -45.5c42.667 0 79.167 9.66699 109.5 29s57.166 50 80.499 92c9.33301 16.667 20.166 45.834 32.499 87.501s26.833 98.5 43.5 170.5c10.667 46.667 18.834 88.667 24.501 126s8.5 69 8.5 95c0 62.667 -14.5 110 -43.5 142s-71.833 48 -128.5 48z" />
    <glyph glyph-name="p" unicode="p" horiz-adv-x="967" 
d="M520 915c-40 0 -76.332 -11.501 -108.999 -34.501s-61 -57.167 -85 -102.5c-10.667 -20 -22.5 -51.167 -35.5 -93.5s-25.167 -89.5 -36.5 -141.5c-10 -44 -17.667 -85.167 -23 -123.5s-8 -71.833 -8 -100.5c0 -64.667 14.333 -113.5 43 -146.5s71 -49.5 127 -49.5
c50 0 89.5 11.333 118.5 34s53.167 61 72.5 115c28 79.333 50.333 162.833 67 250.5s25 164.834 25 231.501c0 54.667 -12.833 95.167 -38.5 121.5s-64.834 39.5 -117.501 39.5zM-122.999 -389.001l263.998 1253l1 4c9.33301 52 18 105.333 26 160h170l-25 -137
c40 55.333 83.333 95.833 130 121.5s100.334 38.5 161.001 38.5c81.333 0 144 -25.833 188 -77.5s66 -124.834 66 -219.501c0 -35.333 -2.66699 -75.666 -8 -120.999s-13.666 -94.666 -24.999 -147.999c-16 -77.333 -33.833 -145.166 -53.5 -203.499
s-39.167 -103.166 -58.5 -134.499c-35.333 -55.333 -76.333 -96 -123 -122s-102 -39 -166 -39c-62 0 -113.333 13.167 -154 39.5s-74.667 68.5 -102 126.5l-117 -541h-174z" />
    <glyph glyph-name="q" unicode="q" horiz-adv-x="967" 
d="M352 113c40 0 76.5039 11.501 109.504 34.501s61.5 57.167 85.5 102.5c10 18.667 21.167 48.167 33.5 88.5s24.166 86.5 35.499 138.5c11.333 50 20 95.667 26 137s9 76.333 9 105c0 65.333 -14.333 115.166 -43 149.499s-70.334 51.5 -125.001 51.5
c-46.667 0 -85.334 -12.5 -116.001 -37.5s-55.334 -63.833 -74.001 -116.5c-30.667 -86.667 -54.667 -174 -72 -262s-26 -161 -26 -219c0 -59.333 12.667 -102.833 38 -130.5s65 -41.5 119 -41.5zM750.004 1028l168.001 -0.00292969l-21 -84
c-10.667 -43.333 -16.667 -69.666 -18 -78.999l-269 -1254h-176l109 510c-38.667 -50 -79.334 -86 -122.001 -108s-93 -33 -151 -33c-82.667 0 -146 25.333 -190 76s-66 124 -66 220c0 37.333 2.66699 77.333 8 120s13 87.334 23 134.001
c18.667 88.667 37.667 163.334 57 224.001s39.333 107.667 60 141c32 52.667 71.333 92.167 118 118.5s100 39.5 160 39.5c78 0 137.5 -14.5 178.5 -43.5s71.167 -77.5 90.5 -145.5z" />
    <glyph glyph-name="r" unicode="r" horiz-adv-x="602" 
d="M-37 0l171.998 801c6.66699 30.667 12.834 64.167 18.501 100.5s11.167 78.5 16.5 126.5h170l-31 -172c33.333 62.667 72.833 108.667 118.5 138s99.834 44 162.501 44c10 0 26.333 -1 49 -3c2.66699 -0.666992 4.66699 -1 6 -1l-35 -160h-32
c-90.667 0 -159.5 -25 -206.5 -75s-85.5 -142.333 -115.5 -277l-117 -522h-176z" />
    <glyph glyph-name="s" unicode="s" horiz-adv-x="844" 
d="M-22 313l169.002 -0.000976562l-3 -33.5c-0.666992 -7.66699 -1 -14.167 -1 -19.5c0 -48 12.667 -84.167 38 -108.5s62.666 -36.5 111.999 -36.5c54.667 0 99.667 16.333 135 49s53 73.667 53 123c0 35.333 -9.83301 66.666 -29.5 93.999s-56.834 59.333 -111.501 96
l-41 27c-136.667 88.667 -205 178.667 -205 270c0 88.667 31 158.334 93 209.001s147.667 76 257 76c106 0 185.5 -22 238.5 -66s79.5 -109.333 79.5 -196c0 -10.667 -0.166992 -18.5 -0.5 -23.5s-0.833008 -10.167 -1.5 -15.5h-174v26
c0 51.333 -11.833 88.166 -35.5 110.499s-62.5 33.5 -116.5 33.5c-50.667 0 -91 -12.167 -121 -36.5s-45 -56.5 -45 -96.5c0 -49.333 45.667 -102.666 137 -159.999l72 -47c68.667 -47.333 116.667 -92.166 144 -134.499s41 -91.833 41 -148.5
c0 -100.667 -34.333 -180.5 -103 -239.5s-162 -88.5 -280 -88.5c-102 0 -179.5 21.167 -232.5 63.5s-79.5 103.833 -79.5 184.5c0 12 0.833008 25.333 2.5 40s4.5 30.667 8.5 48z" />
    <glyph glyph-name="t" unicode="t" horiz-adv-x="541" 
d="M358 0l-122.002 -0.000976562c-69.333 0 -120.833 14.5 -154.5 43.5s-50.5 73.167 -50.5 132.5c0 27.333 7 76 21 146l1 7l123 580h-166l25 119h166l43 205l192 65l-57 -270h199l-25 -119h-201l-131 -621c-3.33301 -12.667 -5.83301 -25.167 -7.5 -37.5
s-2.5 -22.833 -2.5 -31.5c0 -31.333 9.16699 -53.166 27.5 -65.499s51.5 -18.5 99.5 -18.5c4.66699 0 12.334 0.333008 23.001 1s19.334 1 26.001 1z" />
    <glyph glyph-name="u" unicode="u" horiz-adv-x="946" 
d="M893 1028l-168.001 -793.002c-6 -26.667 -12 -57 -18 -91s-13.667 -82 -23 -144h-166l27 152c-40 -58.667 -86.333 -102.5 -139 -131.5s-112.334 -43.5 -179.001 -43.5c-68 0 -120.833 20.5 -158.5 61.5s-56.5 99.167 -56.5 174.5c0 16.667 1.5 36.834 4.5 60.501
s7.83301 51.5 14.5 83.5l143 671h174l-145 -686c-5.33301 -26.667 -9.16602 -47.5 -11.499 -62.5s-3.5 -27.5 -3.5 -37.5c0 -42 10.167 -73.667 30.5 -95s49.833 -32 88.5 -32c77.333 0 139.333 31.833 186 95.5s86.334 173.834 119.001 330.501l105 487h176z" />
    <glyph glyph-name="v" unicode="v" horiz-adv-x="868" 
d="M154 0l-95 1028h174l39 -561c3.33301 -46 6 -93.167 8 -141.5s3 -96.833 3 -145.5v-67c13.333 46 27 87 41 123s29 69.333 45 100l354 692h182l-547 -1028h-204z" />
    <glyph glyph-name="w" unicode="w" horiz-adv-x="1444" 
d="M145 0l-93.999 1028h174l39 -557c2.66699 -36 4.66699 -73.667 6 -113s2 -81.666 2 -126.999c0 -32 -0.166992 -56 -0.5 -72s-0.833008 -30.667 -1.5 -44c14 54 27.167 100.5 39.5 139.5s24.5 71.5 36.5 97.5l303 676h228l18 -758v-28
c0 -16.667 -0.5 -34.334 -1.5 -53.001s-3.16699 -44 -6.5 -76c24 64.667 50.167 129.5 78.5 194.5s60.166 133.167 95.499 204.5l256 516h180l-530 -1028h-211l-21 697c-0.666992 14 -1.16699 28 -1.5 42s-0.5 31.333 -0.5 52c0 18.667 1 51 3 97
c0.666992 10.667 1 18.334 1 23.001c-16.667 -57.333 -30 -100.333 -40 -129s-19 -51.667 -27 -69l-324 -713h-201z" />
    <glyph glyph-name="x" unicode="x" horiz-adv-x="829" 
d="M-176 0l440 556.999l-174 471h178l76 -235c11.333 -37.333 20 -67 26 -89s10.333 -40.333 13 -55c14.667 26 29.5 50.5 44.5 73.5s30.167 43.5 45.5 61.5l193 244h200l-389 -473l209 -555h-190l-95 291c-11.333 36.667 -20.5 67.334 -27.5 92.001
s-12.833 47.667 -17.5 69c-14 -25.333 -27.167 -48 -39.5 -68s-24.833 -38.667 -37.5 -56l-240 -328h-215z" />
    <glyph glyph-name="y" unicode="y" horiz-adv-x="868" 
d="M162 -29l-103 1057h174l39 -561c4.66699 -59.333 8 -108 10 -146s3 -74 3 -108c0 -27.333 -0.166992 -47.666 -0.5 -60.999s-0.833008 -26.333 -1.5 -39c10 39.333 22.167 77.833 36.5 115.5s30.833 74.167 49.5 109.5l354 690h182l-751 -1417h-181z" />
    <glyph glyph-name="z" unicode="z" horiz-adv-x="748" 
d="M-102 0l32 156l582 741h-403l28 131h613l-29 -137l-590 -752h440l-30 -139h-643z" />
    <glyph glyph-name="braceleft" unicode="{" horiz-adv-x="1024" 
d="M858 1350c-5.33301 0 -12.999 0.333008 -22.999 1s-17.333 1 -22 1c-80.667 0 -135.334 -15.667 -164.001 -47s-43 -97 -43 -197v-242c0 -110.667 -14.5 -189.167 -43.5 -235.5s-80.5 -79.833 -154.5 -100.5c74 -20 125.5 -53.167 154.5 -99.5s43.5 -124.833 43.5 -235.5
v-242c0 -99.333 14.5 -164.5 43.5 -195.5s85.5 -46.5 169.5 -46.5h39v-125h-35c-66 0 -119.167 4 -159.5 12s-74.5 21.333 -102.5 40c-36.667 24 -62.5 57.333 -77.5 100s-22.5 113.667 -22.5 213v244c0 101.333 -18.333 172.333 -55 213s-99.667 61 -189 61
c-4.66699 0 -12 -0.333008 -22 -1s-17.667 -1 -23 -1v127c5.33301 0 13 -0.333008 23 -1s17.333 -1 22 -1c89.333 0 152.333 20.5 189 61.5s55 112.5 55 214.5v244c0 102 7.5 173.833 22.5 215.5s40.833 74.167 77.5 97.5c28 18.667 62 32 102 40s93.333 12 160 12h35v-127z
" />
    <glyph glyph-name="bar" unicode="|" horiz-adv-x="1024" 
d="M575 1565v-2048h-126v2048h126z" />
    <glyph glyph-name="braceright" unicode="}" horiz-adv-x="1024" 
d="M563 1112l-0.00195312 -244.003c0 -101.333 18.5 -172.666 55.5 -213.999s100.5 -62 190.5 -62c4.66699 0 12 0.333008 22 1s17.667 1 23 1v-127c-5.33301 0 -13 0.333008 -23 1s-17.333 1 -22 1c-90 0 -153.5 -20.667 -190.5 -62s-55.5 -112.666 -55.5 -213.999v-242
c0 -102 -7.33301 -174.167 -22 -216.5s-40 -75.5 -76 -99.5c-26 -17.333 -58.5 -29.833 -97.5 -37.5s-92.5 -11.5 -160.5 -11.5h-41v125c5.33301 0 13 -0.333008 23 -1s17.333 -1 22 -1c80 0 134.5 15.833 163.5 47.5s43.5 97.834 43.5 198.501v240
c0 110.667 14.5 189.167 43.5 235.5s80.5 79.5 154.5 99.5c-74 20.667 -125.5 54.167 -154.5 100.5s-43.5 124.833 -43.5 235.5v242c0 99.333 -14.667 164.833 -44 196.5s-85.666 47.5 -168.999 47.5h-39v125h35c66.667 0 120.334 -4.16699 161.001 -12.5
s75 -21.5 103 -39.5c36 -23.333 61.333 -56 76 -98s22 -113.667 22 -215z" />
    <glyph glyph-name="asciitilde" unicode="~" horiz-adv-x="1706" 
d="M1530 627c-67.333 -48 -133.166 -84 -197.499 -108s-127.5 -36 -189.5 -36c-28.667 0 -58.834 3 -90.501 9s-65.167 14.667 -100.5 26c-20 6.66699 -49 17 -87 31c-134.667 48 -235.334 72 -302.001 72c-55.333 0 -113.166 -12.5 -173.499 -37.5
s-130.833 -65.833 -211.5 -122.5v133c70 48.667 137.333 85 202 109s126.334 36 185.001 36c37.333 0 76.166 -4.16699 116.499 -12.5s98.5 -25.833 174.5 -52.5l44 -16c105.333 -38.667 187 -58 245 -58c56 0 114.167 12.333 174.5 37s130.5 65 210.5 121v-131z" />
    <glyph glyph-name="euro" 
d="M678 418l173.998 -0.000976562c-36 -148 -92 -258.833 -168 -332.5s-172.333 -110.5 -289 -110.5c-103.333 0 -183.333 30 -240 90s-85 144 -85 252c0 22 1.83301 49.5 5.5 82.5s10.5 79.5 20.5 139.5h-129l53 118h99l33 162h-166l53 119h135
c44 196 106.5 338.5 187.5 427.5s187.833 133.5 320.5 133.5c95.333 0 171 -27 227 -81s84 -126.667 84 -218c0 -10.667 -0.666992 -23.834 -2 -39.501s-4 -42.167 -8 -79.5h-172c4 26.667 6.66699 47.334 8 62.001s2 27 2 37c0 54.667 -14 97.334 -42 128.001
s-67 46 -117 46c-74 0 -133.667 -29.5 -179 -88.5s-88.333 -168.167 -129 -327.5h377l-47 -119h-352l-33 -162h324l-50 -118h-299c-11.333 -57.333 -19.166 -102.333 -23.499 -135s-6.5 -60 -6.5 -82c0 -64.667 15 -114.334 45 -149.001s73 -52 129 -52
c62.667 0 116.334 25.333 161.001 76s77.667 124.334 99 221.001z" />
    <glyph glyph-name="euro" unicode="&#x20ac;" 
d="M678 418l173.998 -0.000976562c-36 -148 -92 -258.833 -168 -332.5s-172.333 -110.5 -289 -110.5c-103.333 0 -183.333 30 -240 90s-85 144 -85 252c0 22 1.83301 49.5 5.5 82.5s10.5 79.5 20.5 139.5h-129l53 118h99l33 162h-166l53 119h135
c44 196 106.5 338.5 187.5 427.5s187.833 133.5 320.5 133.5c95.333 0 171 -27 227 -81s84 -126.667 84 -218c0 -10.667 -0.666992 -23.834 -2 -39.501s-4 -42.167 -8 -79.5h-172c4 26.667 6.66699 47.334 8 62.001s2 27 2 37c0 54.667 -14 97.334 -42 128.001
s-67 46 -117 46c-74 0 -133.667 -29.5 -179 -88.5s-88.333 -168.167 -129 -327.5h377l-47 -119h-352l-33 -162h324l-50 -118h-299c-11.333 -57.333 -19.166 -102.333 -23.499 -135s-6.5 -60 -6.5 -82c0 -64.667 15 -114.334 45 -149.001s73 -52 129 -52
c62.667 0 116.334 25.333 161.001 76s77.667 124.334 99 221.001z" />
    <glyph glyph-name="nonbreakingspace" unicode="&#xa0;" 
 />
    <glyph glyph-name="exclamdown" unicode="&#xa1;" horiz-adv-x="616" 
d="M465 1118l-205 -1118h-211l277 1118h139zM571 1475l-43 -195h-192l41 195h194z" />
    <glyph glyph-name="cent" unicode="&#xa2;" 
d="M236 209l342 690.001c-16 4 -31.167 7 -45.5 9s-26.5 3 -36.5 3c-39.333 0 -73.333 -10 -102 -30s-53.667 -51 -75 -93c-10 -20 -21.667 -51.833 -35 -95.5s-27.333 -97.834 -42 -162.501c-10 -40.667 -17.333 -79.5 -22 -116.5s-7 -71.833 -7 -104.5
c0 -19.333 1.83301 -37.333 5.5 -54s9.5 -32 17.5 -46zM63 -144.999l91 188c-37.333 32 -64.5 68.5 -81.5 109.5s-25.5 90.5 -25.5 148.5c0 35.333 3 75.166 9 119.499s14.667 91.833 26 142.5c14.667 66.667 29.834 125 45.501 175s31.167 88.667 46.5 116
c38 68 85.667 118.167 143 150.5s127.666 48.5 210.999 48.5c18 0 36.333 -1.33301 55 -4s39.334 -7 62.001 -13l78 158h92l-94 -190c37.333 -21.333 65.5 -52 84.5 -92s28.5 -89.333 28.5 -148c0 -12 -1.33301 -32.333 -4 -61c0 -3.33301 -0.333008 -5.66602 -1 -6.99902
h-161v6c2.66699 20.667 4 35 4 43c0 21.333 -2.5 39.833 -7.5 55.5s-12.5 29.167 -22.5 40.5l-349 -700c24 -6.66699 44.167 -11.667 60.5 -15s30.166 -5 41.499 -5c57.333 0 102.666 17.667 135.999 53s55.666 89.333 66.999 162h168
c-15.333 -118 -56.166 -206.833 -122.499 -266.5s-157.166 -89.5 -272.499 -89.5c-20 0 -42.167 1.83301 -66.5 5.5s-50.833 9.16699 -79.5 16.5l-71 -147h-91z" />
    <glyph glyph-name="sterling" unicode="&#xa3;" 
d="M-84 0l35 156h158l116 542h-159l32 144h158l41 188c33.333 154 80.5 262.5 141.5 325.5s147.5 94.5 259.5 94.5c98 0 173.5 -23.5 226.5 -70.5s79.5 -114.167 79.5 -201.5c0 -11.333 -0.833008 -24 -2.5 -38s-4.5 -34.333 -8.5 -61l-182 1c2 22 3.5 40.667 4.5 56
s1.5 28 1.5 38c0 44.667 -11 78 -33 100s-56 33 -102 33c-51.333 0 -92 -19.333 -122 -58s-55 -104 -75 -196l-45 -211h248l-31 -144h-247l-117 -542h493l-32 -156h-838z" />
    <glyph glyph-name="currency" unicode="&#xa4;" 
d="M678 418l173.998 -0.000976562c-36 -148 -92 -258.833 -168 -332.5s-172.333 -110.5 -289 -110.5c-103.333 0 -183.333 30 -240 90s-85 144 -85 252c0 22 1.83301 49.5 5.5 82.5s10.5 79.5 20.5 139.5h-129l53 118h99l33 162h-166l53 119h135
c44 196 106.5 338.5 187.5 427.5s187.833 133.5 320.5 133.5c95.333 0 171 -27 227 -81s84 -126.667 84 -218c0 -10.667 -0.666992 -23.834 -2 -39.501s-4 -42.167 -8 -79.5h-172c4 26.667 6.66699 47.334 8 62.001s2 27 2 37c0 54.667 -14 97.334 -42 128.001
s-67 46 -117 46c-74 0 -133.667 -29.5 -179 -88.5s-88.333 -168.167 -129 -327.5h377l-47 -119h-352l-33 -162h324l-50 -118h-299c-11.333 -57.333 -19.166 -102.333 -23.499 -135s-6.5 -60 -6.5 -82c0 -64.667 15 -114.334 45 -149.001s73 -52 129 -52
c62.667 0 116.334 25.333 161.001 76s77.667 124.334 99 221.001z" />
    <glyph glyph-name="yen" unicode="&#xa5;" horiz-adv-x="1042" 
d="M1155 1427l-330 -475h250l-20 -98h-299l-131 -186h389l-21 -101h-442l-123 -567h-180l123 567h-402l23 101h354l-53 186h-260l20 98h213l-127 475h178l177 -694l471 694h190z" />
    <glyph glyph-name="brokenbar" unicode="&#xa6;" horiz-adv-x="1024" 
d="M575 408v-758h-126v758h126zM575 1432v-758h-126v758h126z" />
    <glyph glyph-name="section" unicode="&#xa7;" 
d="M59 184l0.998047 0.00195312c132 -40.667 223.333 -61 274 -61c56 0 99.333 10 130 30s46 48.333 46 85c0 27.333 -7 52.666 -21 75.999s-42.667 53 -86 89l-58 51c-134.667 113.333 -202 205 -202 275c0 54.667 20.333 102.5 61 143.5s110.667 82.5 210 124.5
c-45.333 42.667 -78.166 82.167 -98.499 118.5s-30.5 74.166 -30.5 113.499c0 85.333 31 151.333 93 198s150.333 70 265 70c38 0 80.667 -4.16699 128 -12.5s98.333 -20.5 153 -36.5l-31 -152c-60 20 -111.667 34.667 -155 44s-80.333 14 -111 14
c-50 0 -89.5 -11 -118.5 -33s-43.5 -51.333 -43.5 -88c0 -22.667 7.5 -45.667 22.5 -69s38.167 -48 69.5 -74l42 -35c153.333 -126 230 -226.333 230 -301c0 -56.667 -21 -105.834 -63 -147.501s-111.667 -82.167 -209 -121.5c47.333 -39.333 82 -78.666 104 -117.999
s33 -80.333 33 -123c0 -82 -30.5 -147 -91.5 -195s-144.5 -72 -250.5 -72c-50.667 0 -102.667 4.66699 -156 14s-109.666 23.333 -168.999 42zM460.998 563.002c68.667 28.667 117.5 56.668 146.5 84.001s43.5 58.666 43.5 93.999c0 26 -10.167 51.833 -30.5 77.5
s-58.5 60.167 -114.5 103.5c-64 -26.667 -110.667 -54.5 -140 -83.5s-44 -61.5 -44 -97.5c0 -22 9.66699 -45.833 29 -71.5s56 -61.167 110 -106.5z" />
    <glyph glyph-name="dieresis" unicode="&#xa8;" horiz-adv-x="1024" 
d="M694 1223l43 209h183l-43 -209h-183zM365 1223l43 209h182l-43 -209h-182z" />
    <glyph glyph-name="copyright" unicode="&#xa9;" horiz-adv-x="1706" 
d="M1065 911c-10 51.333 -33.501 91.5 -70.501 120.5s-83.167 43.5 -138.5 43.5c-78 0 -138.833 -30.833 -182.5 -92.5s-65.5 -148.167 -65.5 -259.5c0 -106.667 22.167 -190.667 66.5 -252s104.833 -92 181.5 -92c58 0 106.5 16.167 145.5 48.5s63.5 76.833 73.5 133.5h129
c-7.33301 -84.667 -43.666 -153.667 -108.999 -207s-147 -80 -245 -80c-117.333 0 -210.833 40.333 -280.5 121s-104.5 189.334 -104.5 326.001c0 138.667 35.833 249.5 107.5 332.5s167.5 124.5 287.5 124.5c91.333 0 168 -24.833 230 -74.5s96.667 -113.834 104 -192.501
h-129zM1501 725c0 86.667 -16.333 169.667 -49 249s-79 149.333 -139 210c-61.333 61.333 -131.333 108 -210 140s-162.334 48 -251.001 48c-88 0 -170.5 -15.833 -247.5 -47.5s-145.5 -77.834 -205.5 -138.501c-62 -63.333 -109.5 -134.666 -142.5 -213.999
s-49.5 -161.666 -49.5 -246.999c0 -84.667 16.333 -166 49 -244s79.667 -148.333 141 -211c62 -61.333 131.833 -108.333 209.5 -141s159.5 -49 245.5 -49s168.833 16.667 248.5 50s151.167 80.666 214.5 141.999c60.667 60 106.834 128.5 138.501 205.5
s47.5 159.5 47.5 247.5zM851.999 1460c100.667 0 195.666 -18.332 284.999 -54.999s169 -90 239 -160c68 -68 120.167 -146.667 156.5 -236s54.5 -184 54.5 -284c0 -100.667 -18 -195 -54 -283s-88.333 -165.667 -157 -233
c-72.667 -70.667 -154.167 -124.834 -244.5 -162.501s-183.5 -56.5 -279.5 -56.5c-97.333 0 -190 18.5 -278 55.5s-167.333 90.833 -238 161.5c-70.667 70 -124.5 149.5 -161.5 238.5s-55.5 182.167 -55.5 279.5c0 96.667 18.833 189.834 56.5 279.501
s91.834 170.5 162.501 242.5c68 69.333 146 122.166 234 158.499s181.333 54.5 280 54.5z" />
    <glyph glyph-name="ordfeminine" unicode="&#xaa;" horiz-adv-x="709" 
d="M410 866c-29.333 -40 -62.167 -69.665 -98.5 -88.998s-77.5 -29 -123.5 -29c-62.667 0 -112 17 -148 51s-54 80.333 -54 139c0 95.333 33 165.166 99 209.499s169.333 66.5 310 66.5c22 0 38.833 -0.166992 50.5 -0.5s22.167 -0.5 31.5 -0.5c4 18 7 34.833 9 50.5
s3 30.167 3 43.5c0 30 -10.5 52.833 -31.5 68.5s-51.833 23.5 -92.5 23.5c-42.667 0 -75.834 -9.5 -99.501 -28.5s-38.5 -47.833 -44.5 -86.5h-141c15.333 71.333 45.5 123.666 90.5 156.999s108.167 50 189.5 50c88.667 0 154.667 -15.167 198 -45.5s65 -76.5 65 -138.5
c0 -16 -1.66699 -35 -5 -57s-8 -46.333 -14 -73l-63 -278c-6 -26 -10.667 -51 -14 -75s-5.66602 -47.333 -6.99902 -70h-131zM458.999 1126h-31c-106 0 -184 -14.167 -234 -42.5s-75 -72.833 -75 -133.5c0 -32 9.5 -57 28.5 -75s45.5 -27 79.5 -27
c61.333 0 111.5 23.5 150.5 70.5s66.167 116.167 81.5 207.5z" />
    <glyph glyph-name="guillemotleft" unicode="&#xab;" horiz-adv-x="825" 
d="M135 119l-96 409l274 383h150l-254 -395l59 -397h-133zM461 119l-96 409l276 383h147l-251 -395l59 -397h-135z" />
    <glyph glyph-name="logicalnot" unicode="&#xac;" horiz-adv-x="1706" 
d="M1452 858v-502h-115v385h-1083v117h1198z" />
    <glyph glyph-name="sfthyphen" unicode="&#xad;" horiz-adv-x="569" 
d="M4 434l33 160h432l-33 -160h-432z" />
    <glyph glyph-name="registered" unicode="&#xae;" horiz-adv-x="1706" 
d="M846 1065l-144.001 -0.000976562v-291h148c82 0 140.333 11 175 33s52 58 52 108c0 52.667 -18.167 90.834 -54.5 114.501s-95.166 35.5 -176.499 35.5zM871.999 1157c118.667 0 206.833 -18.999 264.5 -56.999s86.5 -96 86.5 -174
c0 -59.333 -17.667 -108.833 -53 -148.5s-83.333 -64.834 -144 -75.501l188 -385h-157l-176 365h-179v-365h-141v840h311zM1501 721c0 88.667 -16.001 172.499 -48.001 251.499s-78 148.833 -138 209.5c-62.667 62 -133.167 109.167 -211.5 141.5
s-162.166 48.5 -251.499 48.5c-88 0 -170.333 -15.667 -247 -47s-144.667 -77 -204 -137c-62.667 -63.333 -110.667 -134.666 -144 -213.999s-50 -162.333 -50 -249c0 -84.667 16.333 -166 49 -244s79.667 -148.333 141 -211c60.667 -61.333 130 -108.333 208 -141
s159.667 -49 245 -49c87.333 0 170.5 16.167 249.5 48.5s150.167 79.5 213.5 141.5c60.667 60 107.167 128.667 139.5 206s48.5 159 48.5 245zM851.997 1460c100 0 194.669 -18.498 284.002 -55.498s169.333 -90.833 240 -161.5c68 -68 120.167 -146.5 156.5 -235.5
s54.5 -183.167 54.5 -282.5c0 -100.667 -18.167 -195 -54.5 -283s-89.166 -165.667 -158.499 -233c-72.667 -70.667 -153.834 -124.834 -243.501 -162.501s-182.5 -56.5 -278.5 -56.5c-96.667 0 -189.5 18.667 -278.5 56s-168.833 91.666 -239.5 162.999
c-70 69.333 -123.333 148.333 -160 237s-55 181.667 -55 279c0 98 19 192 57 282s92.667 170.667 164 242c67.333 68.667 144.666 121 231.999 157s180.666 54 279.999 54z" />
    <glyph glyph-name="macron" unicode="&#xaf;" horiz-adv-x="1024" 
d="M377 1257l29 140h501l-28 -140h-502z" />
    <glyph glyph-name="degree" unicode="&#xb0;" horiz-adv-x="674" 
d="M539 1171c0 56 -19.5 103.5 -58.5 142.5s-86.5 58.5 -142.5 58.5s-103.833 -19.5 -143.5 -58.5s-59.5 -86.5 -59.5 -142.5s19.833 -103.667 59.5 -143s87.5 -59 143.5 -59s103.5 19.667 142.5 59s58.5 87 58.5 143zM338 1454c78 0 144.668 -27.6689 200.001 -83.002
s83 -122 83 -200c0 -77.333 -27.833 -143.666 -83.5 -198.999s-122.834 -83 -201.501 -83s-145.167 27.333 -199.5 82s-81.5 121.334 -81.5 200.001c0 79.333 27.5 146.333 82.5 201s121.833 82 200.5 82z" />
    <glyph glyph-name="plusminus" unicode="&#xb1;" horiz-adv-x="1706" 
d="M1452 158v-117h-1198v117h1198zM913 1180v-344h539v-117h-539v-344h-118v344h-541v117h541v344h118z" />
    <glyph glyph-name="twosuperior" unicode="&#xb2;" horiz-adv-x="647" 
d="M-49 571l17.999 82.002l168 150c153.333 138.667 251.5 236.167 294.5 292.5s64.5 106.166 64.5 149.499c0 34 -10.5 60.333 -31.5 79s-50.833 28 -89.5 28s-69.667 -11.333 -93 -34s-39.666 -57.334 -48.999 -104.001h-120c14 74.667 43.5 131.334 88.5 170.001
s104.167 58 177.5 58c75.333 0 133.333 -16.333 174 -49s61 -79.334 61 -140.001c0 -62 -24.5 -126.833 -73.5 -194.5s-151.5 -168.5 -307.5 -302.5l-110 -94h369l-21 -91h-520z" />
    <glyph glyph-name="threesuperior" unicode="&#xb3;" horiz-adv-x="647" 
d="M6 807l118.997 -0.00292969c-1.33301 -10 -2.33301 -20 -3 -30s-1 -20.667 -1 -32c0 -32 9.66699 -56.333 29 -73s48 -25 86 -25c46.667 0 84.5 20.833 113.5 62.5s43.5 96.5 43.5 164.5c0 38 -10.5 64.667 -31.5 80s-57.5 23 -109.5 23h-23l25 92
c4.66699 -0.666992 9.5 -1.16699 14.5 -1.5s12.5 -0.5 22.5 -0.5c66 0 114.5 15.5 145.5 46.5s46.5 78.833 46.5 143.5c0 32 -8.83301 56.5 -26.5 73.5s-43.5 25.5 -77.5 25.5c-39.333 0 -70.333 -11.333 -93 -34s-38.667 -57.667 -48 -105h-125
c18 78.667 48.833 135.834 92.5 171.501s104.834 53.5 183.501 53.5c68 0 120.5 -15.167 157.5 -45.5s55.5 -73.166 55.5 -128.499c0 -74 -16.667 -132.167 -50 -174.5s-83 -68.166 -149 -77.499c38.667 -13.333 66.834 -33.166 84.501 -59.499s26.5 -61.166 26.5 -104.499
c0 -40 -6.83301 -79.5 -20.5 -118.5s-31.5 -70.5 -53.5 -94.5c-25.333 -28.667 -54.833 -49.5 -88.5 -62.5s-75.167 -19.5 -124.5 -19.5c-75.333 0 -131.666 16.167 -168.999 48.5s-56 81.166 -56 146.499c0 9.33301 1 25.333 3 48c0.666992 3.33301 1 5.66602 1 6.99902z
" />
    <glyph glyph-name="acute" unicode="&#xb4;" horiz-adv-x="1024" 
d="M592 1163h-121l231 348h191z" />
    <glyph glyph-name="mu" unicode="&#xb5;" horiz-adv-x="1128" 
d="M362 1069l-125.999 -594.997c-5.33301 -22 -9.16602 -44.333 -11.499 -67s-3.5 -46.334 -3.5 -71.001c0 -72.667 19 -128.667 57 -168s91.333 -59 160 -59c83.333 0 152.666 33.667 207.999 101s98 170 128 308l121 551h156l-162 -754
c-8 -34.667 -13.833 -62.667 -17.5 -84s-5.5 -38.333 -5.5 -51c0 -21.333 6.16699 -37.5 18.5 -48.5s30.166 -16.5 53.499 -16.5c6 0 11.833 0.166992 17.5 0.5s11.5 0.833008 17.5 1.5l-27 -125c-14 -3.33301 -28.667 -5.83301 -44 -7.5s-31.333 -2.5 -48 -2.5
c-46.667 0 -81.5 11.667 -104.5 35s-36.5 60.666 -40.5 111.999c-27.333 -46.667 -66.333 -82.834 -117 -108.501s-108 -38.5 -172 -38.5c-58 0 -108.833 11.333 -152.5 34s-80.167 57 -109.5 103l-113 -545h-156l316 1495h157z" />
    <glyph glyph-name="paragraph" unicode="&#xb6;" horiz-adv-x="1024" 
d="M948 1401h-125.002v-1401h-94v1401h-182v-1401h-96v782c-115.333 5.33301 -206.666 39.5 -273.999 102.5s-101 144.833 -101 245.5c0 104.667 35.833 189 107.5 253s166.834 96 285.501 96h479v-78z" />
    <glyph glyph-name="periodcentered" unicode="&#xb7;" horiz-adv-x="492" 
d="M127 713c0 32 10.833 59.001 32.5 81.001s48.5 33 80.5 33c32.667 0 59.834 -10.833 81.501 -32.5s32.5 -48.834 32.5 -81.501s-10.833 -59.667 -32.5 -81s-48.834 -32 -81.501 -32s-59.667 10.667 -81 32s-32 48.333 -32 81z" />
    <glyph glyph-name="cedilla" unicode="&#xb8;" horiz-adv-x="1024" 
d="M47 -422l37 97.999c53.333 -15.333 96.666 -26.666 129.999 -33.999s60.333 -11 81 -11c48 0 82.833 7.83301 104.5 23.5s32.5 40.834 32.5 75.501c0 28.667 -13.333 49.167 -40 61.5s-72.667 18.5 -138 18.5h-23l66 190h78l-35 -102h22
c70.667 0 123.834 -14 159.501 -42s53.5 -69.333 53.5 -124c0 -66 -21.5 -116.667 -64.5 -152s-104.5 -53 -184.5 -53c-32 0 -70.5 4.16699 -115.5 12.5s-99.5 21.166 -163.5 38.499z" />
    <glyph glyph-name="onesuperior" unicode="&#xb9;" horiz-adv-x="647" 
d="M195 571l166.999 722.999c-21.333 -16.667 -47.5 -32 -78.5 -46s-66.833 -27.333 -107.5 -40l25 103c49.333 19.333 90.833 38.833 124.5 58.5s58.834 38.834 75.501 57.501h113l-201 -856h-118z" />
    <glyph glyph-name="ordmasculine" unicode="&#xba;" horiz-adv-x="715" 
d="M12 961c0 20.667 2.33008 46.667 6.99707 78s12 69.333 22 114c11.333 45.333 22.833 85.166 34.5 119.499s22.834 60.166 33.501 77.499c30 48.667 66.333 84.334 109 107.001s94.334 34 155.001 34c82.667 0 146.667 -19.833 192 -59.5s68 -95.5 68 -167.5
c0 -23.333 -2.16699 -50.166 -6.5 -80.499s-10.5 -63.833 -18.5 -100.5c-9.33301 -42.667 -20.5 -82.167 -33.5 -118.5s-26.167 -66.5 -39.5 -90.5c-29.333 -47.333 -65.166 -82 -107.499 -104s-95.5 -33 -159.5 -33c-78.667 0 -141 20.167 -187 60.5s-69 94.833 -69 163.5z
M370.997 1391c-32 0 -59.501 -6.66602 -82.501 -19.999s-43.5 -35 -61.5 -65c-7.33301 -14.667 -16.166 -37.834 -26.499 -69.501s-20.5 -67.167 -30.5 -106.5c-8.66699 -34 -15 -65 -19 -93s-6 -54.333 -6 -79c0 -38 11.333 -67.5 34 -88.5s54.334 -31.5 95.001 -31.5
c33.333 0 61.5 6.66699 84.5 20s42.833 34.666 59.5 63.999c7.33301 12 15.666 32.5 24.999 61.5s20 68.5 32 118.5c8.66699 35.333 15 65.833 19 91.5s6 46.834 6 63.501c0 44 -11 77.333 -33 100s-54 34 -96 34z" />
    <glyph glyph-name="guillemotright" unicode="&#xbb;" horiz-adv-x="825" 
d="M592 911l96 -411l-276 -381h-148l254 393l-59 399h133zM266 911l96 -411l-276 -381h-149l253 393l-59 399h135z" />
    <glyph glyph-name="onequarter" unicode="&#xbc;" horiz-adv-x="1579" 
d="M1413 743l-42.999 -61.499c-14 -19.667 -27.667 -37.834 -41 -54.501l-266 -344h221l90 335c7.33301 25.333 14.166 47.833 20.499 67.5zM1217 0.000976562l49 205h-310l27 108l389 486h148l-121 -516h112l-18 -78h-115l-49 -205h-112zM276.001 -24.999l902 1475h122
l-901 -1475h-123zM184.001 629.001l159.999 674.001c-18.667 -14.667 -42.167 -28.334 -70.5 -41.001s-64.166 -25.667 -107.499 -39l24 96c46 16.667 85.167 34.167 117.5 52.5s57.5 36.833 75.5 55.5h106l-190 -798h-115z" />
    <glyph glyph-name="onehalf" unicode="&#xbd;" horiz-adv-x="1579" 
d="M913 0l18.998 75.998l160 141c148 130.667 242 221.834 282 273.501s60 97.834 60 138.501c0 32 -10 56.667 -30 74s-48.333 26 -85 26c-37.333 0 -67.166 -10.5 -89.499 -31.5s-37.5 -53.5 -45.5 -97.5h-117c14.667 70 43.334 122.667 86.001 158s99.334 53 170.001 53
c72 0 127.5 -15 166.5 -45s58.5 -73 58.5 -129c0 -56.667 -22.833 -116 -68.5 -178s-144.834 -157.667 -297.501 -287l-105 -88h353l-21 -84h-496zM275.998 -25.002l902 1475h122l-901 -1475h-123zM183.998 628.998l159.999 674.001
c-18.667 -14.667 -42.167 -28.334 -70.5 -41.001s-64.166 -25.667 -107.499 -39l24 96c46 16.667 85.167 34.167 117.5 52.5s57.5 36.833 75.5 55.5h106l-190 -798h-115z" />
    <glyph glyph-name="threequarters" unicode="&#xbe;" horiz-adv-x="1579" 
d="M1413 743l-42.999 -61.499c-14 -19.667 -27.667 -37.834 -41 -54.501l-266 -344h221l90 335c7.33301 25.333 14.166 47.833 20.499 67.5zM1217 0.000976562l49 205h-310l27 108l389 486h148l-121 -516h112l-18 -78h-115l-49 -205h-112zM276.001 -24.999l902 1475h122
l-901 -1475h-123zM6.00098 848.001l113 0.00292969c-0.666992 -7.33301 -1.5 -17.833 -2.5 -31.5s-1.5 -22.167 -1.5 -25.5c0 -30 9.5 -53 28.5 -69s46.167 -24 81.5 -24c45.333 0 81.666 19.667 108.999 59s41 90.666 41 153.999c0 35.333 -10 60.333 -30 75
s-55 22 -105 22h-21l23 86c4 -0.666992 8.5 -1.16699 13.5 -1.5s11.833 -0.5 20.5 -0.5c64 0 110.833 14.167 140.5 42.5s44.5 72.833 44.5 133.5c0 30.667 -8.5 54 -25.5 70s-41.5 24 -73.5 24c-37.333 0 -67 -10.5 -89 -31.5s-38 -54.167 -48 -99.5h-116
c16 72.667 44.667 125.667 86 159s100 50 176 50c65.333 0 115.333 -13.833 150 -41.5s52 -67.167 52 -118.5c0 -69.333 -15.667 -123.833 -47 -163.5s-78.333 -63.834 -141 -72.501c36.667 -12.667 63.167 -31.167 79.5 -55.5s24.5 -56.833 24.5 -97.5
c0 -38 -6.16699 -74.833 -18.5 -110.5s-29.166 -65.167 -50.499 -88.5c-25.333 -27.333 -54 -47.166 -86 -59.499s-71 -18.5 -117 -18.5c-72 0 -125.833 15.167 -161.5 45.5s-53.5 76.166 -53.5 137.499c0 9.33301 1.33301 24.666 4 45.999v5z" />
    <glyph glyph-name="questiondown" unicode="&#xbf;" horiz-adv-x="807" 
d="M672 1473l-41 -195h-185l43 195h183zM584 1106l-46.998 -223c-9.33301 -41.333 -18.333 -72.5 -27 -93.5s-19.667 -39.833 -33 -56.5c-9.33301 -12 -33.666 -34.333 -72.999 -67s-71 -60.667 -95 -84c-47.333 -46.667 -82.333 -97.834 -105 -153.501
s-34 -117.834 -34 -186.501c0 -42 10.5 -73.667 31.5 -95s52.167 -32 93.5 -32c52 0 93.167 18.167 123.5 54.5s56.166 100.5 77.499 192.5h182c-26.667 -134.667 -71.834 -232.5 -135.501 -293.5s-152.5 -91.5 -266.5 -91.5c-98 0 -171.833 23 -221.5 69
s-74.5 114.667 -74.5 206c0 75.333 12 147 36 215s57 123.333 99 166c33.333 34 78 73 134 117c18.667 14.667 31.667 25.334 39 32.001l14 11c41.333 32.667 67.666 74.334 78.999 125.001l39 188h164z" />
    <glyph glyph-name="Agrave" unicode="&#xc0;" horiz-adv-x="1141" 
d="M299 510h463l-39 590c0 2.66699 -0.333008 7 -1 13c-6 74.667 -9 138 -9 190v30zM-156 0l762 1475h264l119 -1475h-194l-23 348h-555l-174 -348h-199zM895 1609h-109l-301 348h199z" />
    <glyph glyph-name="Aacute" unicode="&#xc1;" horiz-adv-x="1141" 
d="M299 510h463l-39 590c0 2.66699 -0.333008 7 -1 13c-6 74.667 -9 138 -9 190v30zM-156 0l762 1475h264l119 -1475h-194l-23 348h-555l-174 -348h-199zM731 1609h-121l231 348h191z" />
    <glyph glyph-name="Acircumflex" unicode="&#xc2;" horiz-adv-x="1141" 
d="M299 510h463l-39 590c0 2.66699 -0.333008 7 -1 13c-6 74.667 -9 138 -9 190v30zM-156 0l762 1475h264l119 -1475h-194l-23 348h-555l-174 -348h-199zM1036 1609h-109l-133 219l-225 -219h-121l266 348h185z" />
    <glyph glyph-name="Atilde" unicode="&#xc3;" horiz-adv-x="1141" 
d="M299 510h463l-39 590c0 2.66699 -0.333008 7 -1 13c-6 74.667 -9 138 -9 190v30zM-156 0l762 1475h264l119 -1475h-194l-23 348h-555l-174 -348h-199zM1059 1896c-16.667 -70.667 -40.665 -122.5 -71.998 -155.5s-71.666 -49.5 -120.999 -49.5
c-10.667 0 -20.334 0.666992 -29.001 2s-16.667 3.33301 -24 6l-80 29c-8.66699 2.66699 -17.167 4.66699 -25.5 6s-16.833 2 -25.5 2c-22 0 -40 -6.5 -54 -19.5s-23.333 -31.5 -28 -55.5l-94 -1c15.333 68.667 38.333 120 69 154s69.667 51 117 51
c10.667 0 21.5 -0.833008 32.5 -2.5s21.833 -4.16699 32.5 -7.5l80 -27c6.66699 -2 14.167 -3.83301 22.5 -5.5s15.833 -2.5 22.5 -2.5c21.333 0 38.166 5.83301 50.499 17.5s22.166 31.167 29.499 58.5h97z" />
    <glyph glyph-name="Adieresis" unicode="&#xc4;" horiz-adv-x="1141" 
d="M299 510h463l-39 590c0 2.66699 -0.333008 7 -1 13c-6 74.667 -9 138 -9 190v30zM-156 0l762 1475h264l119 -1475h-194l-23 348h-555l-174 -348h-199zM833 1669l43 209h183l-43 -209h-183zM504 1669l43 209h182l-43 -209h-182z" />
    <glyph glyph-name="Aring" unicode="&#xc5;" horiz-adv-x="1141" 
d="M532 1747c0 62.667 21.667 115.832 65 159.499s96.333 65.5 159 65.5c63.333 0 116.666 -21.667 159.999 -65s65 -96.666 65 -159.999s-21.667 -116.333 -65 -159s-96.666 -64 -159.999 -64s-116.5 21.333 -159.5 64s-64.5 95.667 -64.5 159zM635 1747
c0 -33.333 11.833 -61.833 35.5 -85.5s52.167 -35.5 85.5 -35.5c34 0 63 11.833 87 35.5s36 52.167 36 85.5c0 34.667 -12 63.834 -36 87.501s-53 35.5 -87 35.5s-62.667 -11.833 -86 -35.5s-35 -52.834 -35 -87.501zM299 509.998h463l-39 590c0 2.66699 -0.333008 7 -1 13
c-6 74.667 -9 138 -9 190v30zM-156 -0.00195312l752 1462h274l119 -1462h-194l-23 348h-555l-174 -348h-199z" />
    <glyph glyph-name="AE" unicode="&#xc6;" horiz-adv-x="1599" 
d="M334 510h422l94 803h-19zM700 0l37 348h-504l-215 -348h-213l932 1475h920l-35 -162h-596l-49 -465h520l-35 -162h-501l-56 -522h488l-35 -164h-658z" />
    <glyph glyph-name="Ccedilla" unicode="&#xc7;" horiz-adv-x="1096" 
d="M942 442c-27.333 -155.333 -81.667 -272.002 -163 -350.002s-189.333 -117 -324 -117c-127.333 0 -224.5 33.833 -291.5 101.5s-100.5 165.834 -100.5 294.501c0 47.333 5.66699 109.5 17 186.5s27.666 164.833 48.999 263.5c24 111.333 46.333 202 67 272
s41.334 123.333 62.001 160c44.667 83.333 102.334 145.166 173.001 185.499s157 60.5 259 60.5c117.333 0 208.833 -30.5 274.5 -91.5s98.5 -145.833 98.5 -254.5c0 -17.333 -0.666992 -33.666 -2 -48.999s-3.33301 -31 -6 -47h-195c2.66699 14 4.66699 27.833 6 41.5
s2 27.834 2 42.501c0 62 -16.5 109.5 -49.5 142.5s-80.5 49.5 -142.5 49.5c-64 0 -116.167 -14 -156.5 -42s-74.833 -74.667 -103.5 -140c-13.333 -28 -27 -67 -41 -117s-27.667 -108.667 -41 -176c-28.667 -140 -48.834 -247 -60.501 -321s-17.5 -128 -17.5 -162
c0 -76 18.167 -134.333 54.5 -175s88.5 -61 156.5 -61c74 0 134.333 25.5 181 76.5s79 126.5 97 226.5h197zM105.999 -422.002l37 97.999c53.333 -15.333 96.666 -26.666 129.999 -33.999s60.333 -11 81 -11c48 0 82.833 7.83301 104.5 23.5s32.5 40.834 32.5 75.501
c0 28.667 -13.333 49.167 -40 61.5s-72.667 18.5 -138 18.5h-23l66 190h78l-35 -102h22c70.667 0 123.834 -14 159.501 -42s53.5 -69.333 53.5 -124c0 -66 -21.5 -116.667 -64.5 -152s-104.5 -53 -184.5 -53c-32 0 -70.5 4.16699 -115.5 12.5s-99.5 21.166 -163.5 38.499z
" />
    <glyph glyph-name="Egrave" unicode="&#xc8;" horiz-adv-x="967" 
d="M-20 0l313 1475h731l-35 -162h-536l-99 -465h510l-35 -162h-510l-110 -522h551l-35 -164h-745zM809 1609h-109l-301 348h199z" />
    <glyph glyph-name="Eacute" unicode="&#xc9;" horiz-adv-x="967" 
d="M-20 0l313 1475h731l-35 -162h-536l-99 -465h510l-35 -162h-510l-110 -522h551l-35 -164h-745zM645 1609h-121l231 348h191z" />
    <glyph glyph-name="Ecircumflex" unicode="&#xca;" horiz-adv-x="967" 
d="M-20 0l313 1475h731l-35 -162h-536l-99 -465h510l-35 -162h-510l-110 -522h551l-35 -164h-745zM950 1609h-109l-133 219l-225 -219h-121l266 348h185z" />
    <glyph glyph-name="Edieresis" unicode="&#xcb;" horiz-adv-x="967" 
d="M-20 0l313 1475h731l-35 -162h-536l-99 -465h510l-35 -162h-510l-110 -522h551l-35 -164h-745zM747 1669l43 209h183l-43 -209h-183zM418 1669l43 209h182l-43 -209h-182z" />
    <glyph glyph-name="Igrave" unicode="&#xcc;" horiz-adv-x="496" 
d="M-6 0l313 1475h195l-314 -1475h-194zM574 1609h-109l-301 348h199z" />
    <glyph glyph-name="Iacute" unicode="&#xcd;" horiz-adv-x="496" 
d="M-6 0l313 1475h195l-314 -1475h-194zM410 1609h-121l231 348h191z" />
    <glyph glyph-name="Icircumflex" unicode="&#xce;" horiz-adv-x="496" 
d="M-6 0l313 1475h195l-314 -1475h-194zM715 1609h-109l-133 219l-225 -219h-121l266 348h185z" />
    <glyph glyph-name="Idieresis" unicode="&#xcf;" horiz-adv-x="496" 
d="M-6 0l313 1475h195l-314 -1475h-194zM512 1669l43 209h183l-43 -209h-183zM183 1669l43 209h182l-43 -209h-182z" />
    <glyph glyph-name="Eth" unicode="&#xd0;" horiz-adv-x="1186" 
d="M223 162l162.001 0.00292969c122 0 206.167 12.667 252.5 38s87.166 73.333 122.499 144c16.667 35.333 33.667 83.333 51 144s34.333 133 51 217c16 83.333 28.167 158.166 36.5 224.499s12.5 121.166 12.5 164.499c0 83.333 -17 140.666 -51 171.999s-98 47 -192 47
h-201l-98 -461h278l-31 -143h-278zM-5.99902 0.00292969l150.997 709h-172l31 143h172l131 623h373c154 0 265.167 -29.5 333.5 -88.5s102.5 -153.833 102.5 -284.5c0 -42.667 -3.66699 -94.167 -11 -154.5s-18.666 -129.833 -33.999 -208.5
c-19.333 -104 -40.666 -196.333 -63.999 -277s-47.666 -146 -72.999 -196c-52.667 -100 -116.5 -169.333 -191.5 -208s-191.5 -58 -349.5 -58h-399z" />
    <glyph glyph-name="Ntilde" unicode="&#xd1;" horiz-adv-x="1298" 
d="M-12 0l312.999 1475h311l195 -1106c1.33301 -8 4.83301 -42.333 10.5 -103s10.167 -111 13.5 -151h13c12.667 72 30.334 159 53.001 261l2 11l229 1088h183l-314 -1475h-307l-196 1105c-6.66699 34.667 -12 73.667 -16 117s-7 91.333 -9 144h-14
c-16 -84.667 -44.667 -226.667 -86 -426l-4 -22l-195 -918h-182zM1166 1896c-16.667 -70.667 -40.665 -122.5 -71.998 -155.5s-71.666 -49.5 -120.999 -49.5c-10.667 0 -20.334 0.666992 -29.001 2s-16.667 3.33301 -24 6l-80 29c-8.66699 2.66699 -17.167 4.66699 -25.5 6
s-16.833 2 -25.5 2c-22 0 -40 -6.5 -54 -19.5s-23.333 -31.5 -28 -55.5l-94 -1c15.333 68.667 38.333 120 69 154s69.667 51 117 51c10.667 0 21.5 -0.833008 32.5 -2.5s21.833 -4.16699 32.5 -7.5l80 -27c6.66699 -2 14.167 -3.83301 22.5 -5.5s15.833 -2.5 22.5 -2.5
c21.333 0 38.166 5.83301 50.499 17.5s22.166 31.167 29.499 58.5h97z" />
    <glyph glyph-name="Ograve" unicode="&#xd2;" horiz-adv-x="1180" 
d="M55 369c0 46.667 6.66699 110.666 20 191.999s32.666 177.666 57.999 288.999c22 94.667 44.333 176.834 67 246.501s42.667 119.167 60 148.5c50 87.333 112.167 151.5 186.5 192.5s165.166 61.5 272.499 61.5c132 0 232.5 -33.167 301.5 -99.5
s103.5 -163.5 103.5 -291.5c0 -46 -6.33301 -109 -19 -189s-33 -182.333 -61 -307c-19.333 -88 -39.666 -164.167 -60.999 -228.5s-42.333 -115.166 -63 -152.499c-50 -86.667 -112.667 -151 -188 -193s-165.666 -63 -270.999 -63c-132 0 -232.667 33.667 -302 101
s-104 165 -104 293zM705 1333c-64 0 -117.501 -12.165 -160.501 -36.498s-80.5 -63.833 -112.5 -118.5c-12.667 -23.333 -27.667 -61.833 -45 -115.5s-33.666 -114.167 -48.999 -181.5c-32.667 -144.667 -55.834 -255.834 -69.501 -333.501s-20.5 -133.834 -20.5 -168.501
c0 -78.667 18.833 -138 56.5 -178s93.834 -60 168.501 -60c63.333 0 117 12.667 161 38s82 65.333 114 120c16 29.333 31.667 68.5 47 117.5s31 108.833 47 179.5c36 160.667 60 275 72 343s18 119.667 18 155c0 80.667 -18.667 140.667 -56 180s-94.333 59 -171 59z
M915.999 1609h-109l-301 348h199z" />
    <glyph glyph-name="Oacute" unicode="&#xd3;" horiz-adv-x="1180" 
d="M55 369c0 46.667 6.66699 110.666 20 191.999s32.666 177.666 57.999 288.999c22 94.667 44.333 176.834 67 246.501s42.667 119.167 60 148.5c50 87.333 112.167 151.5 186.5 192.5s165.166 61.5 272.499 61.5c132 0 232.5 -33.167 301.5 -99.5
s103.5 -163.5 103.5 -291.5c0 -46 -6.33301 -109 -19 -189s-33 -182.333 -61 -307c-19.333 -88 -39.666 -164.167 -60.999 -228.5s-42.333 -115.166 -63 -152.499c-50 -86.667 -112.667 -151 -188 -193s-165.666 -63 -270.999 -63c-132 0 -232.667 33.667 -302 101
s-104 165 -104 293zM705 1333c-64 0 -117.501 -12.165 -160.501 -36.498s-80.5 -63.833 -112.5 -118.5c-12.667 -23.333 -27.667 -61.833 -45 -115.5s-33.666 -114.167 -48.999 -181.5c-32.667 -144.667 -55.834 -255.834 -69.501 -333.501s-20.5 -133.834 -20.5 -168.501
c0 -78.667 18.833 -138 56.5 -178s93.834 -60 168.501 -60c63.333 0 117 12.667 161 38s82 65.333 114 120c16 29.333 31.667 68.5 47 117.5s31 108.833 47 179.5c36 160.667 60 275 72 343s18 119.667 18 155c0 80.667 -18.667 140.667 -56 180s-94.333 59 -171 59z
M751.999 1609h-121l231 348h191z" />
    <glyph glyph-name="Ocircumflex" unicode="&#xd4;" horiz-adv-x="1180" 
d="M55 369c0 46.667 6.66699 110.666 20 191.999s32.666 177.666 57.999 288.999c22 94.667 44.333 176.834 67 246.501s42.667 119.167 60 148.5c50 87.333 112.167 151.5 186.5 192.5s165.166 61.5 272.499 61.5c132 0 232.5 -33.167 301.5 -99.5
s103.5 -163.5 103.5 -291.5c0 -46 -6.33301 -109 -19 -189s-33 -182.333 -61 -307c-19.333 -88 -39.666 -164.167 -60.999 -228.5s-42.333 -115.166 -63 -152.499c-50 -86.667 -112.667 -151 -188 -193s-165.666 -63 -270.999 -63c-132 0 -232.667 33.667 -302 101
s-104 165 -104 293zM705 1333c-64 0 -117.501 -12.165 -160.501 -36.498s-80.5 -63.833 -112.5 -118.5c-12.667 -23.333 -27.667 -61.833 -45 -115.5s-33.666 -114.167 -48.999 -181.5c-32.667 -144.667 -55.834 -255.834 -69.501 -333.501s-20.5 -133.834 -20.5 -168.501
c0 -78.667 18.833 -138 56.5 -178s93.834 -60 168.501 -60c63.333 0 117 12.667 161 38s82 65.333 114 120c16 29.333 31.667 68.5 47 117.5s31 108.833 47 179.5c36 160.667 60 275 72 343s18 119.667 18 155c0 80.667 -18.667 140.667 -56 180s-94.333 59 -171 59z
M1057 1609h-109l-133 219l-225 -219h-121l266 348h185z" />
    <glyph glyph-name="Otilde" unicode="&#xd5;" horiz-adv-x="1180" 
d="M55 369c0 46.667 6.66699 110.666 20 191.999s32.666 177.666 57.999 288.999c22 94.667 44.333 176.834 67 246.501s42.667 119.167 60 148.5c50 87.333 112.167 151.5 186.5 192.5s165.166 61.5 272.499 61.5c132 0 232.5 -33.167 301.5 -99.5
s103.5 -163.5 103.5 -291.5c0 -46 -6.33301 -109 -19 -189s-33 -182.333 -61 -307c-19.333 -88 -39.666 -164.167 -60.999 -228.5s-42.333 -115.166 -63 -152.499c-50 -86.667 -112.667 -151 -188 -193s-165.666 -63 -270.999 -63c-132 0 -232.667 33.667 -302 101
s-104 165 -104 293zM705 1333c-64 0 -117.501 -12.165 -160.501 -36.498s-80.5 -63.833 -112.5 -118.5c-12.667 -23.333 -27.667 -61.833 -45 -115.5s-33.666 -114.167 -48.999 -181.5c-32.667 -144.667 -55.834 -255.834 -69.501 -333.501s-20.5 -133.834 -20.5 -168.501
c0 -78.667 18.833 -138 56.5 -178s93.834 -60 168.501 -60c63.333 0 117 12.667 161 38s82 65.333 114 120c16 29.333 31.667 68.5 47 117.5s31 108.833 47 179.5c36 160.667 60 275 72 343s18 119.667 18 155c0 80.667 -18.667 140.667 -56 180s-94.333 59 -171 59z
M1080 1896c-16.667 -70.667 -40.665 -122.5 -71.998 -155.5s-71.666 -49.5 -120.999 -49.5c-10.667 0 -20.334 0.666992 -29.001 2s-16.667 3.33301 -24 6l-80 29c-8.66699 2.66699 -17.167 4.66699 -25.5 6s-16.833 2 -25.5 2c-22 0 -40 -6.5 -54 -19.5
s-23.333 -31.5 -28 -55.5l-94 -1c15.333 68.667 38.333 120 69 154s69.667 51 117 51c10.667 0 21.5 -0.833008 32.5 -2.5s21.833 -4.16699 32.5 -7.5l80 -27c6.66699 -2 14.167 -3.83301 22.5 -5.5s15.833 -2.5 22.5 -2.5c21.333 0 38.166 5.83301 50.499 17.5
s22.166 31.167 29.499 58.5h97z" />
    <glyph glyph-name="Odieresis" unicode="&#xd6;" horiz-adv-x="1180" 
d="M55 369c0 46.667 6.66699 110.666 20 191.999s32.666 177.666 57.999 288.999c22 94.667 44.333 176.834 67 246.501s42.667 119.167 60 148.5c50 87.333 112.167 151.5 186.5 192.5s165.166 61.5 272.499 61.5c132 0 232.5 -33.167 301.5 -99.5
s103.5 -163.5 103.5 -291.5c0 -46 -6.33301 -109 -19 -189s-33 -182.333 -61 -307c-19.333 -88 -39.666 -164.167 -60.999 -228.5s-42.333 -115.166 -63 -152.499c-50 -86.667 -112.667 -151 -188 -193s-165.666 -63 -270.999 -63c-132 0 -232.667 33.667 -302 101
s-104 165 -104 293zM705 1333c-64 0 -117.501 -12.165 -160.501 -36.498s-80.5 -63.833 -112.5 -118.5c-12.667 -23.333 -27.667 -61.833 -45 -115.5s-33.666 -114.167 -48.999 -181.5c-32.667 -144.667 -55.834 -255.834 -69.501 -333.501s-20.5 -133.834 -20.5 -168.501
c0 -78.667 18.833 -138 56.5 -178s93.834 -60 168.501 -60c63.333 0 117 12.667 161 38s82 65.333 114 120c16 29.333 31.667 68.5 47 117.5s31 108.833 47 179.5c36 160.667 60 275 72 343s18 119.667 18 155c0 80.667 -18.667 140.667 -56 180s-94.333 59 -171 59z
M853.999 1669l43 209h183l-43 -209h-183zM524.999 1669l43 209h182l-43 -209h-182z" />
    <glyph glyph-name="multiply" unicode="&#xd7;" horiz-adv-x="1706" 
d="M858 692l475 477l82 -82l-475 -477l475 -475l-82 -82l-475 475l-477 -475l-80 82l475 475l-475 477l80 82z" />
    <glyph glyph-name="Oslash" unicode="&#xd8;" horiz-adv-x="1180" 
d="M932 1120l-663.999 -862c12.667 -37.333 36.667 -65.833 72 -85.5s80.333 -29.5 135 -29.5c74 0 136 18.5 186 55.5s88.333 92.5 115 166.5c37.333 102 69.666 218.5 96.999 349.5s47 266.167 59 405.5zM250.001 385l653.001 852c-18 32 -43.167 55.667 -75.5 71
s-73.166 23 -122.499 23c-75.333 0 -137.833 -18 -187.5 -54s-87.834 -91 -114.501 -165c-34 -94.667 -64.333 -204.5 -91 -329.5s-47.334 -257.5 -62.001 -397.5zM-60.998 -18l148.998 193.996c-11.333 25.333 -19.666 52.5 -24.999 81.5s-8 60.5 -8 94.5
c0 34.667 2.66699 75.334 8 122.001s13.666 101 24.999 163c19.333 106.667 40.333 204.334 63 293.001s46 165 70 229c40.667 112.667 102.834 197.167 186.501 253.5s188.167 84.5 313.5 84.5c64 0 120.5 -8.5 169.5 -25.5s93.5 -43.167 133.5 -78.5l119 155l76 -55
l-138 -178c14.667 -30 25.5 -61 32.5 -93s10.5 -66 10.5 -102c0 -34 -2.5 -72.667 -7.5 -116s-12.5 -92.666 -22.5 -147.999c-22 -120 -43.833 -224.167 -65.5 -312.5s-44.167 -163.166 -67.5 -224.499c-43.333 -114 -106.666 -199.5 -189.999 -256.5
s-187.333 -85.5 -312 -85.5c-67.333 0 -126.5 9.5 -177.5 28.5s-97.167 48.5 -138.5 88.5l-129 -168z" />
    <glyph glyph-name="Ugrave" unicode="&#xd9;" horiz-adv-x="1180" 
d="M283 1475l193.999 0.000976562l-215 -1019c-6 -30 -10.167 -53.667 -12.5 -71s-3.5 -32.333 -3.5 -45c0 -65.333 20.5 -115.833 61.5 -151.5s98.833 -53.5 173.5 -53.5c86.667 0 155.667 26.667 207 80s89 136.666 113 249.999l213 1010h194l-215 -1008
c-38 -177.333 -98.167 -304 -180.5 -380s-200.166 -114 -353.499 -114c-123.333 0 -222.5 31.667 -297.5 95s-112.5 146.333 -112.5 249c0 19.333 1.66699 41.5 5 66.5s8 51.5 14 79.5zM915.999 1609h-109l-301 348h199z" />
    <glyph glyph-name="Uacute" unicode="&#xda;" horiz-adv-x="1180" 
d="M283 1475l193.999 0.000976562l-215 -1019c-6 -30 -10.167 -53.667 -12.5 -71s-3.5 -32.333 -3.5 -45c0 -65.333 20.5 -115.833 61.5 -151.5s98.833 -53.5 173.5 -53.5c86.667 0 155.667 26.667 207 80s89 136.666 113 249.999l213 1010h194l-215 -1008
c-38 -177.333 -98.167 -304 -180.5 -380s-200.166 -114 -353.499 -114c-123.333 0 -222.5 31.667 -297.5 95s-112.5 146.333 -112.5 249c0 19.333 1.66699 41.5 5 66.5s8 51.5 14 79.5zM751.999 1609h-121l231 348h191z" />
    <glyph glyph-name="Ucircumflex" unicode="&#xdb;" horiz-adv-x="1180" 
d="M283 1475l193.999 0.000976562l-215 -1019c-6 -30 -10.167 -53.667 -12.5 -71s-3.5 -32.333 -3.5 -45c0 -65.333 20.5 -115.833 61.5 -151.5s98.833 -53.5 173.5 -53.5c86.667 0 155.667 26.667 207 80s89 136.666 113 249.999l213 1010h194l-215 -1008
c-38 -177.333 -98.167 -304 -180.5 -380s-200.166 -114 -353.499 -114c-123.333 0 -222.5 31.667 -297.5 95s-112.5 146.333 -112.5 249c0 19.333 1.66699 41.5 5 66.5s8 51.5 14 79.5zM1057 1609h-109l-133 219l-225 -219h-121l266 348h185z" />
    <glyph glyph-name="Udieresis" unicode="&#xdc;" horiz-adv-x="1180" 
d="M283 1475l193.999 0.000976562l-215 -1019c-6 -30 -10.167 -53.667 -12.5 -71s-3.5 -32.333 -3.5 -45c0 -65.333 20.5 -115.833 61.5 -151.5s98.833 -53.5 173.5 -53.5c86.667 0 155.667 26.667 207 80s89 136.666 113 249.999l213 1010h194l-215 -1008
c-38 -177.333 -98.167 -304 -180.5 -380s-200.166 -114 -353.499 -114c-123.333 0 -222.5 31.667 -297.5 95s-112.5 146.333 -112.5 249c0 19.333 1.66699 41.5 5 66.5s8 51.5 14 79.5zM853.999 1669l43 209h183l-43 -209h-183zM524.999 1669l43 209h182l-43 -209h-182z" />
    <glyph glyph-name="Yacute" unicode="&#xdd;" horiz-adv-x="958" 
d="M219 0l125 584l-233 891h196l170 -676l453 676h213l-604 -889l-125 -586h-195zM641 1609h-121l231 348h191z" />
    <glyph glyph-name="Thorn" unicode="&#xde;" horiz-adv-x="1071" 
d="M281 508h174c125.333 0 214 26.333 266 79s78 141 78 265c0 62.667 -18 107 -54 133s-98.667 39 -188 39h-168zM-12 0l313 1475h184l-61 -289h119c173.333 0 292 -23.167 356 -69.5s96 -127.833 96 -244.5c0 -75.333 -9.5 -145.333 -28.5 -210s-46.167 -120 -81.5 -166
c-41.333 -52.667 -97.833 -90.5 -169.5 -113.5s-174.167 -34.5 -307.5 -34.5h-162l-74 -348h-184z" />
    <glyph glyph-name="germandbls" unicode="&#xdf;" horiz-adv-x="1049" 
d="M-35 0l234 1100c29.333 139.333 76.666 238.666 141.999 297.999s159.333 89 282 89c108.667 0 192.167 -22.5 250.5 -67.5s87.5 -109.167 87.5 -192.5c0 -58 -10.167 -106.167 -30.5 -144.5s-55.5 -74.833 -105.5 -109.5c-16.667 -12.667 -40 -28.667 -70 -48
c-72 -47.333 -108 -88 -108 -122c0 -15.333 7.16699 -35.166 21.5 -59.499s34.5 -51.5 60.5 -81.5l29 -34c92.667 -107.333 139 -206 139 -296c0 -109.333 -31.167 -195 -93.5 -257s-147.833 -93 -256.5 -93c-83.333 0 -146.833 17.667 -190.5 53s-65.5 86.333 -65.5 153
c0 14 0.666992 27.667 2 41s3.33301 26.333 6 39h166c-2 -10.667 -3.5 -20.5 -4.5 -29.5s-1.5 -16.833 -1.5 -23.5c0 -30.667 8.83301 -54.334 26.5 -71.001s42.834 -25 75.501 -25c49.333 0 87.666 17.333 114.999 52s41 83.334 41 146.001c0 67.333 -27 132 -81 194
l-12 14c-64 76 -105.5 132 -124.5 168s-28.5 70.667 -28.5 104s9.83301 65.666 29.5 96.999s50.167 62.333 91.5 93c14 10.667 34.667 25 62 43c88 57.333 132 120.333 132 189c0 43.333 -14.167 76.333 -42.5 99s-69.166 34 -122.499 34c-72.667 0 -127 -19.667 -163 -59
s-69.333 -131.666 -100 -276.999l-217 -1016h-176z" />
    <glyph glyph-name="agrave" unicode="&#xe0;" horiz-adv-x="944" 
d="M545 160c-39.333 -57.333 -83.168 -99.999 -131.501 -127.999s-102.833 -42 -163.5 -42c-83.333 0 -148.833 24.333 -196.5 73s-71.5 115 -71.5 199c0 136.667 43.833 237 131.5 301s225.167 96 412.5 96c22 0 57 -1 105 -3l6 -1c6 30.667 10.167 56.5 12.5 77.5
s3.5 40.5 3.5 58.5c0 42.667 -14.167 75.167 -42.5 97.5s-70.166 33.5 -125.499 33.5s-98.833 -13.667 -130.5 -41s-51.5 -68.333 -59.5 -123h-189c20.667 101.333 61 175.833 121 223.5s144.667 71.5 254 71.5c118 0 205.5 -21.667 262.5 -65s85.5 -109 85.5 -197
c0 -24 -2 -51.333 -6 -82s-10 -65.667 -18 -105l-84 -395c-8 -35.333 -14.333 -70.333 -19 -105s-8 -69.334 -10 -104.001h-174zM611.998 532.001l-43 -0.000976562c-141.333 0 -245.166 -20.333 -311.499 -61s-99.5 -104 -99.5 -190c0 -46 12.833 -82.167 38.5 -108.5
s61.167 -39.5 106.5 -39.5c81.333 0 148.166 33.833 200.499 101.5s88.5 166.834 108.5 297.501zM675.998 1163h-109l-301 348h199z" />
    <glyph glyph-name="aacute" unicode="&#xe1;" horiz-adv-x="944" 
d="M545 160c-39.333 -57.333 -83.168 -99.999 -131.501 -127.999s-102.833 -42 -163.5 -42c-83.333 0 -148.833 24.333 -196.5 73s-71.5 115 -71.5 199c0 136.667 43.833 237 131.5 301s225.167 96 412.5 96c22 0 57 -1 105 -3l6 -1c6 30.667 10.167 56.5 12.5 77.5
s3.5 40.5 3.5 58.5c0 42.667 -14.167 75.167 -42.5 97.5s-70.166 33.5 -125.499 33.5s-98.833 -13.667 -130.5 -41s-51.5 -68.333 -59.5 -123h-189c20.667 101.333 61 175.833 121 223.5s144.667 71.5 254 71.5c118 0 205.5 -21.667 262.5 -65s85.5 -109 85.5 -197
c0 -24 -2 -51.333 -6 -82s-10 -65.667 -18 -105l-84 -395c-8 -35.333 -14.333 -70.333 -19 -105s-8 -69.334 -10 -104.001h-174zM611.998 532.001l-43 -0.000976562c-141.333 0 -245.166 -20.333 -311.499 -61s-99.5 -104 -99.5 -190c0 -46 12.833 -82.167 38.5 -108.5
s61.167 -39.5 106.5 -39.5c81.333 0 148.166 33.833 200.499 101.5s88.5 166.834 108.5 297.501zM511.998 1163h-121l231 348h191z" />
    <glyph glyph-name="acircumflex" unicode="&#xe2;" horiz-adv-x="944" 
d="M545 160c-39.333 -57.333 -83.168 -99.999 -131.501 -127.999s-102.833 -42 -163.5 -42c-83.333 0 -148.833 24.333 -196.5 73s-71.5 115 -71.5 199c0 136.667 43.833 237 131.5 301s225.167 96 412.5 96c22 0 57 -1 105 -3l6 -1c6 30.667 10.167 56.5 12.5 77.5
s3.5 40.5 3.5 58.5c0 42.667 -14.167 75.167 -42.5 97.5s-70.166 33.5 -125.499 33.5s-98.833 -13.667 -130.5 -41s-51.5 -68.333 -59.5 -123h-189c20.667 101.333 61 175.833 121 223.5s144.667 71.5 254 71.5c118 0 205.5 -21.667 262.5 -65s85.5 -109 85.5 -197
c0 -24 -2 -51.333 -6 -82s-10 -65.667 -18 -105l-84 -395c-8 -35.333 -14.333 -70.333 -19 -105s-8 -69.334 -10 -104.001h-174zM611.998 532.001l-43 -0.000976562c-141.333 0 -245.166 -20.333 -311.499 -61s-99.5 -104 -99.5 -190c0 -46 12.833 -82.167 38.5 -108.5
s61.167 -39.5 106.5 -39.5c81.333 0 148.166 33.833 200.499 101.5s88.5 166.834 108.5 297.501zM816.998 1163h-109l-133 219l-225 -219h-121l266 348h185z" />
    <glyph glyph-name="atilde" unicode="&#xe3;" horiz-adv-x="944" 
d="M545 160c-39.333 -57.333 -83.168 -99.999 -131.501 -127.999s-102.833 -42 -163.5 -42c-83.333 0 -148.833 24.333 -196.5 73s-71.5 115 -71.5 199c0 136.667 43.833 237 131.5 301s225.167 96 412.5 96c22 0 57 -1 105 -3l6 -1c6 30.667 10.167 56.5 12.5 77.5
s3.5 40.5 3.5 58.5c0 42.667 -14.167 75.167 -42.5 97.5s-70.166 33.5 -125.499 33.5s-98.833 -13.667 -130.5 -41s-51.5 -68.333 -59.5 -123h-189c20.667 101.333 61 175.833 121 223.5s144.667 71.5 254 71.5c118 0 205.5 -21.667 262.5 -65s85.5 -109 85.5 -197
c0 -24 -2 -51.333 -6 -82s-10 -65.667 -18 -105l-84 -395c-8 -35.333 -14.333 -70.333 -19 -105s-8 -69.334 -10 -104.001h-174zM611.998 532.001l-43 -0.000976562c-141.333 0 -245.166 -20.333 -311.499 -61s-99.5 -104 -99.5 -190c0 -46 12.833 -82.167 38.5 -108.5
s61.167 -39.5 106.5 -39.5c81.333 0 148.166 33.833 200.499 101.5s88.5 166.834 108.5 297.501zM839.998 1450c-16.667 -70.667 -40.665 -122.5 -71.998 -155.5s-71.666 -49.5 -120.999 -49.5c-10.667 0 -20.334 0.666992 -29.001 2s-16.667 3.33301 -24 6l-80 29
c-8.66699 2.66699 -17.167 4.66699 -25.5 6s-16.833 2 -25.5 2c-22 0 -40 -6.5 -54 -19.5s-23.333 -31.5 -28 -55.5l-94 -1c15.333 68.667 38.333 120 69 154s69.667 51 117 51c10.667 0 21.5 -0.833008 32.5 -2.5s21.833 -4.16699 32.5 -7.5l80 -27
c6.66699 -2 14.167 -3.83301 22.5 -5.5s15.833 -2.5 22.5 -2.5c21.333 0 38.166 5.83301 50.499 17.5s22.166 31.167 29.499 58.5h97z" />
    <glyph glyph-name="adieresis" unicode="&#xe4;" horiz-adv-x="944" 
d="M545 160c-39.333 -57.333 -83.168 -99.999 -131.501 -127.999s-102.833 -42 -163.5 -42c-83.333 0 -148.833 24.333 -196.5 73s-71.5 115 -71.5 199c0 136.667 43.833 237 131.5 301s225.167 96 412.5 96c22 0 57 -1 105 -3l6 -1c6 30.667 10.167 56.5 12.5 77.5
s3.5 40.5 3.5 58.5c0 42.667 -14.167 75.167 -42.5 97.5s-70.166 33.5 -125.499 33.5s-98.833 -13.667 -130.5 -41s-51.5 -68.333 -59.5 -123h-189c20.667 101.333 61 175.833 121 223.5s144.667 71.5 254 71.5c118 0 205.5 -21.667 262.5 -65s85.5 -109 85.5 -197
c0 -24 -2 -51.333 -6 -82s-10 -65.667 -18 -105l-84 -395c-8 -35.333 -14.333 -70.333 -19 -105s-8 -69.334 -10 -104.001h-174zM611.998 532.001l-43 -0.000976562c-141.333 0 -245.166 -20.333 -311.499 -61s-99.5 -104 -99.5 -190c0 -46 12.833 -82.167 38.5 -108.5
s61.167 -39.5 106.5 -39.5c81.333 0 148.166 33.833 200.499 101.5s88.5 166.834 108.5 297.501zM613.998 1223l43 209h183l-43 -209h-183zM284.998 1223l43 209h182l-43 -209h-182z" />
    <glyph glyph-name="aring" unicode="&#xe5;" horiz-adv-x="944" 
d="M342 1337c0 62.667 21.833 115.665 65.5 158.998s96.834 65 159.501 65c64 0 117.333 -21.333 160 -64s64 -96 64 -160c0 -63.333 -21.5 -116.666 -64.5 -159.999s-96.167 -65 -159.5 -65c-62.667 0 -115.834 21.833 -159.501 65.5s-65.5 96.834 -65.5 159.501zM444 1337
c0 -33.333 12.001 -62.166 36.001 -86.499s52.333 -36.5 85 -36.5c34 0 63 12.167 87 36.5s36 53.166 36 86.499c0 34.667 -11.833 63.5 -35.5 86.5s-52.834 34.5 -87.501 34.5c-34 0 -62.667 -11.5 -86 -34.5s-35 -51.833 -35 -86.5zM612.001 531.998l-43 -0.000976562
c-141.333 0 -245.166 -20.333 -311.499 -61s-99.5 -104 -99.5 -190c0 -46 12.833 -82.167 38.5 -108.5s61.167 -39.5 106.5 -39.5c81.333 0 148.166 33.833 200.499 101.5s88.5 166.834 108.5 297.501zM545.001 159.997c-39.333 -57.333 -83.168 -99.999 -131.501 -127.999
s-102.833 -42 -163.5 -42c-83.333 0 -148.833 24.333 -196.5 73s-71.5 115 -71.5 199c0 136.667 43.833 237 131.5 301s225.167 96 412.5 96c22 0 57 -1 105 -3l6 -1c6 30.667 10.167 56.5 12.5 77.5s3.5 40.5 3.5 58.5c0 42.667 -14.167 75.167 -42.5 97.5
s-70.166 33.5 -125.499 33.5s-98.833 -13.667 -130.5 -41s-51.5 -68.333 -59.5 -123h-189c20.667 101.333 61 175.833 121 223.5s144.667 71.5 254 71.5c118 0 205.5 -21.667 262.5 -65s85.5 -109 85.5 -197c0 -24 -2 -51.333 -6 -82s-10 -65.667 -18 -105l-84 -395
c-8 -35.333 -14.333 -70.333 -19 -105s-8 -69.334 -10 -104.001h-174z" />
    <glyph glyph-name="ae" unicode="&#xe6;" horiz-adv-x="1509" 
d="M803 612l409 -0.000976562c4 24 6.83301 44.833 8.5 62.5s2.5 33.167 2.5 46.5c0 64.667 -14 113.167 -42 145.5s-70 48.5 -126 48.5c-68.667 0 -122.167 -22.667 -160.5 -68s-68.833 -123.666 -91.5 -234.999zM606 161.999
c-49.333 -60 -103.506 -104.666 -162.506 -133.999s-123.5 -44 -193.5 -44c-82.667 0 -148 22.667 -196 68s-72 107.333 -72 186c0 118.667 42.333 210.667 127 276s204.667 98 360 98h162c7.33301 40.667 12.833 75.5 16.5 104.5s5.5 52.833 5.5 71.5
c0 43.333 -14.167 76.166 -42.5 98.499s-70.166 33.5 -125.499 33.5s-98.5 -13.333 -129.5 -40s-51.167 -68 -60.5 -124h-189c20.667 102 61.334 176.667 122.001 224s146.334 71 257.001 71c86 0 152.333 -10.5 199 -31.5s76 -53.5 88 -97.5
c30 45.333 68.833 79.166 116.5 101.499s105.167 33.5 172.5 33.5c110.667 0 195 -28.5 253 -85.5s87 -139.833 87 -248.5c0 -25.333 -2.66699 -57.166 -8 -95.499s-13.666 -85.833 -24.999 -142.5h-594c-7.33301 -35.333 -12.833 -68.666 -16.5 -99.999
s-5.5 -61.333 -5.5 -90c0 -58 15.833 -101.167 47.5 -129.5s79.834 -42.5 144.501 -42.5c50.667 0 92.334 17.167 125.001 51.5s58 87.5 76 159.5h184c-25.333 -122.667 -71.333 -212.334 -138 -269.001s-158.667 -85 -276 -85c-77.333 0 -141.5 15 -192.5 45
s-89.833 75.667 -116.5 137zM601.994 485l-81.999 0.000976562c-122 0 -213.5 -19.333 -274.5 -58s-91.5 -96.334 -91.5 -173.001c0 -43.333 12.167 -76.666 36.5 -99.999s59.166 -35 104.499 -35c82 0 149.167 31.167 201.5 93.5s87.5 153.166 105.5 272.499z" />
    <glyph glyph-name="ccedilla" unicode="&#xe7;" horiz-adv-x="891" 
d="M739 336c-17.333 -122.667 -59.668 -213.497 -127.001 -272.497s-162 -88.5 -284 -88.5c-96 0 -171.333 28.833 -226 86.5s-82 136.834 -82 237.501c0 30 3.16699 67.5 9.5 112.5s15.5 95.5 27.5 151.5c15.333 69.333 30.5 128.5 45.5 177.5s29.833 86.833 44.5 113.5
c36.667 67.333 83.834 117.333 141.501 150s127.5 49 209.5 49c101.333 0 178.166 -24.667 230.499 -74s78.5 -121 78.5 -215c0 -7.33301 -0.333008 -15.833 -1 -25.5l-3 -41.5l-176 -1v5c2.66699 24 4 41.667 4 53c0 52.667 -12.167 92 -36.5 118s-60.833 39 -109.5 39
c-39.333 0 -73.333 -9.83301 -102 -29.5s-53.334 -50.834 -74.001 -93.501c-11.333 -22.667 -23.166 -54.5 -35.499 -95.5s-24.833 -90.833 -37.5 -149.5c-13.333 -56.667 -23.166 -106.834 -29.499 -150.501s-9.5 -78.834 -9.5 -105.501
c0 -56.667 13.333 -98.834 40 -126.501s67 -41.5 121 -41.5c56.667 0 101.5 17.833 134.5 53.5s55.167 90.167 66.5 163.5h180zM9.99805 -421.997l37 97.999c53.333 -15.333 96.666 -26.666 129.999 -33.999s60.333 -11 81 -11c48 0 82.833 7.83301 104.5 23.5
s32.5 40.834 32.5 75.501c0 28.667 -13.333 49.167 -40 61.5s-72.667 18.5 -138 18.5h-23l66 190h78l-35 -102h22c70.667 0 123.834 -14 159.501 -42s53.5 -69.333 53.5 -124c0 -66 -21.5 -116.667 -64.5 -152s-104.5 -53 -184.5 -53c-32 0 -70.5 4.16699 -115.5 12.5
s-99.5 21.166 -163.5 38.499z" />
    <glyph glyph-name="egrave" unicode="&#xe8;" horiz-adv-x="952" 
d="M772 330c-25.333 -122 -71.501 -211.664 -138.501 -268.997s-158.833 -86 -275.5 -86c-106.667 0 -190.334 28.5 -251.001 85.5s-91 135.833 -91 236.5c0 31.333 3.16699 69.166 9.5 113.499s15.5 95.166 27.5 152.499c14 64.667 28.833 121.667 44.5 171
s31.5 88.666 47.5 117.999c39.333 70 87.333 121 144 153s127.667 48 213 48c111.333 0 196.166 -28.5 254.499 -85.5s87.5 -139.833 87.5 -248.5c0 -25.333 -2.66699 -57.166 -8 -95.499s-13.666 -85.833 -24.999 -142.5h-594c-7.33301 -35.333 -12.833 -68.5 -16.5 -99.5
s-5.5 -60.5 -5.5 -88.5c0 -58.667 15.833 -102.334 47.5 -131.001s79.834 -43 144.501 -43c50.667 0 92.334 17.167 125.001 51.5s58 87.5 76 159.5h184zM245.999 608.003h409c4 24 6.83301 44.833 8.5 62.5s2.5 33.167 2.5 46.5c0 64.667 -14 113.167 -42 145.5
s-70 48.5 -126 48.5c-68 0 -121 -22.5 -159 -67.5s-69 -123.5 -93 -235.5zM685.999 1163h-109l-301 348h199z" />
    <glyph glyph-name="eacute" unicode="&#xe9;" horiz-adv-x="952" 
d="M772 330c-25.333 -122 -71.501 -211.664 -138.501 -268.997s-158.833 -86 -275.5 -86c-106.667 0 -190.334 28.5 -251.001 85.5s-91 135.833 -91 236.5c0 31.333 3.16699 69.166 9.5 113.499s15.5 95.166 27.5 152.499c14 64.667 28.833 121.667 44.5 171
s31.5 88.666 47.5 117.999c39.333 70 87.333 121 144 153s127.667 48 213 48c111.333 0 196.166 -28.5 254.499 -85.5s87.5 -139.833 87.5 -248.5c0 -25.333 -2.66699 -57.166 -8 -95.499s-13.666 -85.833 -24.999 -142.5h-594c-7.33301 -35.333 -12.833 -68.5 -16.5 -99.5
s-5.5 -60.5 -5.5 -88.5c0 -58.667 15.833 -102.334 47.5 -131.001s79.834 -43 144.501 -43c50.667 0 92.334 17.167 125.001 51.5s58 87.5 76 159.5h184zM245.999 608.003h409c4 24 6.83301 44.833 8.5 62.5s2.5 33.167 2.5 46.5c0 64.667 -14 113.167 -42 145.5
s-70 48.5 -126 48.5c-68 0 -121 -22.5 -159 -67.5s-69 -123.5 -93 -235.5zM521.999 1163h-121l231 348h191z" />
    <glyph glyph-name="ecircumflex" unicode="&#xea;" horiz-adv-x="952" 
d="M772 330c-25.333 -122 -71.501 -211.664 -138.501 -268.997s-158.833 -86 -275.5 -86c-106.667 0 -190.334 28.5 -251.001 85.5s-91 135.833 -91 236.5c0 31.333 3.16699 69.166 9.5 113.499s15.5 95.166 27.5 152.499c14 64.667 28.833 121.667 44.5 171
s31.5 88.666 47.5 117.999c39.333 70 87.333 121 144 153s127.667 48 213 48c111.333 0 196.166 -28.5 254.499 -85.5s87.5 -139.833 87.5 -248.5c0 -25.333 -2.66699 -57.166 -8 -95.499s-13.666 -85.833 -24.999 -142.5h-594c-7.33301 -35.333 -12.833 -68.5 -16.5 -99.5
s-5.5 -60.5 -5.5 -88.5c0 -58.667 15.833 -102.334 47.5 -131.001s79.834 -43 144.501 -43c50.667 0 92.334 17.167 125.001 51.5s58 87.5 76 159.5h184zM245.999 608.003h409c4 24 6.83301 44.833 8.5 62.5s2.5 33.167 2.5 46.5c0 64.667 -14 113.167 -42 145.5
s-70 48.5 -126 48.5c-68 0 -121 -22.5 -159 -67.5s-69 -123.5 -93 -235.5zM826.999 1163h-109l-133 219l-225 -219h-121l266 348h185z" />
    <glyph glyph-name="edieresis" unicode="&#xeb;" horiz-adv-x="952" 
d="M772 330c-25.333 -122 -71.501 -211.664 -138.501 -268.997s-158.833 -86 -275.5 -86c-106.667 0 -190.334 28.5 -251.001 85.5s-91 135.833 -91 236.5c0 31.333 3.16699 69.166 9.5 113.499s15.5 95.166 27.5 152.499c14 64.667 28.833 121.667 44.5 171
s31.5 88.666 47.5 117.999c39.333 70 87.333 121 144 153s127.667 48 213 48c111.333 0 196.166 -28.5 254.499 -85.5s87.5 -139.833 87.5 -248.5c0 -25.333 -2.66699 -57.166 -8 -95.499s-13.666 -85.833 -24.999 -142.5h-594c-7.33301 -35.333 -12.833 -68.5 -16.5 -99.5
s-5.5 -60.5 -5.5 -88.5c0 -58.667 15.833 -102.334 47.5 -131.001s79.834 -43 144.501 -43c50.667 0 92.334 17.167 125.001 51.5s58 87.5 76 159.5h184zM245.999 608.003h409c4 24 6.83301 44.833 8.5 62.5s2.5 33.167 2.5 46.5c0 64.667 -14 113.167 -42 145.5
s-70 48.5 -126 48.5c-68 0 -121 -22.5 -159 -67.5s-69 -123.5 -93 -235.5zM623.999 1223l43 209h183l-43 -209h-183zM294.999 1223l43 209h182l-43 -209h-182z" />
    <glyph glyph-name="igrave" unicode="&#xec;" horiz-adv-x="426" 
d="M-29 0l219 1028h177l-220 -1028h-176zM457 1163h-109l-301 348h199z" />
    <glyph glyph-name="iacute" unicode="&#xed;" horiz-adv-x="426" 
d="M-29 0l219 1028h177l-220 -1028h-176zM293 1163h-121l231 348h191z" />
    <glyph glyph-name="icircumflex" unicode="&#xee;" horiz-adv-x="426" 
d="M-29 0l219 1028h177l-220 -1028h-176zM598 1163h-109l-133 219l-225 -219h-121l266 348h185z" />
    <glyph glyph-name="idieresis" unicode="&#xef;" horiz-adv-x="426" 
d="M-29 0l219 1028h177l-220 -1028h-176zM395 1223l43 209h183l-43 -209h-183zM66 1223l43 209h182l-43 -209h-182z" />
    <glyph glyph-name="eth" unicode="&#xf0;" horiz-adv-x="856" 
d="M424 815c-38 0 -70.6689 -8.66895 -98.002 -26.002s-51.333 -44.666 -72 -81.999c-8 -14.667 -18 -41.667 -30 -81s-24.667 -87 -38 -143c-9.33301 -41.333 -16.666 -80.5 -21.999 -117.5s-8 -68.833 -8 -95.5c0 -54 13.333 -95.167 40 -123.5s65.667 -42.5 117 -42.5
c38.667 0 71.5 8.83301 98.5 26.5s50.167 45.167 69.5 82.5c10 18.667 21 47.667 33 87s24.333 86 37 140c9.33301 41.333 16.5 79.333 21.5 114s7.5 64.334 7.5 89.001c0 57.333 -13.167 100.333 -39.5 129s-65.166 43 -116.499 43zM560.998 923.998
c-3.33301 29.333 -9.5 59.835 -18.5 91.502s-21.833 67.167 -38.5 106.5l-254 -63l-29 94l225 59c-14.667 30 -37.167 60.667 -67.5 92s-67.166 61.666 -110.499 90.999l70 80c48 -26 92.667 -57.5 134 -94.5s80.666 -80.167 117.999 -129.5l235 60l31 -94l-213 -60
c33.333 -67.333 58.333 -139 75 -215s25 -155 25 -237c0 -78.667 -8 -160 -24 -244s-39.333 -166.667 -70 -248c-31.333 -82 -75 -142.167 -131 -180.5s-128.333 -57.5 -217 -57.5c-94 0 -168.333 26 -223 78s-82 122.333 -82 211c0 26.667 2.83301 60.167 8.5 100.5
s14.5 87.5 26.5 141.5c12.667 58 25.834 109 39.501 153s27.834 79 42.501 105c33.333 61.333 75.666 106.666 126.999 135.999s114 44 188 44c24.667 0 48.167 -1.66699 70.5 -5s43.166 -8.33301 62.499 -15z" />
    <glyph glyph-name="ntilde" unicode="&#xf1;" horiz-adv-x="946" 
d="M-39 0l167.999 792.999c6 26.667 12 57 18 91s13.667 82 23 144h166l-29 -151c40 58 86.333 101.5 139 130.5s112.334 43.5 179.001 43.5c68.667 0 122 -20.667 160 -62s57 -99.333 57 -174c0 -14.667 -1.5 -32.667 -4.5 -54s-8.5 -51 -16.5 -89l-141 -672h-176l145 688
c6 28.667 10 49.834 12 63.501s3 25.167 3 34.5c0 42 -10.167 73.667 -30.5 95s-49.833 32 -88.5 32c-76.667 0 -138 -31.5 -184 -94.5s-85.667 -173.5 -119 -331.5l-105 -487h-176zM858.999 1450c-16.667 -70.667 -40.665 -122.5 -71.998 -155.5
s-71.666 -49.5 -120.999 -49.5c-10.667 0 -20.334 0.666992 -29.001 2s-16.667 3.33301 -24 6l-80 29c-8.66699 2.66699 -17.167 4.66699 -25.5 6s-16.833 2 -25.5 2c-22 0 -40 -6.5 -54 -19.5s-23.333 -31.5 -28 -55.5l-94 -1c15.333 68.667 38.333 120 69 154
s69.667 51 117 51c10.667 0 21.5 -0.833008 32.5 -2.5s21.833 -4.16699 32.5 -7.5l80 -27c6.66699 -2 14.167 -3.83301 22.5 -5.5s15.833 -2.5 22.5 -2.5c21.333 0 38.166 5.83301 50.499 17.5s22.166 31.167 29.499 58.5h97z" />
    <glyph glyph-name="ograve" unicode="&#xf2;" horiz-adv-x="952" 
d="M16 295c0 32.667 3.33301 72.3311 10 118.998s16.334 99 29.001 157c14.667 65.333 29.667 122.333 45 171s30.333 85.334 45 110.001c39.333 68.667 87.5 119.334 144.5 152.001s126.5 49 208.5 49c110 0 195.167 -28.333 255.5 -85s90.5 -136.334 90.5 -239.001
c0 -34 -2.83301 -72.667 -8.5 -116s-13.834 -90.666 -24.501 -141.999c-14 -64 -29.5 -121.833 -46.5 -173.5s-34.167 -93.5 -51.5 -125.5c-38.667 -68 -86.5 -117.833 -143.5 -149.5s-128.167 -47.5 -213.5 -47.5c-104 0 -186.667 29 -248 87s-92 135.667 -92 233z
M494 908.997c-43.333 0 -80.167 -9.50098 -110.5 -28.501s-57.166 -49.833 -80.499 -92.5c-10 -18 -22 -49.833 -36 -95.5s-27.333 -96.834 -40 -153.501c-10.667 -47.333 -18.667 -91.333 -24 -132s-8 -78.667 -8 -114c0 -55.333 14.833 -98.166 44.5 -128.499
s72.167 -45.5 127.5 -45.5c42.667 0 79.167 9.66699 109.5 29s57.166 50 80.499 92c9.33301 16.667 20.166 45.834 32.499 87.501s26.833 98.5 43.5 170.5c10.667 46.667 18.834 88.667 24.501 126s8.5 69 8.5 95c0 62.667 -14.5 110 -43.5 142s-71.833 48 -128.5 48z
M687.999 1163h-109l-301 348h199z" />
    <glyph glyph-name="oacute" unicode="&#xf3;" horiz-adv-x="952" 
d="M16 295c0 32.667 3.33301 72.3311 10 118.998s16.334 99 29.001 157c14.667 65.333 29.667 122.333 45 171s30.333 85.334 45 110.001c39.333 68.667 87.5 119.334 144.5 152.001s126.5 49 208.5 49c110 0 195.167 -28.333 255.5 -85s90.5 -136.334 90.5 -239.001
c0 -34 -2.83301 -72.667 -8.5 -116s-13.834 -90.666 -24.501 -141.999c-14 -64 -29.5 -121.833 -46.5 -173.5s-34.167 -93.5 -51.5 -125.5c-38.667 -68 -86.5 -117.833 -143.5 -149.5s-128.167 -47.5 -213.5 -47.5c-104 0 -186.667 29 -248 87s-92 135.667 -92 233z
M494 908.997c-43.333 0 -80.167 -9.50098 -110.5 -28.501s-57.166 -49.833 -80.499 -92.5c-10 -18 -22 -49.833 -36 -95.5s-27.333 -96.834 -40 -153.501c-10.667 -47.333 -18.667 -91.333 -24 -132s-8 -78.667 -8 -114c0 -55.333 14.833 -98.166 44.5 -128.499
s72.167 -45.5 127.5 -45.5c42.667 0 79.167 9.66699 109.5 29s57.166 50 80.499 92c9.33301 16.667 20.166 45.834 32.499 87.501s26.833 98.5 43.5 170.5c10.667 46.667 18.834 88.667 24.501 126s8.5 69 8.5 95c0 62.667 -14.5 110 -43.5 142s-71.833 48 -128.5 48z
M523.999 1163h-121l231 348h191z" />
    <glyph glyph-name="ocircumflex" unicode="&#xf4;" horiz-adv-x="952" 
d="M16 295c0 32.667 3.33301 72.3311 10 118.998s16.334 99 29.001 157c14.667 65.333 29.667 122.333 45 171s30.333 85.334 45 110.001c39.333 68.667 87.5 119.334 144.5 152.001s126.5 49 208.5 49c110 0 195.167 -28.333 255.5 -85s90.5 -136.334 90.5 -239.001
c0 -34 -2.83301 -72.667 -8.5 -116s-13.834 -90.666 -24.501 -141.999c-14 -64 -29.5 -121.833 -46.5 -173.5s-34.167 -93.5 -51.5 -125.5c-38.667 -68 -86.5 -117.833 -143.5 -149.5s-128.167 -47.5 -213.5 -47.5c-104 0 -186.667 29 -248 87s-92 135.667 -92 233z
M494 908.997c-43.333 0 -80.167 -9.50098 -110.5 -28.501s-57.166 -49.833 -80.499 -92.5c-10 -18 -22 -49.833 -36 -95.5s-27.333 -96.834 -40 -153.501c-10.667 -47.333 -18.667 -91.333 -24 -132s-8 -78.667 -8 -114c0 -55.333 14.833 -98.166 44.5 -128.499
s72.167 -45.5 127.5 -45.5c42.667 0 79.167 9.66699 109.5 29s57.166 50 80.499 92c9.33301 16.667 20.166 45.834 32.499 87.501s26.833 98.5 43.5 170.5c10.667 46.667 18.834 88.667 24.501 126s8.5 69 8.5 95c0 62.667 -14.5 110 -43.5 142s-71.833 48 -128.5 48z
M828.999 1163h-109l-133 219l-225 -219h-121l266 348h185z" />
    <glyph glyph-name="otilde" unicode="&#xf5;" horiz-adv-x="952" 
d="M16 295c0 32.667 3.33301 72.3311 10 118.998s16.334 99 29.001 157c14.667 65.333 29.667 122.333 45 171s30.333 85.334 45 110.001c39.333 68.667 87.5 119.334 144.5 152.001s126.5 49 208.5 49c110 0 195.167 -28.333 255.5 -85s90.5 -136.334 90.5 -239.001
c0 -34 -2.83301 -72.667 -8.5 -116s-13.834 -90.666 -24.501 -141.999c-14 -64 -29.5 -121.833 -46.5 -173.5s-34.167 -93.5 -51.5 -125.5c-38.667 -68 -86.5 -117.833 -143.5 -149.5s-128.167 -47.5 -213.5 -47.5c-104 0 -186.667 29 -248 87s-92 135.667 -92 233z
M494 908.997c-43.333 0 -80.167 -9.50098 -110.5 -28.501s-57.166 -49.833 -80.499 -92.5c-10 -18 -22 -49.833 -36 -95.5s-27.333 -96.834 -40 -153.501c-10.667 -47.333 -18.667 -91.333 -24 -132s-8 -78.667 -8 -114c0 -55.333 14.833 -98.166 44.5 -128.499
s72.167 -45.5 127.5 -45.5c42.667 0 79.167 9.66699 109.5 29s57.166 50 80.499 92c9.33301 16.667 20.166 45.834 32.499 87.501s26.833 98.5 43.5 170.5c10.667 46.667 18.834 88.667 24.501 126s8.5 69 8.5 95c0 62.667 -14.5 110 -43.5 142s-71.833 48 -128.5 48z
M851.999 1450c-16.667 -70.667 -40.665 -122.5 -71.998 -155.5s-71.666 -49.5 -120.999 -49.5c-10.667 0 -20.334 0.666992 -29.001 2s-16.667 3.33301 -24 6l-80 29c-8.66699 2.66699 -17.167 4.66699 -25.5 6s-16.833 2 -25.5 2c-22 0 -40 -6.5 -54 -19.5
s-23.333 -31.5 -28 -55.5l-94 -1c15.333 68.667 38.333 120 69 154s69.667 51 117 51c10.667 0 21.5 -0.833008 32.5 -2.5s21.833 -4.16699 32.5 -7.5l80 -27c6.66699 -2 14.167 -3.83301 22.5 -5.5s15.833 -2.5 22.5 -2.5c21.333 0 38.166 5.83301 50.499 17.5
s22.166 31.167 29.499 58.5h97z" />
    <glyph glyph-name="odieresis" unicode="&#xf6;" horiz-adv-x="952" 
d="M16 295c0 32.667 3.33301 72.3311 10 118.998s16.334 99 29.001 157c14.667 65.333 29.667 122.333 45 171s30.333 85.334 45 110.001c39.333 68.667 87.5 119.334 144.5 152.001s126.5 49 208.5 49c110 0 195.167 -28.333 255.5 -85s90.5 -136.334 90.5 -239.001
c0 -34 -2.83301 -72.667 -8.5 -116s-13.834 -90.666 -24.501 -141.999c-14 -64 -29.5 -121.833 -46.5 -173.5s-34.167 -93.5 -51.5 -125.5c-38.667 -68 -86.5 -117.833 -143.5 -149.5s-128.167 -47.5 -213.5 -47.5c-104 0 -186.667 29 -248 87s-92 135.667 -92 233z
M494 908.997c-43.333 0 -80.167 -9.50098 -110.5 -28.501s-57.166 -49.833 -80.499 -92.5c-10 -18 -22 -49.833 -36 -95.5s-27.333 -96.834 -40 -153.501c-10.667 -47.333 -18.667 -91.333 -24 -132s-8 -78.667 -8 -114c0 -55.333 14.833 -98.166 44.5 -128.499
s72.167 -45.5 127.5 -45.5c42.667 0 79.167 9.66699 109.5 29s57.166 50 80.499 92c9.33301 16.667 20.166 45.834 32.499 87.501s26.833 98.5 43.5 170.5c10.667 46.667 18.834 88.667 24.501 126s8.5 69 8.5 95c0 62.667 -14.5 110 -43.5 142s-71.833 48 -128.5 48z
M625.999 1223l43 209h183l-43 -209h-183zM296.999 1223l43 209h182l-43 -209h-182z" />
    <glyph glyph-name="divide" unicode="&#xf7;" horiz-adv-x="1706" 
d="M854 365c31.333 0 58.333 -11.333 81 -34s34 -49.667 34 -81s-11.167 -58.333 -33.5 -81s-49.5 -34 -81.5 -34s-59.167 11.167 -81.5 33.5s-33.5 49.5 -33.5 81.5s11.333 59.167 34 81.5s49.667 33.5 81 33.5zM1452 670v-117h-1198v117h1198zM854 1085
c32 0 59.167 -11.167 81.5 -33.5s33.5 -49.166 33.5 -80.499c0 -32 -11.167 -59.167 -33.5 -81.5s-49.5 -33.5 -81.5 -33.5c-32.667 0 -60 11.167 -82 33.5s-33 49.5 -33 81.5c0 31.333 11.333 58.166 34 80.499s49.667 33.5 81 33.5z" />
    <glyph glyph-name="oslash" unicode="&#xf8;" horiz-adv-x="952" 
d="M-33 -33l-63.001 56l137 145c-7.33301 17.333 -13 37.5 -17 60.5s-6 48.5 -6 76.5c0 32 2.83301 69.167 8.5 111.5s13.834 89.833 24.501 142.5c14.667 66.667 30 125.167 46 175.5s32 90.833 48 121.5c38 68.667 85.667 119.334 143 152.001s128 49 212 49
c57.333 0 107.833 -8.16699 151.5 -24.5s83.167 -41.833 118.5 -76.5l100 111l68 -53l-121 -133c10 -24 17.333 -48.333 22 -73s7 -50.334 7 -77.001c0 -32 -3 -69.833 -9 -113.5s-14.667 -91.167 -26 -142.5c-15.333 -66.667 -31.333 -125.5 -48 -176.5
s-33.334 -91.833 -50.001 -122.5c-38.667 -67.333 -86.667 -116.833 -144 -148.5s-127.666 -47.5 -210.999 -47.5c-60 0 -112.667 9.16699 -158 27.5s-84 46.5 -116 84.5zM192.999 334l454.001 491c-16.667 29.333 -38 51.333 -64 66s-56.333 22 -91 22
c-81.333 0 -143.833 -40.5 -187.5 -121.5s-80.834 -233.5 -111.501 -457.5zM668 717l-461 -495.999c14 -33.333 34.833 -58 62.5 -74s63.5 -24 107.5 -24c79.333 0 141.333 44.667 186 134s79.667 242.666 105 459.999z" />
    <glyph glyph-name="ugrave" unicode="&#xf9;" horiz-adv-x="946" 
d="M893 1028l-168.001 -793.002c-6 -26.667 -12 -57 -18 -91s-13.667 -82 -23 -144h-166l27 152c-40 -58.667 -86.333 -102.5 -139 -131.5s-112.334 -43.5 -179.001 -43.5c-68 0 -120.833 20.5 -158.5 61.5s-56.5 99.167 -56.5 174.5c0 16.667 1.5 36.834 4.5 60.501
s7.83301 51.5 14.5 83.5l143 671h174l-145 -686c-5.33301 -26.667 -9.16602 -47.5 -11.499 -62.5s-3.5 -27.5 -3.5 -37.5c0 -42 10.167 -73.667 30.5 -95s49.833 -32 88.5 -32c77.333 0 139.333 31.833 186 95.5s86.334 173.834 119.001 330.501l105 487h176zM716.999 1163
h-109l-301 348h199z" />
    <glyph glyph-name="uacute" unicode="&#xfa;" horiz-adv-x="946" 
d="M893 1028l-168.001 -793.002c-6 -26.667 -12 -57 -18 -91s-13.667 -82 -23 -144h-166l27 152c-40 -58.667 -86.333 -102.5 -139 -131.5s-112.334 -43.5 -179.001 -43.5c-68 0 -120.833 20.5 -158.5 61.5s-56.5 99.167 -56.5 174.5c0 16.667 1.5 36.834 4.5 60.501
s7.83301 51.5 14.5 83.5l143 671h174l-145 -686c-5.33301 -26.667 -9.16602 -47.5 -11.499 -62.5s-3.5 -27.5 -3.5 -37.5c0 -42 10.167 -73.667 30.5 -95s49.833 -32 88.5 -32c77.333 0 139.333 31.833 186 95.5s86.334 173.834 119.001 330.501l105 487h176zM552.999 1163
h-121l231 348h191z" />
    <glyph glyph-name="ucircumflex" unicode="&#xfb;" horiz-adv-x="946" 
d="M893 1028l-168.001 -793.002c-6 -26.667 -12 -57 -18 -91s-13.667 -82 -23 -144h-166l27 152c-40 -58.667 -86.333 -102.5 -139 -131.5s-112.334 -43.5 -179.001 -43.5c-68 0 -120.833 20.5 -158.5 61.5s-56.5 99.167 -56.5 174.5c0 16.667 1.5 36.834 4.5 60.501
s7.83301 51.5 14.5 83.5l143 671h174l-145 -686c-5.33301 -26.667 -9.16602 -47.5 -11.499 -62.5s-3.5 -27.5 -3.5 -37.5c0 -42 10.167 -73.667 30.5 -95s49.833 -32 88.5 -32c77.333 0 139.333 31.833 186 95.5s86.334 173.834 119.001 330.501l105 487h176zM857.999 1163
h-109l-133 219l-225 -219h-121l266 348h185z" />
    <glyph glyph-name="udieresis" unicode="&#xfc;" horiz-adv-x="946" 
d="M893 1028l-168.001 -793.002c-6 -26.667 -12 -57 -18 -91s-13.667 -82 -23 -144h-166l27 152c-40 -58.667 -86.333 -102.5 -139 -131.5s-112.334 -43.5 -179.001 -43.5c-68 0 -120.833 20.5 -158.5 61.5s-56.5 99.167 -56.5 174.5c0 16.667 1.5 36.834 4.5 60.501
s7.83301 51.5 14.5 83.5l143 671h174l-145 -686c-5.33301 -26.667 -9.16602 -47.5 -11.499 -62.5s-3.5 -27.5 -3.5 -37.5c0 -42 10.167 -73.667 30.5 -95s49.833 -32 88.5 -32c77.333 0 139.333 31.833 186 95.5s86.334 173.834 119.001 330.501l105 487h176zM654.999 1223
l43 209h183l-43 -209h-183zM325.999 1223l43 209h182l-43 -209h-182z" />
    <glyph glyph-name="yacute" unicode="&#xfd;" horiz-adv-x="868" 
d="M162 -29l-103 1057h174l39 -561c4.66699 -59.333 8 -108 10 -146s3 -74 3 -108c0 -27.333 -0.166992 -47.666 -0.5 -60.999s-0.833008 -26.333 -1.5 -39c10 39.333 22.167 77.833 36.5 115.5s30.833 74.167 49.5 109.5l354 690h182l-751 -1417h-181zM514 1163h-121
l231 348h191z" />
    <glyph glyph-name="thorn" unicode="&#xfe;" horiz-adv-x="967" 
d="M520 915c-40 0 -76.334 -11.499 -109.001 -34.499s-61 -57.167 -85 -102.5c-9.33301 -16 -20.5 -45 -33.5 -87s-25.833 -91.333 -38.5 -148c-10 -44.667 -17.667 -85.834 -23 -123.501s-8 -71.167 -8 -100.5c0 -64.667 14.333 -113.5 43 -146.5s71 -49.5 127 -49.5
c50 0 89.167 11.167 117.5 33.5s52.833 60.833 73.5 115.5c28 79.333 50.333 163 67 251s25 165 25 231c0 55.333 -12.667 96 -38 122s-64.666 39 -117.999 39zM-123.001 -388.999l394.998 1864h174l-120 -572c38 51.333 79.5 88.833 124.5 112.5s96.167 35.5 153.5 35.5
c81.333 0 144 -25.833 188 -77.5s66 -124.834 66 -219.501c0 -37.333 -2.66699 -78.333 -8 -123s-13.666 -93.334 -24.999 -146.001c-16 -76 -33.667 -143.167 -53 -201.5s-39 -103.833 -59 -136.5c-35.333 -55.333 -76.333 -96 -123 -122s-102 -39 -166 -39
c-62.667 0 -114.167 13 -154.5 39s-74.166 68.333 -101.499 127l-117 -541h-174z" />
    <glyph glyph-name="ydieresis" unicode="&#xff;" horiz-adv-x="868" 
d="M162 -29l-103 1057h174l39 -561c4.66699 -59.333 8 -108 10 -146s3 -74 3 -108c0 -27.333 -0.166992 -47.666 -0.5 -60.999s-0.833008 -26.333 -1.5 -39c10 39.333 22.167 77.833 36.5 115.5s30.833 74.167 49.5 109.5l354 690h182l-751 -1417h-181zM616 1223l43 209h183
l-43 -209h-183zM287 1223l43 209h182l-43 -209h-182z" />
    <glyph glyph-name="Cacute" unicode="&#x106;" horiz-adv-x="1096" 
d="M942 442c-27.333 -155.333 -81.667 -272.002 -163 -350.002s-189.333 -117 -324 -117c-127.333 0 -224.5 33.833 -291.5 101.5s-100.5 165.834 -100.5 294.501c0 47.333 5.66699 109.5 17 186.5s27.666 164.833 48.999 263.5c24 111.333 46.333 202 67 272
s41.334 123.333 62.001 160c44.667 83.333 102.334 145.166 173.001 185.499s157 60.5 259 60.5c117.333 0 208.833 -30.5 274.5 -91.5s98.5 -145.833 98.5 -254.5c0 -17.333 -0.666992 -33.666 -2 -48.999s-3.33301 -31 -6 -47h-195c2.66699 14 4.66699 27.833 6 41.5
s2 27.834 2 42.501c0 62 -16.5 109.5 -49.5 142.5s-80.5 49.5 -142.5 49.5c-64 0 -116.167 -14 -156.5 -42s-74.833 -74.667 -103.5 -140c-13.333 -28 -27 -67 -41 -117s-27.667 -108.667 -41 -176c-28.667 -140 -48.834 -247 -60.501 -321s-17.5 -128 -17.5 -162
c0 -76 18.167 -134.333 54.5 -175s88.5 -61 156.5 -61c74 0 134.333 25.5 181 76.5s79 126.5 97 226.5h197zM716.999 1609h-121l231 348h191z" />
    <glyph glyph-name="cacute" unicode="&#x107;" horiz-adv-x="891" 
d="M739 336c-17.333 -122.667 -59.668 -213.497 -127.001 -272.497s-162 -88.5 -284 -88.5c-96 0 -171.333 28.833 -226 86.5s-82 136.834 -82 237.501c0 30 3.16699 67.5 9.5 112.5s15.5 95.5 27.5 151.5c15.333 69.333 30.5 128.5 45.5 177.5s29.833 86.833 44.5 113.5
c36.667 67.333 83.834 117.333 141.501 150s127.5 49 209.5 49c101.333 0 178.166 -24.667 230.499 -74s78.5 -121 78.5 -215c0 -7.33301 -0.333008 -15.833 -1 -25.5l-3 -41.5l-176 -1v5c2.66699 24 4 41.667 4 53c0 52.667 -12.167 92 -36.5 118s-60.833 39 -109.5 39
c-39.333 0 -73.333 -9.83301 -102 -29.5s-53.334 -50.834 -74.001 -93.501c-11.333 -22.667 -23.166 -54.5 -35.499 -95.5s-24.833 -90.833 -37.5 -149.5c-13.333 -56.667 -23.166 -106.834 -29.499 -150.501s-9.5 -78.834 -9.5 -105.501
c0 -56.667 13.333 -98.834 40 -126.501s67 -41.5 121 -41.5c56.667 0 101.5 17.833 134.5 53.5s55.167 90.167 66.5 163.5h180zM503.998 1163h-121l231 348h191z" />
    <glyph glyph-name="Ccaron" unicode="&#x10c;" horiz-adv-x="1096" 
d="M942 442c-27.333 -155.333 -81.667 -272.002 -163 -350.002s-189.333 -117 -324 -117c-127.333 0 -224.5 33.833 -291.5 101.5s-100.5 165.834 -100.5 294.501c0 47.333 5.66699 109.5 17 186.5s27.666 164.833 48.999 263.5c24 111.333 46.333 202 67 272
s41.334 123.333 62.001 160c44.667 83.333 102.334 145.166 173.001 185.499s157 60.5 259 60.5c117.333 0 208.833 -30.5 274.5 -91.5s98.5 -145.833 98.5 -254.5c0 -17.333 -0.666992 -33.666 -2 -48.999s-3.33301 -31 -6 -47h-195c2.66699 14 4.66699 27.833 6 41.5
s2 27.834 2 42.501c0 62 -16.5 109.5 -49.5 142.5s-80.5 49.5 -142.5 49.5c-64 0 -116.167 -14 -156.5 -42s-74.833 -74.667 -103.5 -140c-13.333 -28 -27 -67 -41 -117s-27.667 -108.667 -41 -176c-28.667 -140 -48.834 -247 -60.501 -321s-17.5 -128 -17.5 -162
c0 -76 18.167 -134.333 54.5 -175s88.5 -61 156.5 -61c74 0 134.333 25.5 181 76.5s79 126.5 97 226.5h197zM501.999 1957h108l136 -219l223 219h123l-267 -348h-184z" />
    <glyph glyph-name="ccaron" unicode="&#x10d;" horiz-adv-x="891" 
d="M739 336c-17.333 -122.667 -59.668 -213.497 -127.001 -272.497s-162 -88.5 -284 -88.5c-96 0 -171.333 28.833 -226 86.5s-82 136.834 -82 237.501c0 30 3.16699 67.5 9.5 112.5s15.5 95.5 27.5 151.5c15.333 69.333 30.5 128.5 45.5 177.5s29.833 86.833 44.5 113.5
c36.667 67.333 83.834 117.333 141.501 150s127.5 49 209.5 49c101.333 0 178.166 -24.667 230.499 -74s78.5 -121 78.5 -215c0 -7.33301 -0.333008 -15.833 -1 -25.5l-3 -41.5l-176 -1v5c2.66699 24 4 41.667 4 53c0 52.667 -12.167 92 -36.5 118s-60.833 39 -109.5 39
c-39.333 0 -73.333 -9.83301 -102 -29.5s-53.334 -50.834 -74.001 -93.501c-11.333 -22.667 -23.166 -54.5 -35.499 -95.5s-24.833 -90.833 -37.5 -149.5c-13.333 -56.667 -23.166 -106.834 -29.499 -150.501s-9.5 -78.834 -9.5 -105.501
c0 -56.667 13.333 -98.834 40 -126.501s67 -41.5 121 -41.5c56.667 0 101.5 17.833 134.5 53.5s55.167 90.167 66.5 163.5h180zM288.998 1511h108l136 -219l223 219h123l-267 -348h-184z" />
    <glyph glyph-name="dcroat" unicode="&#x111;" 
d="M477 909c-49.333 0 -88.332 -12.333 -116.999 -37s-53.667 -69 -75 -133c-26.667 -76.667 -48 -158.5 -64 -245.5s-24 -158.5 -24 -214.5c0 -56.667 12.833 -98.5 38.5 -125.5s65.167 -40.5 118.5 -40.5c40 0 76.667 11.667 110 35s61.666 57.333 84.999 102
c24 45.333 46.667 115.5 68 210.5s32 177.833 32 248.5c0 64 -14.833 113.333 -44.5 148s-72.167 52 -127.5 52zM537.001 0l21.998 136.999c-42.667 -56 -86.667 -96.167 -132 -120.5s-98.333 -36.5 -159 -36.5c-81.333 0 -143.666 25.167 -186.999 75.5
s-65 123.166 -65 218.499c0 38.667 2.83301 80.834 8.5 126.501s13.834 93.167 24.501 142.5c16.667 78.667 34.5 146.834 53.5 204.501s38.167 102.167 57.5 133.5c33.333 54.667 73.833 95.167 121.5 121.5s104.167 39.5 169.5 39.5c62 0 113 -13 153 -39
s73.667 -68 101 -126l65 309h-268l20 114h273l36 175h179l-39 -175h147l-22 -114h-150l-217 -1022c-4 -20 -8 -43.667 -12 -71s-8 -58.333 -12 -93h-168z" />
    <glyph glyph-name="Gbreve" unicode="&#x11e;" horiz-adv-x="1159" 
d="M895 33c-70 -19.333 -139.167 -33.835 -207.5 -43.502s-135.166 -14.5 -200.499 -14.5c-142.667 0 -249 33.167 -319 99.5s-105 167.166 -105 302.499c0 47.333 5.33301 106.5 16 177.5s26.667 153.167 48 246.5c26 117.333 49.5 211 70.5 281s40.5 121.667 58.5 155
c48 88 110.167 153.667 186.5 197s167.833 65 274.5 65c126 0 224.333 -33 295 -99s106 -158 106 -276c0 -13.333 -0.5 -27.166 -1.5 -41.499s-2.5 -28.166 -4.5 -41.499l-196 -1c2 14 3.5 27.5 4.5 40.5s1.5 25.5 1.5 37.5c0 70.667 -18.167 124.167 -54.5 160.5
s-89.833 54.5 -160.5 54.5c-65.333 0 -120.166 -12.667 -164.499 -38s-81.833 -65.666 -112.5 -120.999c-14 -27.333 -28.833 -67.833 -44.5 -121.5s-34.834 -132.167 -57.501 -235.5c-28 -129.333 -47 -224.833 -57 -286.5s-15 -110.167 -15 -145.5
c0 -88.667 19.667 -151.5 59 -188.5s107 -55.5 203 -55.5c29.333 0 60.666 3 93.999 9s70.333 15.333 111 28l88 410h-266l35 168h460l-118 -568c-7.33301 -32.667 -13 -61 -17 -85s-7.33301 -47.333 -10 -70zM554 1925h94.001v-15c0 -45.333 10.333 -77.833 31 -97.5
s55.334 -29.5 104.001 -29.5c53.333 0 97.5 11.667 132.5 35s61.833 59 80.5 107h100c-24.667 -94 -63.834 -164.667 -117.501 -212s-121.5 -71 -203.5 -71c-74 0 -129.833 19.833 -167.5 59.5s-56.5 98.5 -56.5 176.5c0 12 0.166992 21.333 0.5 28s1.16602 13 2.49902 19z
" />
    <glyph glyph-name="gbreve" unicode="&#x11f;" horiz-adv-x="954" 
d="M475 922c-42.667 0 -78 -11.168 -106 -33.501s-52 -58.5 -72 -108.5c-7.33301 -17.333 -16.5 -45.5 -27.5 -84.5s-22.167 -83.833 -33.5 -134.5c-12 -54.667 -21.167 -104.667 -27.5 -150s-9.5 -82.666 -9.5 -111.999c0 -50.667 12 -89 36 -115s59.667 -39 107 -39
c43.333 0 80.666 9.5 111.999 28.5s59 48.5 83 88.5c12.667 20.667 25.667 52.5 39 95.5s28.333 100.167 45 171.5c7.33301 34 12.833 66.333 16.5 97s5.5 59.667 5.5 87c0 68.667 -14.167 120.667 -42.5 156s-70.166 53 -125.499 53zM110 -90.001l-4.00293 -25.999
c-1.33301 -8.66699 -2 -16.334 -2 -23.001c0 -40.667 12.667 -71 38 -91s63.333 -30 114 -30c70.667 0 124.334 17.167 161.001 51.5s64.334 95.5 83.001 183.5l32 156c-36.667 -36 -75.167 -62.333 -115.5 -79s-85.5 -25 -135.5 -25c-82.667 0 -146.334 24.667 -191.001 74
s-67 119.333 -67 210c0 20 1 41.667 3 65s5 48.333 9 75c14 92 30 172.333 48 241s37.333 123.334 58 164.001c33.333 66 74.833 115 124.5 147s108.5 48 176.5 48c64.667 0 116.834 -13.5 156.501 -40.5s70.834 -70.167 93.501 -129.5l37 147h178l-24 -98
c-12 -48 -19 -77 -21 -87l-180 -851c-32.667 -154 -79.167 -258 -139.5 -312s-154.5 -81 -282.5 -81c-108.667 0 -190.5 20.667 -245.5 62s-82.5 103 -82.5 185c0 17.333 0.333008 30.166 1 38.499s2 16.833 4 25.5h173zM368.997 1479h94.001v-15
c0 -45.333 10.333 -77.833 31 -97.5s55.334 -29.5 104.001 -29.5c53.333 0 97.5 11.667 132.5 35s61.833 59 80.5 107h100c-24.667 -94 -63.834 -164.667 -117.501 -212s-121.5 -71 -203.5 -71c-74 0 -129.833 19.833 -167.5 59.5s-56.5 98.5 -56.5 176.5
c0 12 0.166992 21.333 0.5 28s1.16602 13 2.49902 19z" />
    <glyph glyph-name="Idotaccent" unicode="&#x130;" horiz-adv-x="496" 
d="M-6 0l313 1475h195l-314 -1475h-194zM336 1665l47 219h193l-47 -219h-193z" />
    <glyph glyph-name="dotlessi" unicode="&#x131;" horiz-adv-x="426" 
d="M-29 0l219 1028h177l-220 -1028h-176z" />
    <glyph glyph-name="Lslash" unicode="&#x141;" horiz-adv-x="848" 
d="M12 0l133 633l-186 -133l43 182l182 129l142 664h192l-121 -578l281 197l-37 -179l-283 -196l-116 -553h501l-34 -166h-697z" />
    <glyph glyph-name="lslash" unicode="&#x142;" horiz-adv-x="455" 
d="M-16 0l139 653l-158 -108l31 143l158 113l143 674h178l-125 -588l158 108l-33 -143l-158 -111l-155 -741h-178z" />
    <glyph glyph-name="OE" unicode="&#x152;" horiz-adv-x="1645" 
d="M1403 0h-587.999c-38.667 0 -97.5 -2.33301 -176.5 -7s-138.833 -7 -179.5 -7c-131.333 0 -231.166 33 -299.499 99s-102.5 162.667 -102.5 290c0 47.333 6.16699 109.5 18.5 186.5s30.833 169.833 55.5 278.5c21.333 92.667 43 173.167 65 241.5
s43.333 120.833 64 157.5c51.333 89.333 114.166 153.333 188.499 192s174.166 58 299.499 58c54 0 121.333 -2.33301 202 -7s134 -7 160 -7h592l-35 -162h-537l-98 -465h510l-35 -162h-510l-110 -522h551zM694.001 164l244.001 1149c-29.333 4 -59.833 7 -91.5 9
s-63.834 3 -96.501 3c-78.667 0 -137.167 -6.83301 -175.5 -20.5s-71.5 -36.834 -99.5 -69.501c-21.333 -25.333 -39.833 -55 -55.5 -89s-33.167 -86.333 -52.5 -157c-36 -128.667 -64.5 -249.667 -85.5 -363s-31.5 -194.333 -31.5 -243c0 -84 19.5 -144.333 58.5 -181
s104.167 -55 195.5 -55c24 0 51.833 1.5 83.5 4.5s67.167 7.16699 106.5 12.5z" />
    <glyph glyph-name="oe" unicode="&#x153;" horiz-adv-x="1536" 
d="M829 612h410c4 20.667 7 40.167 9 58.5s3 35.833 3 52.5c0 62.667 -14.667 110.334 -44 143.001s-72 49 -128 49c-67.333 0 -119.833 -22.333 -157.5 -67s-68.5 -123.334 -92.5 -236.001zM494 913c-43.333 0 -80.168 -9.49707 -110.501 -28.4971
s-57.166 -49.5 -80.499 -91.5c-10 -18.667 -22 -50.834 -36 -96.501s-27.333 -96.834 -40 -153.501c-10.667 -46.667 -18.667 -90.667 -24 -132s-8 -80 -8 -116c0 -55.333 14.833 -97.833 44.5 -127.5s72.167 -44.5 127.5 -44.5c42.667 0 79.167 9.66699 109.5 29
s57.166 50 80.499 92c10 17.333 21.167 46.666 33.5 87.999s26.5 97.333 42.5 168c10.667 46.667 18.834 89 24.501 127s8.5 70 8.5 96c0 62.667 -14.5 110 -43.5 142s-71.833 48 -128.5 48zM661.998 121.003c-38 -48.667 -80.999 -84.332 -128.999 -106.999
s-105 -34 -171 -34c-106.667 0 -191 28.667 -253 86s-93 135.666 -93 234.999c0 33.333 3.16699 72.666 9.5 117.999s15.5 95.333 27.5 150c13.333 64 28 120.5 44 169.5s32 88.167 48 117.5c38 68.667 85.667 119.334 143 152.001s127.333 49 210 49
c66.667 0 122.5 -11.5 167.5 -34.5s83.167 -59.5 114.5 -109.5c38 50 80.833 86.5 128.5 109.5s104.5 34.5 170.5 34.5c114 0 200.5 -28.333 259.5 -85s88.5 -139.667 88.5 -249c0 -25.333 -2.5 -57.166 -7.5 -95.499s-13.167 -85.833 -24.5 -142.5h-592
c-9.33301 -52 -15.833 -91.833 -19.5 -119.5s-5.5 -50.5 -5.5 -68.5c0 -58.667 15.833 -102.334 47.5 -131.001s80.167 -43 145.5 -43c50 0 91.5 17.167 124.5 51.5s58.167 87.5 75.5 159.5h185c-26.667 -124.667 -73.334 -214.834 -140.001 -270.501
s-160.667 -83.5 -282 -83.5c-68 0 -123 10.833 -165 32.5s-77.667 57.834 -107 108.501z" />
    <glyph glyph-name="Scedilla" unicode="&#x15e;" horiz-adv-x="1071" 
d="M25 430h201.998c-4 -16 -7 -31.833 -9 -47.5s-3 -30.5 -3 -44.5c0 -61.333 18.833 -109.166 56.5 -143.499s89.834 -51.5 156.501 -51.5c76.667 0 138.834 23.5 186.501 70.5s71.5 107.5 71.5 181.5c0 44 -10.5 84.667 -31.5 122s-65.167 87 -132.5 149l-61 54
c-165.333 148 -248 273.333 -248 376c0 122 38.5 219.333 115.5 292s180.5 109 310.5 109c126.667 0 223.834 -28 291.501 -84s101.5 -135.667 101.5 -239c0 -16.667 -0.666992 -32.667 -2 -48s-3.33301 -30.333 -6 -45h-195c2.66699 18 4.83398 35.5 6.50098 52.5
s2.5 32.5 2.5 46.5c0 54 -16.333 95.5 -49 124.5s-79.334 43.5 -140.001 43.5c-71.333 0 -129.333 -20.833 -174 -62.5s-67 -94.834 -67 -159.501c0 -72 64 -163.667 192 -275l26 -23c111.333 -98 182.666 -174 213.999 -228s47 -113.333 47 -178
c0 -134.667 -40.667 -242.5 -122 -323.5s-190.333 -121.5 -327 -121.5c-132.667 0 -237.5 30.333 -314.5 91s-115.5 143 -115.5 247c0 12.667 1.33301 28 4 46s7 41 13 69zM54.998 -422l37 97.999c53.333 -15.333 96.666 -26.666 129.999 -33.999s60.333 -11 81 -11
c48 0 82.833 7.83301 104.5 23.5s32.5 40.834 32.5 75.501c0 28.667 -13.333 49.167 -40 61.5s-72.667 18.5 -138 18.5h-23l66 190h78l-35 -102h22c70.667 0 123.834 -14 159.501 -42s53.5 -69.333 53.5 -124c0 -66 -21.5 -116.667 -64.5 -152s-104.5 -53 -184.5 -53
c-32 0 -70.5 4.16699 -115.5 12.5s-99.5 21.166 -163.5 38.499z" />
    <glyph glyph-name="scedilla" unicode="&#x15f;" horiz-adv-x="844" 
d="M-22 313l169.002 -0.000976562l-3 -33.5c-0.666992 -7.66699 -1 -14.167 -1 -19.5c0 -48 12.667 -84.167 38 -108.5s62.666 -36.5 111.999 -36.5c54.667 0 99.667 16.333 135 49s53 73.667 53 123c0 35.333 -9.83301 66.666 -29.5 93.999s-56.834 59.333 -111.501 96
l-41 27c-136.667 88.667 -205 178.667 -205 270c0 88.667 31 158.334 93 209.001s147.667 76 257 76c106 0 185.5 -22 238.5 -66s79.5 -109.333 79.5 -196c0 -10.667 -0.166992 -18.5 -0.5 -23.5s-0.833008 -10.167 -1.5 -15.5h-174v26
c0 51.333 -11.833 88.166 -35.5 110.499s-62.5 33.5 -116.5 33.5c-50.667 0 -91 -12.167 -121 -36.5s-45 -56.5 -45 -96.5c0 -49.333 45.667 -102.666 137 -159.999l72 -47c68.667 -47.333 116.667 -92.166 144 -134.499s41 -91.833 41 -148.5
c0 -100.667 -34.333 -180.5 -103 -239.5s-162 -88.5 -280 -88.5c-102 0 -179.5 21.167 -232.5 63.5s-79.5 103.833 -79.5 184.5c0 12 0.833008 25.333 2.5 40s4.5 30.667 8.5 48zM-42.998 -422.001l37 97.999c53.333 -15.333 96.666 -26.666 129.999 -33.999
s60.333 -11 81 -11c48 0 82.833 7.83301 104.5 23.5s32.5 40.834 32.5 75.501c0 28.667 -13.333 49.167 -40 61.5s-72.667 18.5 -138 18.5h-23l66 190h78l-35 -102h22c70.667 0 123.834 -14 159.501 -42s53.5 -69.333 53.5 -124c0 -66 -21.5 -116.667 -64.5 -152
s-104.5 -53 -184.5 -53c-32 0 -70.5 4.16699 -115.5 12.5s-99.5 21.166 -163.5 38.499z" />
    <glyph glyph-name="Scaron" unicode="&#x160;" horiz-adv-x="1071" 
d="M25 430h201.998c-4 -16 -7 -31.833 -9 -47.5s-3 -30.5 -3 -44.5c0 -61.333 18.833 -109.166 56.5 -143.499s89.834 -51.5 156.501 -51.5c76.667 0 138.834 23.5 186.501 70.5s71.5 107.5 71.5 181.5c0 44 -10.5 84.667 -31.5 122s-65.167 87 -132.5 149l-61 54
c-165.333 148 -248 273.333 -248 376c0 122 38.5 219.333 115.5 292s180.5 109 310.5 109c126.667 0 223.834 -28 291.501 -84s101.5 -135.667 101.5 -239c0 -16.667 -0.666992 -32.667 -2 -48s-3.33301 -30.333 -6 -45h-195c2.66699 18 4.83398 35.5 6.50098 52.5
s2.5 32.5 2.5 46.5c0 54 -16.333 95.5 -49 124.5s-79.334 43.5 -140.001 43.5c-71.333 0 -129.333 -20.833 -174 -62.5s-67 -94.834 -67 -159.501c0 -72 64 -163.667 192 -275l26 -23c111.333 -98 182.666 -174 213.999 -228s47 -113.333 47 -178
c0 -134.667 -40.667 -242.5 -122 -323.5s-190.333 -121.5 -327 -121.5c-132.667 0 -237.5 30.333 -314.5 91s-115.5 143 -115.5 247c0 12.667 1.33301 28 4 46s7 41 13 69zM480.998 1957h108l136 -219l223 219h123l-267 -348h-184z" />
    <glyph glyph-name="scaron" unicode="&#x161;" horiz-adv-x="844" 
d="M-22 313l169.002 -0.000976562l-3 -33.5c-0.666992 -7.66699 -1 -14.167 -1 -19.5c0 -48 12.667 -84.167 38 -108.5s62.666 -36.5 111.999 -36.5c54.667 0 99.667 16.333 135 49s53 73.667 53 123c0 35.333 -9.83301 66.666 -29.5 93.999s-56.834 59.333 -111.501 96
l-41 27c-136.667 88.667 -205 178.667 -205 270c0 88.667 31 158.334 93 209.001s147.667 76 257 76c106 0 185.5 -22 238.5 -66s79.5 -109.333 79.5 -196c0 -10.667 -0.166992 -18.5 -0.5 -23.5s-0.833008 -10.167 -1.5 -15.5h-174v26
c0 51.333 -11.833 88.166 -35.5 110.499s-62.5 33.5 -116.5 33.5c-50.667 0 -91 -12.167 -121 -36.5s-45 -56.5 -45 -96.5c0 -49.333 45.667 -102.666 137 -159.999l72 -47c68.667 -47.333 116.667 -92.166 144 -134.499s41 -91.833 41 -148.5
c0 -100.667 -34.333 -180.5 -103 -239.5s-162 -88.5 -280 -88.5c-102 0 -179.5 21.167 -232.5 63.5s-79.5 103.833 -79.5 184.5c0 12 0.833008 25.333 2.5 40s4.5 30.667 8.5 48zM287.002 1511h108l136 -219l223 219h123l-267 -348h-184z" />
    <glyph glyph-name="Ydieresis" unicode="&#x178;" horiz-adv-x="958" 
d="M219 0l125 584l-233 891h196l170 -676l453 676h213l-604 -889l-125 -586h-195zM743 1669l43 209h183l-43 -209h-183zM414 1669l43 209h182l-43 -209h-182z" />
    <glyph glyph-name="Zcaron" unicode="&#x17d;" horiz-adv-x="958" 
d="M-121 0l39 180l879 1127h-609l37 168h836l-35 -162l-891 -1141h664l-37 -172h-883zM426 1957h108l136 -219l223 219h123l-267 -348h-184z" />
    <glyph glyph-name="zcaron" unicode="&#x17e;" horiz-adv-x="748" 
d="M-102 0l32 156l582 741h-403l28 131h613l-29 -137l-590 -752h440l-30 -139h-643zM240 1511h108l136 -219l223 219h123l-267 -348h-184z" />
    <glyph glyph-name="florin" unicode="&#x192;" 
d="M449 1028c23.333 113.333 48.332 199.669 74.999 259.002s58 100.666 94 123.999c20.667 13.333 47 23.166 79 29.499s72.667 9.5 122 9.5c19.333 0 34.166 -0.166992 44.499 -0.5s19.833 -0.833008 28.5 -1.5l-28 -137h-5c-21.333 2.66699 -36.666 4 -45.999 4
c-84 0 -145.333 -88 -184 -264v-2l-41 -197h178l-25 -121h-178l-147 -688c-20.667 -97.333 -41.667 -173.833 -63 -229.5s-45.333 -97.834 -72 -126.501c-21.333 -23.333 -49.333 -40.166 -84 -50.499s-82 -15.5 -142 -15.5c-15.333 0 -28.5 0.166992 -39.5 0.5
s-22.167 0.833008 -33.5 1.5l28 137c2.66699 0 6.33398 -0.333008 11.001 -1c16.667 -2 28.667 -3 36 -3c46.667 0 81.5 14 104.5 42s47.833 103 74.5 225l149 708h-168l25 121h168z" />
    <glyph glyph-name="circumflex" unicode="&#x2c6;" horiz-adv-x="1024" 
d="M897 1163h-109l-133 219l-225 -219h-121l266 348h185z" />
    <glyph glyph-name="caron" unicode="&#x2c7;" horiz-adv-x="1024" 
d="M377 1511h108l136 -219l223 219h123l-267 -348h-184z" />
    <glyph glyph-name="breve" unicode="&#x2d8;" horiz-adv-x="1024" 
d="M404 1479h94.001v-15c0 -45.333 10.333 -77.833 31 -97.5s55.334 -29.5 104.001 -29.5c53.333 0 97.5 11.667 132.5 35s61.833 59 80.5 107h100c-24.667 -94 -63.834 -164.667 -117.501 -212s-121.5 -71 -203.5 -71c-74 0 -129.833 19.833 -167.5 59.5
s-56.5 98.5 -56.5 176.5c0 12 0.166992 21.333 0.5 28s1.16602 13 2.49902 19z" />
    <glyph glyph-name="dotaccent" unicode="&#x2d9;" horiz-adv-x="1024" 
d="M518 1219l47 219h193l-47 -219h-193z" />
    <glyph glyph-name="ring" unicode="&#x2da;" horiz-adv-x="1024" 
d="M514 1397c0 -40 13.4971 -73.667 40.4971 -101s60.5 -41 100.5 -41c40.667 0 74.834 13.667 102.501 41s41.5 61 41.5 101c0 39.333 -14.167 73 -42.5 101s-62.166 42 -101.499 42s-72.666 -13.833 -99.999 -41.5s-41 -61.5 -41 -101.5zM402.997 1399
c0 70.667 24.332 130.333 72.999 179s108.334 73 179.001 73c71.333 0 131.5 -24.5 180.5 -73.5s73.5 -108.5 73.5 -178.5c0 -70.667 -24.667 -130.667 -74 -180s-109.333 -74 -180 -74c-70 0 -129.5 24.5 -178.5 73.5s-73.5 109.167 -73.5 180.5z" />
    <glyph glyph-name="ogonek" unicode="&#x2db;" horiz-adv-x="1024" 
d="M426 0c-47.333 -42 -82.001 -80.832 -104.001 -116.499s-33 -70.5 -33 -104.5c0 -28.667 7 -48.834 21 -60.501s39 -17.5 75 -17.5h100l-30 -143h-72c-75.333 0 -131.666 14 -168.999 42s-56 70 -56 126c0 44 14.5 87.5 43.5 130.5s76.5 90.833 142.5 143.5h82z" />
    <glyph glyph-name="tilde" unicode="&#x2dc;" horiz-adv-x="1024" 
d="M920 1450c-16.667 -70.667 -40.665 -122.5 -71.998 -155.5s-71.666 -49.5 -120.999 -49.5c-10.667 0 -20.334 0.666992 -29.001 2s-16.667 3.33301 -24 6l-80 29c-8.66699 2.66699 -17.167 4.66699 -25.5 6s-16.833 2 -25.5 2c-22 0 -40 -6.5 -54 -19.5
s-23.333 -31.5 -28 -55.5l-94 -1c15.333 68.667 38.333 120 69 154s69.667 51 117 51c10.667 0 21.5 -0.833008 32.5 -2.5s21.833 -4.16699 32.5 -7.5l80 -27c6.66699 -2 14.167 -3.83301 22.5 -5.5s15.833 -2.5 22.5 -2.5c21.333 0 38.166 5.83301 50.499 17.5
s22.166 31.167 29.499 58.5h97z" />
    <glyph glyph-name="hungarumlaut" unicode="&#x2dd;" horiz-adv-x="1024" 
d="M862 1513h168l-254 -348h-96zM580 1513h168l-224 -348h-98z" />
    <glyph glyph-name="Omega" unicode="&#x3a9;" horiz-adv-x="1573" 
d="M1473 156l-0.00390625 -155.999h-590v150c128.667 74 227.334 167 296.001 279s103 236.667 103 374c0 167.333 -45.667 302.333 -137 405s-211 154 -359 154c-147.333 0 -267 -51.667 -359 -155s-138 -238 -138 -404c0 -136.667 34.333 -261.167 103 -373.5
s168 -205.5 298 -279.5v-150h-590v156h332c-109.333 88.667 -190.166 183.667 -242.499 285s-78.5 213 -78.5 335c0 219.333 62.833 397 188.5 533s287.834 204 486.501 204c199.333 0 361.833 -67.5 487.5 -202.5s188.5 -311.833 188.5 -530.5
c0 -124 -26.167 -236.833 -78.5 -338.5s-133.166 -196.834 -242.499 -285.501h332z" />
    <glyph glyph-name="pi" unicode="&#x3c0;" horiz-adv-x="1186" 
d="M1139 930l-184.997 -0.00195312l-110 -516c-9.33301 -44 -16.5 -82.167 -21.5 -114.5s-7.5 -57.166 -7.5 -74.499c0 -38 8 -65.167 24 -81.5s43 -24.5 81 -24.5c14 0 29.333 0.833008 46 2.5s34 4.16699 52 7.5l-29 -129l-5 -1c-42.667 -10 -75.667 -15 -99 -15
c-73.333 0 -129.333 17.167 -168 51.5s-58 84.5 -58 150.5c0 32 3.83301 72.333 11.5 121s22.5 125.334 44.5 230.001l84 393h-348l-197 -930h-158l197 930h-39c-36.667 0 -64.834 -10.333 -84.501 -31s-33.167 -54 -40.5 -100h-145c17.333 102 48.666 172.5 93.999 211.5
s119.666 58.5 222.999 58.5h866z" />
    <glyph glyph-name="endash" unicode="&#x2013;" horiz-adv-x="1024" 
d="M-70 455l25 118h1049l-25 -118h-1049z" />
    <glyph glyph-name="emdash" unicode="&#x2014;" horiz-adv-x="2048" 
d="M2003 573l-25 -118h-2048l25 118h2048z" />
    <glyph glyph-name="quoteleft" unicode="&#x2018;" horiz-adv-x="426" 
d="M504 1475l-133 -402h-230l213 402h150z" />
    <glyph glyph-name="quoteright" unicode="&#x2019;" horiz-adv-x="426" 
d="M147 1073l132 402h231l-213 -402h-150z" />
    <glyph glyph-name="quotesinglbase" unicode="&#x201a;" horiz-adv-x="426" 
d="M-123 -211l131 401h232l-215 -401h-148z" />
    <glyph glyph-name="quotedblleft" unicode="&#x201c;" horiz-adv-x="795" 
d="M504 1475l-133 -402h-230l213 402h150zM870 1475l-133 -402h-229l213 402h149z" />
    <glyph glyph-name="quotedblright" unicode="&#x201d;" horiz-adv-x="795" 
d="M514 1073l131 402h232l-213 -402h-150zM147 1073l132 402h231l-213 -402h-150z" />
    <glyph glyph-name="quotedblbase" unicode="&#x201e;" horiz-adv-x="795" 
d="M244 -211l131 401h231l-215 -401h-147zM-123 -211l131 401h232l-215 -401h-148z" />
    <glyph glyph-name="dagger" unicode="&#x2020;" 
d="M250 0l217 1022h-293l31 141h291l67 312h162l-66 -312h291l-30 -141h-291l-217 -1022h-162z" />
    <glyph glyph-name="daggerdbl" unicode="&#x2021;" 
d="M250 0l59 281h-291l29 139h291l135 635h-291l29 137h291l61 283h162l-59 -283h288l-28 -137h-291l-135 -635h293l-31 -139h-291l-59 -281h-162z" />
    <glyph glyph-name="bullet" unicode="&#x2022;" horiz-adv-x="1208" 
d="M307 762c0 82 28.999 151.666 86.999 208.999s128 86 210 86c81.333 0 150.833 -28.833 208.5 -86.5s86.5 -127.167 86.5 -208.5s-29.167 -151.166 -87.5 -209.499s-128.166 -87.5 -209.499 -87.5c-82 0 -151.667 29 -209 87s-86 128 -86 210z" />
    <glyph glyph-name="ellipsis" unicode="&#x2026;" horiz-adv-x="2048" 
d="M90 0l43 205h194l-43 -205h-194zM772 0l43 205h194l-43 -205h-194zM1456 0l43 205h194l-43 -205h-194z" />
    <glyph glyph-name="perthousand" unicode="&#x2030;" horiz-adv-x="2091" 
d="M1737 604c-24 0 -44.499 -4.33301 -61.499 -13s-32.167 -22.667 -45.5 -42c-5.33301 -7.33301 -10.666 -17.833 -15.999 -31.5s-13 -38.167 -23 -73.5c-12.667 -48 -22.334 -94.167 -29.001 -138.5s-10 -84.833 -10 -121.5c0 -31.333 8.16699 -56.166 24.5 -74.499
s38.166 -27.5 65.499 -27.5c24.667 0 45.167 3.83301 61.5 11.5s30.166 19.5 41.499 35.5c8 11.333 15.333 25.666 22 42.999s14.334 42 23.001 74c13.333 53.333 23.5 101.833 30.5 145.5s10.5 80.5 10.5 110.5s-8.83301 54.5 -26.5 73.5s-40.167 28.5 -67.5 28.5z
M1411 199c0 164.667 28.334 291.834 85.001 381.501s137 134.5 241 134.5c77.333 0 136.166 -19.833 176.499 -59.5s60.5 -97.167 60.5 -172.5c0 -74.667 -10.333 -150.834 -31 -228.501s-45 -135.834 -73 -174.501c-26 -35.333 -58.167 -61.666 -96.5 -78.999
s-83.5 -26 -135.5 -26c-69.333 0 -124.5 20.167 -165.5 60.5s-61.5 94.833 -61.5 163.5zM1077 604c-23.333 0 -43.1689 -4.33301 -59.502 -13s-31.166 -22.667 -44.499 -42c-5.33301 -7.33301 -10.666 -17.833 -15.999 -31.5s-13 -38.167 -23 -73.5
c-13.333 -50.667 -23.5 -98 -30.5 -142s-10.5 -83.333 -10.5 -118c0 -31.333 8 -56.166 24 -74.499s38 -27.5 66 -27.5c24 0 44.167 3.83301 60.5 11.5s30.166 19.5 41.499 35.5c8.66699 11.333 16.334 25.666 23.001 42.999s14 42 22 74c14 53.333 24.333 101.833 31 145.5
s10 80.5 10 110.5s-8.66699 54.5 -26 73.5s-40 28.5 -68 28.5zM751.999 199c0 164.667 28.166 291.834 84.499 381.501s136.5 134.5 240.5 134.5c77.333 0 136.333 -19.833 177 -59.5s61 -97.167 61 -172.5c0 -74.667 -10.5 -150.834 -31.5 -228.501
s-45.5 -135.834 -73.5 -174.501c-25.333 -35.333 -57.166 -61.666 -95.499 -78.999s-83.5 -26 -135.5 -26c-70 0 -125.333 20.167 -166 60.5s-61 94.833 -61 163.5zM153.998 -25l976 1475h138l-979 -1475h-135zM421.998 1341c-21.333 0 -39.332 -4.33105 -53.999 -12.998
s-28.667 -23.334 -42 -44.001c-19.333 -30.667 -37.5 -81.667 -54.5 -153s-25.5 -141 -25.5 -209c0 -32 8 -57.167 24 -75.5s38 -27.5 66 -27.5c24 0 44.167 3.83301 60.5 11.5s30.166 19.5 41.499 35.5c8 11.333 15.5 25.666 22.5 42.999s14.5 42 22.5 74
c13.333 53.333 23.5 101.833 30.5 145.5s10.5 80.5 10.5 110.5c0 32 -9 57 -27 75s-43 27 -75 27zM103.999 936.002c0 164.667 28.332 291.83 84.999 381.497s137 134.5 241 134.5c77.333 0 136.333 -19.667 177 -59s61 -96.666 61 -171.999s-10.5 -151.666 -31.5 -228.999
s-45.5 -135.666 -73.5 -174.999c-25.333 -34.667 -57.166 -60.667 -95.499 -78s-83.5 -26 -135.5 -26c-70 0 -125.5 20 -166.5 60s-61.5 94.333 -61.5 163z" />
    <glyph glyph-name="guilsinglleft" unicode="&#x2039;" horiz-adv-x="498" 
d="M135 119l-96 409l276 383h150l-254 -395l59 -397h-135z" />
    <glyph glyph-name="guilsinglright" unicode="&#x203a;" horiz-adv-x="498" 
d="M266 911l96 -411l-276 -381h-149l253 393l-59 399h135z" />
    <glyph glyph-name="franc" unicode="&#x20a3;" horiz-adv-x="1507" 
d="M-18 0l313 1475h690l-37 -166h-493l-101 -465h469l-35 -166h-469l-143 -678h-194zM868 0l171.998 801c6.66699 30.667 12.834 64.167 18.501 100.5s11.167 78.5 16.5 126.5h170l-31 -172c33.333 62.667 72.833 108.667 118.5 138s99.834 44 162.501 44
c10 0 26.333 -1 49 -3c2.66699 -0.666992 4.66699 -1 6 -1l-35 -160h-32c-90.667 0 -159.5 -25 -206.5 -75s-85.5 -142.333 -115.5 -277l-117 -522h-176z" />
    <glyph glyph-name="trademark" unicode="&#x2122;" horiz-adv-x="1706" 
d="M948 1456l160 -405l149 405h132v-534h-82v458l-172 -458h-54l-180 458v-458h-82v534h129zM694 1456v-67h-172v-467h-94v467h-174v67h440z" />
    <glyph glyph-name="partialdiff" unicode="&#x2202;" horiz-adv-x="1044" 
d="M754 604c8.66699 54 15.1699 107.833 19.5029 161.5s6.5 106.5 6.5 158.5c0 93.333 -13.167 165.5 -39.5 216.5s-63.5 76.5 -111.5 76.5c-35.333 0 -74.333 -21.167 -117 -63.5s-79 -63.5 -109 -63.5c-19.333 0 -36.333 7.16699 -51 21.5s-22 31.5 -22 51.5
c0 39.333 22.667 74.5 68 105.5s99.666 46.5 162.999 46.5c114 0 205 -50.833 273 -152.5s102 -239.167 102 -412.5c0 -223.333 -46.333 -408.333 -139 -555s-207.334 -220 -344.001 -220c-98 0 -178.5 35.5 -241.5 106.5s-94.5 161.833 -94.5 272.5
c0 126 36.167 231.333 108.5 316s161.166 127 266.499 127c66 0 120.167 -15.667 162.5 -47s75.5 -80 99.5 -146zM709.003 483c0 78 -15 138.168 -45 180.501s-72.333 63.5 -127 63.5c-75.333 0 -136.833 -42.5 -184.5 -127.5s-71.5 -196.167 -71.5 -333.5
c0 -78 14.667 -137.333 44 -178s72 -61 128 -61c74 0 135.167 42.667 183.5 128s72.5 194.666 72.5 327.999z" />
    <glyph glyph-name="Delta" unicode="&#x2206;" horiz-adv-x="1356" 
d="M1122 158l-444 1138l-445 -1138h889zM780 1473l586 -1473h-1374l586 1473h202z" />
    <glyph glyph-name="product" unicode="&#x220f;" horiz-adv-x="1528" 
d="M160 1473h1208v-1866h-201v1693h-809v-1693h-198v1866z" />
    <glyph glyph-name="summation" unicode="&#x2211;" horiz-adv-x="1346" 
d="M51 1473h1239v-166h-989l690 -744l-719 -792h1035v-164h-1289v139l738 813l-705 758v156z" />
    <glyph glyph-name="minus" unicode="&#x2212;" horiz-adv-x="1706" 
d="M1452 670v-119h-1198v119h1198z" />
    <glyph glyph-name="fraction" unicode="&#x2215;" horiz-adv-x="342" 
d="M-342 -25l901 1475h123l-901 -1475h-123z" />
    <glyph glyph-name="periodcentered" unicode="&#x2219;" horiz-adv-x="492" 
d="M127 713c0 32 10.833 59.001 32.5 81.001s48.5 33 80.5 33c32.667 0 59.834 -10.833 81.501 -32.5s32.5 -48.834 32.5 -81.501s-10.833 -59.667 -32.5 -81s-48.834 -32 -81.501 -32s-59.667 10.667 -81 32s-32 48.333 -32 81z" />
    <glyph glyph-name="radical" unicode="&#x221a;" horiz-adv-x="1288" 
d="M1288 1647v-82h-119l-594 -1606h-53l-323 893l-119 -43l-23 68l262 92l265 -729l522 1407h182z" />
    <glyph glyph-name="infinity" unicode="&#x221e;" horiz-adv-x="1706" 
d="M905 559c34 -63.333 73.6689 -110.5 119.002 -141.5s97.333 -46.5 156 -46.5c68 0 124.167 23.667 168.5 71s66.5 107.666 66.5 180.999c0 72 -20.333 131.833 -61 179.5s-91.334 71.5 -152.001 71.5c-56.667 0 -107.834 -24.167 -153.501 -72.5
s-93.5 -129.166 -143.5 -242.499zM803.002 666c-34 63.333 -73.6699 110.833 -119.003 142.5s-96.666 47.5 -153.999 47.5c-70 0 -127 -23.667 -171 -71s-66 -108.333 -66 -183c0 -72 20.333 -131.667 61 -179s91.334 -71 152.001 -71c56.667 0 107.334 23 152.001 69
s93 127.667 145 245zM839.999 727c44.667 92 93.333 159.998 146 203.998s111 66 175 66c89.333 0 164.666 -36.167 225.999 -108.5s92 -163.166 92 -272.499c0 -114 -27.333 -206.333 -82 -277s-125.667 -106 -213 -106c-64 0 -120.333 20 -169 60
s-98.334 107 -149.001 201c-47.333 -92 -96.666 -159.167 -147.999 -201.5s-109 -63.5 -173 -63.5c-89.333 0 -164.666 36.333 -225.999 109s-92 163.334 -92 272.001c0 114.667 27.5 207.167 82.5 277.5s126.5 105.5 214.5 105.5c64.667 0 122 -21 172 -63
s98 -109.667 144 -203z" />
    <glyph glyph-name="integral" unicode="&#x222b;" horiz-adv-x="1020" 
d="M301 -268c68.667 0 107.33 221.335 115.997 664.002c2 94 3.66699 166 5 216c8 335.333 42 575.166 102 719.499s153.667 216.5 281 216.5c50.667 0 91.334 -13 122.001 -39s46 -60.667 46 -104c0 -32 -10.333 -57.833 -31 -77.5s-48 -29.5 -82 -29.5
c-35.333 0 -63.666 11.667 -84.999 35s-32 54 -32 92c0 5.33301 -2 10.5 -6 15.5s-8.66699 7.5 -14 7.5c-70 0 -109.667 -211.333 -119 -634c-2 -104.667 -4 -186.334 -6 -245.001c-6.66699 -205.333 -17.167 -359 -31.5 -461s-35.166 -184.333 -62.499 -247
c-32.667 -76 -73.667 -133.667 -123 -173s-105.333 -59 -168 -59c-48.667 0 -88.5 12.667 -119.5 38s-46.5 57.666 -46.5 96.999c0 35.333 10.5 63.333 31.5 84s48.833 31 83.5 31c31.333 0 57.833 -9.66699 79.5 -29s32.5 -41.666 32.5 -66.999c0 -16 2.5 -28.5 7.5 -37.5
s11.5 -13.5 19.5 -13.5z" />
    <glyph glyph-name="approxequal" unicode="&#x2248;" horiz-adv-x="1706" 
d="M1530 453c-71.333 -50 -138.668 -86.832 -202.001 -110.499s-125.666 -35.5 -186.999 -35.5c-65.333 0 -161.333 23.167 -288 69.5s-223.334 69.5 -290.001 69.5c-54.667 0 -111.167 -11.833 -169.5 -35.5s-130.166 -64.834 -215.499 -123.501v131
c70.667 48.667 138 85 202 109s125.667 36 185 36c74 0 174.5 -22.833 301.5 -68.5s219.167 -68.5 276.5 -68.5c56.667 0 114.5 11.833 173.5 35.5s130.167 64.5 213.5 122.5v-131zM1530 803.001c-69.333 -48.667 -135.999 -84.832 -199.999 -108.499
s-126.333 -35.5 -187 -35.5c-66.667 0 -163.334 23 -290.001 69s-223.334 69 -290.001 69c-55.333 0 -112.5 -12 -171.5 -36s-130.167 -64.667 -213.5 -122v131c70.667 48.667 138 85 202 109s125.667 36 185 36c74 0 174.167 -22.833 300.5 -68.5
s218.833 -68.5 277.5 -68.5c58 0 116.333 11.667 175 35s129.334 63.666 212.001 120.999v-131z" />
    <glyph glyph-name="notequal" unicode="&#x2260;" horiz-adv-x="1706" 
d="M1298 1110l-196 -250h350v-115h-424l-211 -270h635v-115h-709l-251 -319l-89 70l197 249h-346v115h420l211 270h-631v115h704l252 320z" />
    <glyph glyph-name="lessequal" unicode="&#x2264;" horiz-adv-x="1706" 
d="M1444 150v-117h-1182v117h1182zM1444 1067l-977 -324l977 -323v-125l-1182 399v101l1182 397v-125z" />
    <glyph glyph-name="greaterequal" unicode="&#x2265;" horiz-adv-x="1706" 
d="M1444 150v-117h-1182v117h1182zM1444 795v-101l-1182 -399v125l979 323l-979 324v125z" />
    <glyph glyph-name="lozenge" unicode="&#x25ca;" horiz-adv-x="1012" 
d="M506 1409l-385 -817l385 -825l385 825zM506 1653l500 -1061l-500 -1069l-500 1069z" />
    <glyph glyph-name="apple" unicode="&#xf000;" horiz-adv-x="1618" 
d="M836 1216c-0.666992 4 -1.16699 8.66895 -1.5 14.002s-0.5 13 -0.5 23c0 82.667 31.667 159.167 95 229.5s142 114.166 236 131.499c0.666992 -6.66699 1.16699 -14.334 1.5 -23.001s0.5 -21.667 0.5 -39c0 -87.333 -34.5 -165.5 -103.5 -234.5
s-136.833 -103.5 -203.5 -103.5h-8c-2 0 -4.5 0.333008 -7.5 1s-5.83301 1 -8.5 1zM1505 403.002c-76 -164.667 -144.336 -278.834 -205.003 -342.501s-128.667 -95.5 -204 -95.5c-33.333 0 -77.166 11 -131.499 33s-95.166 33 -122.499 33c-30 0 -73.667 -11 -131 -33
s-99.666 -33 -126.999 -33c-42.667 0 -85.5 14.667 -128.5 44s-86.167 73.333 -129.5 132c-68 93.333 -120.5 191.833 -157.5 295.5s-55.5 203.834 -55.5 300.501c0 146 41.667 264.833 125 356.5s191 137.5 323 137.5c45.333 0 97 -11.333 155 -34s99.333 -34 124 -34
c22.667 0 63.167 11.667 121.5 35s109.166 35 152.499 35c73.333 0 139.333 -13.333 198 -40s112.334 -68 161.001 -124c-68 -43.333 -118.5 -91.833 -151.5 -145.5s-49.5 -114.5 -49.5 -182.5c0 -75.333 20 -142 60 -200s97.667 -104 173 -138z" />
    <glyph glyph-name="fi" unicode="&#xf001;" horiz-adv-x="928" 
d="M-16 0l192.002 909h-164l27 119h162l30 154c24 120.667 58.833 203.667 104.5 249s116.167 68 211.5 68c18.667 0 35.667 -1.16699 51 -3.5s30.333 -5.83301 45 -10.5l-27 -129c-8 1.33301 -16.5 2.33301 -25.5 3s-20.833 1 -35.5 1
c-40.667 0 -71.834 -13.167 -93.501 -39.5s-38.834 -71.833 -51.501 -136.5l-31 -156h170l-25 -119h-170l-194 -909h-176zM735.002 1294l39 181h189l-37 -181h-191zM467.002 0l219 1028h176l-217 -1028h-178z" />
    <glyph glyph-name="fl" unicode="&#xf002;" horiz-adv-x="928" 
d="M467 0l313 1475h178l-313 -1475h-178zM-16 0l192.002 909h-164l27 119h162l30 148c25.333 123.333 60.666 207.333 105.999 252s115.333 67 210 67c16 0 31.833 -1.33301 47.5 -4s31.834 -6.66699 48.501 -12l-27 -129c-12 2 -23.167 3.5 -33.5 4.5s-19.5 1.5 -27.5 1.5
c-40.667 0 -71.834 -12.833 -93.501 -38.5s-38.834 -71.5 -51.501 -137.5l-31 -152h170l-25 -119h-170l-194 -909h-176z" />
    <glyph glyph-name=".null" horiz-adv-x="0" 
 />
    <glyph glyph-name="nonmarkingreturn" horiz-adv-x="492" 
 />
    </font>
</defs>
</svg>
